<?xml version="1.0" encoding="utf-8"?>
<!-- Generator: Adobe Illustrator 17.0.0, SVG Export Plug-In . SVG Version: 6.00 Build 0)  -->
<!DOCTYPE svg PUBLIC "-//W3C//DTD SVG 1.1 Tiny//EN" "http://www.w3.org/Graphics/SVG/1.1/DTD/svg11-tiny.dtd">
<svg version="1.1" baseProfile="tiny" id="Layer_1" xmlns="http://www.w3.org/2000/svg" xmlns:xlink="http://www.w3.org/1999/xlink"
	 x="0px" y="0px" width="144px" height="252px" viewBox="0 0 144 252" xml:space="preserve">
<g>
	<polygon fill="#695066" points="0,30.439 0,0 144,0 144,30.439 113.996,30.439 	"/>
	<path fill="#6A5066" d="M0,31.098L0,0.659c0,0,142.829-0.501,143.201-0.033c0.318,0.4,0.799,30.2,0.799,30.2l-29.736,0.272H0z"/>
	<path fill="#6B5067" d="M0,31.758L0,1.319c0,0,141.658-1.003,142.402-0.066c0.636,0.8,1.598,29.962,1.598,29.962l-29.468,0.544H0z"
		/>
	<path fill="#6C5067" d="M0,32.417L0,1.978c0,0,140.486-1.504,141.603-0.099c0.954,1.2,2.397,29.723,2.397,29.723l-29.2,0.815H0z"/>
	<path fill="#6D5067" d="M0,33.076L0,2.638c0,0,139.315-2.005,140.804-0.133c1.272,1.6,3.196,29.484,3.196,29.484l-28.932,1.087H0z"
		/>
	<path fill="#6D5067" d="M0,33.736L0,3.297c0,0,138.144-2.506,140.004-0.166c1.59,2,3.995,29.246,3.995,29.246l-28.664,1.359H0z"/>
	<path fill="#6E5067" d="M0,34.395L0,3.956c0,0,136.973-3.008,139.205-0.199c1.908,2.4,4.795,29.007,4.795,29.007l-28.396,1.631H0z"
		/>
	<path fill="#6F5167" d="M0,35.055L0,4.616c0,0,135.802-3.509,138.406-0.232c2.226,2.8,5.594,28.768,5.594,28.768l-28.128,1.902H0z"
		/>
	<path fill="#705167" d="M0,35.714L0,5.275c0,0,134.631-4.01,137.607-0.265C140.151,8.211,144,33.54,144,33.54l-27.86,2.174H0z"/>
	<path fill="#715167" d="M0,36.373L0,5.935c0,0,133.46-4.511,136.808-0.298C139.67,9.237,144,33.928,144,33.928l-27.593,2.446H0z"/>
	<path fill="#725167" d="M0,37.033L0,6.594c0,0,132.288-5.013,136.009-0.332c3.18,4.001,7.991,28.053,7.991,28.053l-27.325,2.718H0z
		"/>
	<path fill="#725167" d="M0,37.692L0,7.253c0,0,131.117-5.514,135.21-0.365c3.498,4.401,8.79,27.814,8.79,27.814l-27.057,2.99H0z"/>
	<path fill="#735167" d="M0,38.352L0,7.913c0,0,129.946-6.015,134.411-0.398C138.227,12.316,144,35.09,144,35.09l-26.789,3.261H0z"
		/>
	<path fill="#745167" d="M0,39.011L0,8.572c0,0,128.775-6.516,133.612-0.431C137.745,13.342,144,35.478,144,35.478l-26.521,3.533H0z
		"/>
	<path fill="#755267" d="M0,39.671L0,9.232c0,0,127.604-7.018,132.813-0.464C137.264,14.368,144,35.866,144,35.866l-26.253,3.805H0z
		"/>
	<path fill="#765267" d="M0,40.33L0,9.891c0,0,126.433-7.519,132.013-0.497c4.77,6.001,11.986,26.86,11.986,26.86l-25.985,4.077H0z"
		/>
	<path fill="#765267" d="M0,40.989l0-30.439c0,0,125.261-8.02,131.214-0.531C136.302,16.421,144,36.641,144,36.641l-25.717,4.348H0z
		"/>
	<path fill="#775267" d="M0,41.649L0,11.21c0,0,124.09-8.521,130.415-0.564C135.821,17.447,144,37.029,144,37.029l-25.449,4.62H0z"
		/>
	<path fill="#785267" d="M0,42.308l0-30.439c0,0,122.919-9.023,129.616-0.597C135.34,18.474,144,37.416,144,37.416l-25.182,4.892H0z
		"/>
	<path fill="#795267" d="M0,42.968l0-30.439c0,0,121.748-9.524,128.817-0.63C134.859,19.5,144,37.804,144,37.804l-24.914,5.164H0z"
		/>
	<path fill="#7A5267" d="M0,43.627l0-30.439c0,0,120.577-10.025,128.018-0.663C134.378,20.526,144,38.191,144,38.191l-24.646,5.436
		H0z"/>
	<path fill="#7B5367" d="M0,44.286l0-30.439c0,0,119.406-10.527,127.219-0.696C133.896,21.553,144,38.579,144,38.579l-24.378,5.707
		H0z"/>
	<path fill="#7B5367" d="M0,44.946l0-30.439c0,0,118.235-11.028,126.42-0.729C133.415,22.579,144,38.967,144,38.967l-24.11,5.979H0z
		"/>
	<path fill="#7C5367" d="M0,45.605l0-30.439c0,0,117.063-11.529,125.621-0.763C132.934,23.605,144,39.354,144,39.354l-23.842,6.251
		H0z"/>
	<path fill="#7D5367" d="M0,46.265l0-30.439c0,0,115.892-12.03,124.822-0.796C132.453,24.632,144,39.742,144,39.742l-23.574,6.523H0
		z"/>
	<path fill="#7E5368" d="M0,46.924l0-30.439c0,0,114.721-12.532,124.022-0.829C131.972,25.658,144,40.13,144,40.13l-23.306,6.794H0z
		"/>
	<path fill="#7F5368" d="M0,47.583l0-30.439c0,0,113.55-13.033,123.223-0.862C131.491,26.684,144,40.517,144,40.517l-23.038,7.066H0
		z"/>
	<path fill="#805368" d="M0,48.243l0-30.439c0,0,112.379-13.534,122.424-0.895C131.01,27.711,144,40.905,144,40.905l-22.771,7.338H0
		z"/>
	<path fill="#815468" d="M0,48.902l0-30.439c0,0,111.208-14.035,121.625-0.928C130.529,28.737,144,41.293,144,41.293l-22.503,7.61H0
		z"/>
	<path fill="#815468" d="M0,49.562l0-30.439c0,0,110.036-14.537,120.826-0.962C130.047,29.763,144,41.68,144,41.68l-22.235,7.881H0z
		"/>
	<path fill="#825468" d="M0,50.221l0-30.439c0,0,108.865-15.038,120.027-0.995C129.566,30.79,144,42.068,144,42.068l-21.967,8.153H0
		z"/>
	<path fill="#835468" d="M0,50.88l0-30.439c0,0,107.694-15.539,119.228-1.028C129.085,31.816,144,42.455,144,42.455l-21.699,8.425H0
		z"/>
	<path fill="#845468" d="M0,51.54l0-30.439c0,0,106.523-16.04,118.429-1.061C128.604,32.842,144,42.843,144,42.843l-21.431,8.697H0z
		"/>
	<path fill="#855468" d="M0,52.199L0,21.76c0,0,105.352-16.542,117.63-1.094C128.123,33.868,144,43.231,144,43.231l-21.163,8.969H0z
		"/>
	<path fill="#865468" d="M0,52.859L0,22.42c0,0,104.181-17.043,116.831-1.127C127.642,34.895,144,43.618,144,43.618l-20.895,9.24H0z
		"/>
	<path fill="#875468" d="M0,53.518l0-30.439c0,0,103.01-17.544,116.031-1.16C127.161,35.921,144,44.006,144,44.006l-20.627,9.512H0z
		"/>
	<path fill="#875568" d="M0,54.178l0-30.439c0,0,101.838-18.046,115.232-1.194C126.68,36.947,144,44.394,144,44.394l-20.36,9.784H0z
		"/>
	<path fill="#885568" d="M0,54.837l0-30.439c0,0,100.667-18.547,114.433-1.227C126.198,37.974,144,44.781,144,44.781l-20.092,10.056
		H0z"/>
	<path fill="#895568" d="M0,55.496l0-30.439c0,0,99.496-19.048,113.634-1.26C125.717,39,144,45.169,144,45.169l-19.824,10.327H0z"/>
	<path fill="#8A5568" d="M0,56.156l0-30.439c0,0,98.325-19.549,112.835-1.293C125.236,40.026,144,45.557,144,45.557l-19.556,10.599
		H0z"/>
	<path fill="#8B5568" d="M0,56.815l0-30.439c0,0,97.154-20.051,112.036-1.326C124.755,41.053,144,45.944,144,45.944l-19.288,10.871
		H0z"/>
	<path fill="#8C5568" d="M0,57.475l0-30.439c0,0,95.983-20.552,111.237-1.359C124.274,42.079,144,46.332,144,46.332l-19.02,11.143H0
		z"/>
	<path fill="#8D5568" d="M0,58.134l0-30.439c0,0,94.811-21.053,110.438-1.393C123.793,43.105,144,46.719,144,46.719l-18.752,11.415
		H0z"/>
	<path fill="#8D5668" d="M0,58.793l0-30.439c0,0,93.64-21.554,109.639-1.426C123.312,44.132,144,47.107,144,47.107l-18.484,11.686H0
		z"/>
	<path fill="#8E5668" d="M0,59.453l0-30.439c0,0,92.469-22.056,108.84-1.459C122.831,45.158,144,47.495,144,47.495l-18.216,11.958H0
		z"/>
	<path fill="#8F5668" d="M0,60.112l0-30.439c0,0,91.298-22.557,108.04-1.492C122.349,46.184,144,47.882,144,47.882l-17.949,12.23H0z
		"/>
	<path fill="#905668" d="M0,60.772l0-30.439c0,0,90.127-23.058,107.241-1.525C121.868,47.211,144,48.27,144,48.27l-17.681,12.502H0z
		"/>
	<path fill="#915668" d="M0,61.431l0-30.439c0,0,88.956-23.559,106.442-1.558C121.387,48.237,144,48.658,144,48.658l-17.413,12.773
		H0z"/>
	<path fill="#925668" d="M0,62.09l0-30.439c0,0,87.785-24.061,105.643-1.592C120.906,49.263,144,49.045,144,49.045L126.855,62.09H0z
		"/>
	<path fill="#935668" d="M0,62.75l0-30.439c0,0,86.613-24.562,104.844-1.625C120.425,50.29,144,49.433,144,49.433L127.123,62.75H0z"
		/>
	<path fill="#945768" d="M0,63.409L0,32.97c0,0,85.442-25.063,104.045-1.658C119.944,51.316,144,49.82,144,49.82l-16.609,13.589H0z"
		/>
	<path fill="#945768" d="M0,64.069L0,33.63c0,0,84.271-25.564,103.246-1.691C119.463,52.342,144,50.208,144,50.208l-16.341,13.861H0
		z"/>
	<path fill="#955768" d="M0,64.728l0-30.439c0,0,83.1-26.066,102.447-1.724C118.982,53.368,144,50.596,144,50.596l-16.073,14.132H0z
		"/>
	<path fill="#965768" d="M0,65.387l0-30.439c0,0,81.929-26.567,101.648-1.757C118.5,54.395,144,50.983,144,50.983l-15.805,14.404H0z
		"/>
	<path fill="#975768" d="M0,66.047l0-30.439c0,0,80.758-27.068,100.849-1.79C118.019,55.421,144,51.371,144,51.371l-15.538,14.676H0
		z"/>
	<path fill="#985768" d="M0,66.706l0-30.439c0,0,79.586-27.57,100.049-1.824C117.538,56.447,144,51.759,144,51.759l-15.27,14.948H0z
		"/>
	<path fill="#995768" d="M0,67.366l0-30.439c0,0,78.415-28.071,99.25-1.857C117.057,57.474,144,52.146,144,52.146l-15.002,15.219H0z
		"/>
	<path fill="#9A5768" d="M0,68.025l0-30.439c0,0,77.244-28.572,98.451-1.89C116.576,58.5,144,52.534,144,52.534l-14.734,15.491H0z"
		/>
	<path fill="#9B5868" d="M0,68.685l0-30.439c0,0,76.073-29.073,97.652-1.923C116.095,59.526,144,52.922,144,52.922l-14.466,15.763H0
		z"/>
	<path fill="#9C5868" d="M0,69.344l0-30.439c0,0,74.902-29.575,96.853-1.956C115.614,60.553,144,53.309,144,53.309l-14.198,16.035H0
		z"/>
	<path fill="#9C5868" d="M0,70.003l0-30.439c0,0,73.731-30.076,96.054-1.989C115.133,61.579,144,53.697,144,53.697l-13.93,16.307H0z
		"/>
	<path fill="#9D5868" d="M0,70.663l0-30.439c0,0,72.56-30.577,95.255-2.023C114.651,62.605,144,54.084,144,54.084l-13.662,16.578H0z
		"/>
	<path fill="#9E5868" d="M0,71.322l0-30.439c0,0,71.388-31.078,94.456-2.056C114.17,63.632,144,54.472,144,54.472l-13.394,16.85H0z"
		/>
	<path fill="#9F5868" d="M0,71.982l0-30.439c0,0,70.217-31.58,93.657-2.089C113.689,64.658,144,54.86,144,54.86l-13.127,17.122H0z"
		/>
	<path fill="#A05868" d="M0,72.641l0-30.439c0,0,69.046-32.081,92.858-2.122C113.208,65.684,144,55.247,144,55.247l-12.859,17.394H0
		z"/>
	<path fill="#A15868" d="M0,73.3l0-30.439c0,0,67.875-32.582,92.058-2.155C112.727,66.711,144,55.635,144,55.635L131.409,73.3H0z"/>
	<path fill="#A25968" d="M0,73.96l0-30.439c0,0,66.704-33.083,91.259-2.188C112.246,67.737,144,56.023,144,56.023L131.677,73.96H0z"
		/>
	<path fill="#A35968" d="M0,74.619L0,44.18c0,0,65.533-33.585,90.46-2.222C111.765,68.763,144,56.41,144,56.41l-12.055,18.209H0z"/>
	<path fill="#A45968" d="M0,75.279L0,44.84c0,0,64.361-34.086,89.661-2.255C111.284,69.79,144,56.798,144,56.798l-11.787,18.481H0z"
		/>
	<path fill="#A55968" d="M0,75.938l0-30.439c0,0,63.19-34.587,88.862-2.288C110.802,70.816,144,57.186,144,57.186l-11.519,18.752H0z
		"/>
	<path fill="#A65968" d="M0,76.597l0-30.439c0,0,62.019-35.088,88.063-2.321C110.321,71.842,144,57.573,144,57.573l-11.251,19.024H0
		z"/>
	<path fill="#A75968" d="M0,77.257l0-30.439c0,0,60.848-35.59,87.264-2.354C109.84,72.869,144,57.961,144,57.961l-10.983,19.296H0z"
		/>
	<path fill="#A85968" d="M0,77.916l0-30.439c0,0,59.677-36.091,86.465-2.387C109.359,73.895,144,58.348,144,58.348l-10.716,19.568H0
		z"/>
	<path fill="#A85968" d="M0,78.576l0-30.439c0,0,58.506-36.592,85.666-2.42C108.878,74.921,144,58.736,144,58.736l-10.448,19.84H0z"
		/>
	<path fill="#A95968" d="M0,79.235l0-30.439c0,0,57.334-37.094,84.867-2.454C108.397,75.947,144,59.124,144,59.124l-10.18,20.111H0z
		"/>
	<path fill="#AA5A68" d="M0,79.894l0-30.439c0,0,56.163-37.595,84.067-2.487C107.916,76.974,144,59.511,144,59.511l-9.912,20.383H0z
		"/>
	<path fill="#AB5A68" d="M0,80.554l0-30.439c0,0,54.992-38.096,83.268-2.52C107.435,78,144,59.899,144,59.899l-9.644,20.655H0z"/>
	<path fill="#AC5A68" d="M0,81.213l0-30.439c0,0,53.821-38.597,82.469-2.553C106.954,79.026,144,60.287,144,60.287l-9.376,20.927H0z
		"/>
	<path fill="#AD5A68" d="M0,81.873l0-30.439c0,0,52.65-39.099,81.67-2.586C106.472,80.053,144,60.674,144,60.674l-9.108,21.198H0z"
		/>
	<path fill="#AE5A68" d="M0,82.532l0-30.439c0,0,51.479-39.6,80.871-2.619C105.991,81.079,144,61.062,144,61.062l-8.84,21.47H0z"/>
	<path fill="#AF5A68" d="M0,83.191l0-30.439c0,0,50.308-40.101,80.072-2.653C105.51,82.105,144,61.449,144,61.449l-8.572,21.742H0z"
		/>
	<path fill="#B05A68" d="M0,83.851l0-30.439c0,0,49.136-40.602,79.273-2.686C105.029,83.132,144,61.837,144,61.837l-8.305,22.014H0z
		"/>
	<path fill="#B15A68" d="M0,84.51l0-30.439c0,0,47.965-41.104,78.474-2.719C104.548,84.158,144,62.225,144,62.225l-8.037,22.286H0z"
		/>
	<path fill="#B25B68" d="M0,85.17l0-30.439c0,0,46.794-41.605,77.675-2.752C104.067,85.184,144,62.612,144,62.612l-7.769,22.557H0z"
		/>
	<path fill="#B35B68" d="M0,85.829L0,55.39c0,0,45.623-42.106,76.876-2.785C103.586,86.211,144,63,144,63l-7.501,22.829H0z"/>
	<path fill="#B45B68" d="M0,86.489L0,56.05c0,0,44.452-42.607,76.076-2.818C103.105,87.237,144,63.388,144,63.388l-7.233,23.101H0z"
		/>
	<path fill="#B55B68" d="M0,87.148l0-30.439c0,0,43.281-43.109,75.277-2.851C102.623,88.263,144,63.775,144,63.775l-6.965,23.373H0z
		"/>
	<path fill="#B65B68" d="M0,87.807l0-30.439c0,0,42.109-43.61,74.478-2.885C102.142,89.29,144,64.163,144,64.163l-6.697,23.644H0z"
		/>
	<path fill="#B75B68" d="M0,88.467l0-30.439c0,0,40.938-44.111,73.679-2.918C101.661,90.316,144,64.551,144,64.551l-6.429,23.916H0z
		"/>
	<path fill="#B85B68" d="M0,89.126l0-30.439c0,0,39.767-44.613,72.88-2.951c28.3,35.606,71.12,9.202,71.12,9.202l-6.161,24.188H0z"
		/>
	<path fill="#B95B68" d="M0,89.786l0-30.439c0,0,38.596-45.114,72.081-2.984C100.699,92.369,144,65.326,144,65.326l-5.894,24.46H0z"
		/>
	<path fill="#B95B68" d="M0,90.445l0-30.439c0,0,37.425-45.615,71.282-3.017C100.218,93.395,144,65.713,144,65.713l-5.626,24.732H0z
		"/>
	<path fill="#BA5B68" d="M0,91.104l0-30.439c0,0,36.254-46.116,70.483-3.05C99.737,94.421,144,66.101,144,66.101l-5.358,25.003H0z"
		/>
	<path fill="#BB5C68" d="M0,91.764l0-30.439c0,0,35.083-46.618,69.684-3.084C99.256,95.448,144,66.489,144,66.489l-5.09,25.275H0z"
		/>
	<path fill="#BC5C68" d="M0,92.423l0-30.439c0,0,33.911-47.119,68.885-3.117C98.774,96.474,144,66.876,144,66.876l-4.822,25.547H0z"
		/>
	<path fill="#BD5C68" d="M0,93.083l0-30.439c0,0,32.74-47.62,68.085-3.15C98.293,97.5,144,67.264,144,67.264l-4.554,25.819H0z"/>
	<path fill="#BE5C68" d="M0,93.742l0-30.439c0,0,31.569-48.121,67.286-3.183C97.812,98.526,144,67.652,144,67.652l-4.286,26.09H0z"
		/>
	<path fill="#BF5C68" d="M0,94.401l0-30.439c0,0,30.398-48.623,66.487-3.216C97.331,99.553,144,68.039,144,68.039l-4.018,26.362H0z"
		/>
	<path fill="#C05C68" d="M0,95.061l0-30.439c0,0,29.227-49.124,65.688-3.249C96.85,100.579,144,68.427,144,68.427l-3.75,26.634H0z"
		/>
	<path fill="#C15C68" d="M0,95.72l0-30.439c0,0,28.056-49.625,64.889-3.283C96.369,101.605,144,68.814,144,68.814l-3.483,26.906H0z"
		/>
	<path fill="#C25C68" d="M0,96.38l0-30.439c0,0,26.884-50.126,64.09-3.316C95.888,102.632,144,69.202,144,69.202l-3.215,27.178H0z"
		/>
	<path fill="#C35D68" d="M0,97.039L0,66.6c0,0,25.713-50.628,63.291-3.349C95.407,103.658,144,69.59,144,69.59l-2.947,27.449H0z"/>
	<path fill="#C45D69" d="M0,97.698L0,67.26c0,0,24.542-51.129,62.492-3.382c32.433,40.807,81.508,6.1,81.508,6.1l-2.679,27.721H0z"
		/>
	<path fill="#C55D69" d="M0,98.358l0-30.439c0,0,23.371-51.63,61.693-3.415C94.444,105.711,144,70.365,144,70.365l-2.411,27.993H0z"
		/>
	<path fill="#C75D69" d="M0,99.017l0-30.439c0,0,22.2-52.131,60.894-3.448C93.963,106.737,144,70.753,144,70.753l-2.143,28.265H0z"
		/>
	<path fill="#C85D69" d="M0,99.677l0-30.439c0,0,21.029-52.633,60.094-3.481C93.482,107.763,144,71.14,144,71.14l-1.875,28.536H0z"
		/>
	<path fill="#C95D69" d="M0,100.336l0-30.439c0,0,19.858-53.134,59.295-3.515C93.001,108.79,144,71.528,144,71.528l-1.607,28.808H0z
		"/>
	<path fill="#CA5D69" d="M0,100.996l0-30.439c0,0,18.686-53.635,58.496-3.548C92.52,109.816,144,71.916,144,71.916l-1.339,29.08H0z"
		/>
	<path fill="#CB5E69" d="M0,101.655l0-30.439c0,0,17.515-54.137,57.697-3.581C92.039,110.842,144,72.303,144,72.303l-1.072,29.352H0
		z"/>
	<path fill="#CC5E69" d="M0,102.314l0-30.439c0,0,16.344-54.638,56.898-3.614C91.558,111.869,144,72.691,144,72.691l-0.804,29.623H0
		z"/>
	<path fill="#CD5E69" d="M0,102.974l0-30.439c0,0,15.173-55.139,56.099-3.647C91.076,112.895,144,73.078,144,73.078l-0.536,29.895H0
		z"/>
	<path fill="#CE5E69" d="M0,103.633l0-30.439c0,0,14.002-55.64,55.3-3.68c35.295,44.407,88.7,3.952,88.7,3.952l-0.268,30.167H0z"/>
	<path fill="#D05E69" d="M0,104.293l0-30.439c0,0,12.831-56.142,54.501-3.714C90.114,114.948,144,73.854,144,73.854v30.439H0z"/>
	<path fill="#CF5F6A" d="M0,104.936l0-30.439c0,0,13.576-56.121,54.832-3.776C90.072,115.497,144,74.497,144,74.497v30.439H0z"/>
	<path fill="#CE606A" d="M0,105.579L0,75.14c0,0,14.322-56.1,55.163-3.838C90.029,116.046,144,75.14,144,75.14v30.439H0z"/>
	<path fill="#CE606A" d="M0,106.222l0-30.439c0,0,15.068-56.079,55.494-3.9c34.492,44.712,88.505,3.9,88.505,3.9v30.439H0z"/>
	<path fill="#CD616B" d="M0,106.865l0-30.439c0,0,15.814-56.058,55.826-3.962C89.944,117.145,144,76.426,144,76.426v30.439H0z"/>
	<path fill="#CC616B" d="M0,107.508L0,77.07c0,0,16.56-56.037,56.157-4.024C89.902,117.694,144,77.07,144,77.07v30.439H0z"/>
	<path fill="#CC626B" d="M0,108.152l0-30.439c0,0,17.415-56.098,56.488-4.086C89.953,118.173,144,77.713,144,77.713v30.439H0z"/>
	<path fill="#CB626C" d="M0,108.795l0-30.439c0,0,18.179-56.09,56.819-4.148C89.927,118.712,144,78.356,144,78.356v30.439H0z"/>
	<path fill="#CA636C" d="M0,109.438l0-30.439c0,0,18.944-56.082,57.151-4.211C89.9,119.25,144,78.999,144,78.999v30.439H0z"/>
	<path fill="#C9636D" d="M0,110.081l0-30.439c0,0,19.708-56.073,57.482-4.273C89.874,119.789,144,79.642,144,79.642v30.439H0z"/>
	<path fill="#C9646D" d="M0,110.724l0-30.439c0,0,20.472-56.064,57.813-4.335C89.847,120.328,144,80.285,144,80.285v30.439H0z"/>
	<path fill="#C8656D" d="M0,111.367l0-30.439c0,0,21.236-56.055,58.144-4.397C89.821,120.867,144,80.928,144,80.928v30.439H0z"/>
	<path fill="#C7656E" d="M0,112.01l0-30.439c0,0,22.001-56.046,58.475-4.459C89.794,121.407,144,81.572,144,81.572v30.439H0z"/>
	<path fill="#C7666E" d="M0,112.654l0-30.439c0,0,22.765-56.036,58.807-4.521C89.768,121.946,144,82.215,144,82.215v30.439H0z"/>
	<path fill="#C6666F" d="M0,113.297l0-30.439c0,0,23.529-56.026,59.138-4.583C89.741,122.486,144,82.858,144,82.858v30.439H0z"/>
	<path fill="#C5676F" d="M0,113.94l0-30.439c0,0,24.293-56.016,59.469-4.646C89.715,123.026,144,83.501,144,83.501v30.439H0z"/>
	<path fill="#C4676F" d="M0,114.583l0-30.439c0,0,25.058-56.006,59.8-4.708c29.888,44.13,84.2,4.708,84.2,4.708v30.439H0z"/>
	<path fill="#C46870" d="M0,115.226l0-30.439c0,0,25.822-55.995,60.132-4.77c29.53,44.09,83.868,4.77,83.868,4.77v30.439H0z"/>
	<path fill="#C36870" d="M0,115.869l0-30.439c0,0,26.586-55.984,60.463-4.832C89.636,124.648,144,85.431,144,85.431v30.439H0z"/>
	<path fill="#C26971" d="M0,116.513l0-30.439c0,0,27.35-55.973,60.794-4.894C89.609,125.189,144,86.074,144,86.074v30.439H0z"/>
	<path fill="#C26971" d="M0,117.156l0-30.439c0,0,28.115-55.961,61.125-4.956C89.583,125.731,144,86.717,144,86.717v30.439H0z"/>
	<path fill="#C16A71" d="M0,117.799L0,87.36c0,0,28.879-55.949,61.456-5.018C89.557,126.273,144,87.36,144,87.36v30.439H0z"/>
	<path fill="#C06A72" d="M0,118.442l0-30.439c0,0,29.643-55.937,61.788-5.08C89.53,126.814,144,88.003,144,88.003v30.439H0z"/>
	<path fill="#BF6B72" d="M0,119.085l0-30.439c0,0,30.407-55.924,62.119-5.143C89.504,127.357,144,88.646,144,88.646v30.439H0z"/>
	<path fill="#BF6B73" d="M0,119.728L0,89.29c0,0,31.171-55.912,62.45-5.205C89.478,127.899,144,89.29,144,89.29v30.439H0z"/>
	<path fill="#BE6B73" d="M0,120.372l0-30.439c0,0,31.935-55.898,62.781-5.267C89.451,128.442,144,89.933,144,89.933v30.439H0z"/>
	<path fill="#BD6C73" d="M0,121.015l0-30.439c0,0,32.699-55.885,63.113-5.329C89.425,128.985,144,90.576,144,90.576v30.439H0z"/>
	<path fill="#BC6C74" d="M0,121.658l0-30.439c0,0,33.462-55.871,63.444-5.391C89.398,129.528,144,91.219,144,91.219v30.439H0z"/>
	<path fill="#BC6D74" d="M0,122.301l0-30.439c0,0,34.226-55.857,63.775-5.453C89.372,130.072,144,91.862,144,91.862v30.439H0z"/>
	<path fill="#BB6D75" d="M0,122.944l0-30.439c0,0,34.99-55.843,64.106-5.515C89.345,130.615,144,92.505,144,92.505v30.439H0z"/>
	<path fill="#BA6E75" d="M0,123.587l0-30.439c0,0,35.753-55.828,64.437-5.577C89.319,131.159,144,93.149,144,93.149v30.439H0z"/>
	<path fill="#B96E75" d="M0,124.231l0-30.439c0,0,36.517-55.813,64.769-5.64C89.292,131.704,144,93.792,144,93.792v30.439H0z"/>
	<path fill="#B96E76" d="M0,124.874l0-30.439c0,0,37.28-55.797,65.1-5.702c24.165,43.515,78.9,5.702,78.9,5.702v30.439H0z"/>
	<path fill="#B86F76" d="M0,125.517l0-30.439c0,0,38.044-55.782,65.431-5.764C89.238,132.793,144,95.078,144,95.078v30.439H0z"/>
	<path fill="#B76F77" d="M0,126.16l0-30.439c0,0,38.807-55.766,65.762-5.826C89.212,133.339,144,95.721,144,95.721v30.439H0z"/>
	<path fill="#B67077" d="M0,126.803l0-30.439c0,0,39.57-55.749,66.094-5.888C89.185,133.884,144,96.364,144,96.364v30.439H0z"/>
	<path fill="#B57077" d="M0,127.446l0-30.439c0,0,40.333-55.732,66.425-5.95C89.158,134.43,144,97.008,144,97.008v30.439H0z"/>
	<path fill="#B57178" d="M0,128.089l0-30.439c0,0,41.095-55.715,66.756-6.012C89.131,134.976,144,97.651,144,97.651v30.439H0z"/>
	<path fill="#B47178" d="M0,128.733l0-30.439c0,0,41.858-55.698,67.087-6.074C89.103,135.523,144,98.294,144,98.294v30.439H0z"/>
	<path fill="#B37179" d="M0,129.376l0-30.439c0,0,42.62-55.68,67.418-6.137C89.076,136.07,144,98.937,144,98.937v30.439H0z"/>
	<path fill="#B27279" d="M0,130.019L0,99.58c0,0,43.383-55.662,67.75-6.199C89.049,136.617,144,99.58,144,99.58v30.439H0z"/>
	<path fill="#B27279" d="M0,130.662l0-30.439c0,0,44.145-55.643,68.081-6.261c20.94,43.202,75.919,6.261,75.919,6.261v30.439H0z"/>
	<path fill="#B1727A" d="M0,131.305l0-30.439c0,0,44.907-55.624,68.412-6.323C88.993,137.712,144,100.866,144,100.866v30.439H0z"/>
	<path fill="#B0737A" d="M0,131.948l0-30.439c0,0,45.669-55.605,68.743-6.385C88.966,138.26,144,101.51,144,101.51v30.439H0z"/>
	<path fill="#AF737A" d="M0,132.592l0-30.439c0,0,46.43-55.585,69.074-6.447C88.938,138.808,144,102.153,144,102.153v30.439H0z"/>
	<path fill="#AE747B" d="M0,133.235l0-30.439c0,0,47.191-55.565,69.406-6.509C88.91,139.357,144,102.796,144,102.796v30.439H0z"/>
	<path fill="#AE747B" d="M0,133.878l0-30.439c0,0,47.952-55.545,69.737-6.571C88.881,139.906,144,103.439,144,103.439v30.439H0z"/>
	<path fill="#AD747C" d="M0,134.521l0-30.439c0,0,48.713-55.524,70.068-6.634C88.853,140.455,144,104.082,144,104.082v30.439H0z"/>
	<path fill="#AC757C" d="M0,135.164l0-30.439c0,0,49.474-55.503,70.399-6.696C88.824,141.005,144,104.725,144,104.725v30.439H0z"/>
	<path fill="#AB757D" d="M0,135.807l0-30.439c0,0,50.234-55.482,70.731-6.758C88.795,141.555,144,105.369,144,105.369v30.439H0z"/>
	<path fill="#AA757D" d="M0,136.451l0-30.439c0,0,50.995-55.46,71.062-6.82c17.705,42.913,72.938,6.82,72.938,6.82v30.439H0z"/>
	<path fill="#AA767D" d="M0,137.094l0-30.439c0,0,51.754-55.438,71.393-6.882C88.737,142.655,144,106.655,144,106.655v30.439H0z"/>
	<path fill="#A9767E" d="M0,137.737l0-30.439c0,0,52.514-55.415,71.724-6.944C88.708,143.206,144,107.298,144,107.298v30.439H0z"/>
	<path fill="#A8777E" d="M0,138.38l0-30.439c0,0,53.273-55.393,72.055-7.006C88.678,143.757,144,107.941,144,107.941v30.439H0z"/>
	<path fill="#A7777F" d="M0,139.023l0-30.439c0,0,54.032-55.369,72.387-7.069C88.648,144.309,144,108.584,144,108.584v30.439H0z"/>
	<path fill="#A7777F" d="M0,139.666l0-30.439c0,0,54.791-55.346,72.718-7.131c15.9,42.764,71.282,7.131,71.282,7.131v30.439H0z"/>
	<path fill="#A6787F" d="M0,140.31l0-30.439c0,0,55.549-55.322,73.049-7.193C88.588,145.413,144,109.871,144,109.871v30.439H0z"/>
	<path fill="#A57880" d="M0,140.953l0-30.439c0,0,56.307-55.297,73.38-7.255c15.177,42.706,70.62,7.255,70.62,7.255v30.439H0z"/>
	<path fill="#A47880" d="M0,141.596l0-30.439c0,0,57.065-55.273,73.712-7.317C88.526,146.518,144,111.157,144,111.157v30.439H0z"/>
	<path fill="#A37981" d="M0,142.239L0,111.8c0,0,57.822-55.248,74.043-7.379C88.495,147.071,144,111.8,144,111.8v30.439H0z"/>
	<path fill="#A37981" d="M0,142.882l0-30.439c0,0,58.579-55.223,74.374-7.441C88.464,147.624,144,112.443,144,112.443v30.439H0z"/>
	<path fill="#A27981" d="M0,143.525l0-30.439c0,0,59.336-55.197,74.705-7.503C88.432,148.178,144,113.087,144,113.087v30.439H0z"/>
	<path fill="#A17A82" d="M0,144.169l0-30.439c0,0,60.092-55.171,75.036-7.566C88.4,148.732,144,113.73,144,113.73v30.439H0z"/>
	<path fill="#A07A82" d="M0,144.812l0-30.439c0,0,60.848-55.145,75.368-7.628C88.367,149.286,144,114.373,144,114.373v30.439H0z"/>
	<path fill="#9F7A83" d="M0,145.455l0-30.439c0,0,61.603-55.118,75.699-7.69c12.635,42.514,68.301,7.69,68.301,7.69v30.439H0z"/>
	<path fill="#9E7B83" d="M0,146.098l0-30.439c0,0,62.358-55.091,76.03-7.752c12.271,42.488,67.97,7.752,67.97,7.752v30.439H0z"/>
	<path fill="#9E7B83" d="M0,146.741l0-30.439c0,0,63.113-55.064,76.361-7.814C88.268,150.95,144,116.302,144,116.302v30.439H0z"/>
	<path fill="#9D7B84" d="M0,147.384l0-30.439c0,0,63.867-55.036,76.693-7.876C88.234,151.505,144,116.945,144,116.945v30.439H0z"/>
	<path fill="#9C7C84" d="M0,148.027l0-30.439c0,0,64.62-55.009,77.024-7.938C88.2,152.061,144,117.589,144,117.589v30.439H0z"/>
	<path fill="#9B7C85" d="M0,148.671l0-30.439c0,0,65.373-54.981,77.355-8c10.81,42.385,66.645,8,66.645,8v30.439H0z"/>
	<path fill="#9A7C85" d="M0,149.314l0-30.439c0,0,66.126-54.952,77.686-8.063C88.13,153.173,144,118.875,144,118.875v30.439H0z"/>
	<path fill="#997D85" d="M0,149.957l0-30.439c0,0,66.878-54.924,78.017-8.125C88.094,153.729,144,119.518,144,119.518v30.439H0z"/>
	<path fill="#997D86" d="M0,150.6l0-30.439c0,0,67.63-54.895,78.349-8.187c9.71,42.311,65.651,8.187,65.651,8.187V150.6H0z"/>
	<path fill="#987D86" d="M0,151.243l0-30.439c0,0,68.381-54.866,78.68-8.249c9.342,42.287,65.32,8.249,65.32,8.249v30.439H0z"/>
	<path fill="#977E87" d="M0,151.886l0-30.439c0,0,69.132-54.836,79.011-8.311c8.974,42.263,64.989,8.311,64.989,8.311v30.439H0z"/>
	<path fill="#967E87" d="M0,152.53l0-30.439c0,0,69.882-54.807,79.342-8.373c8.606,42.239,64.658,8.373,64.658,8.373v30.439H0z"/>
	<path fill="#957E87" d="M0,153.173l0-30.439c0,0,70.632-54.777,79.674-8.435C87.91,156.514,144,122.734,144,122.734v30.439H0z"/>
	<path fill="#947E88" d="M0,153.816l0-30.439c0,0,71.381-54.747,80.005-8.497c7.867,42.191,63.995,8.497,63.995,8.497v30.439H0z"/>
	<path fill="#937F88" d="M0,154.459l0-30.439c0,0,72.129-54.717,80.336-8.56c7.497,42.168,63.664,8.56,63.664,8.56v30.439H0z"/>
	<path fill="#937F89" d="M0,155.102l0-30.439c0,0,72.877-54.686,80.667-8.622c7.127,42.145,63.333,8.622,63.333,8.622v30.439H0z"/>
	<path fill="#927F89" d="M0,155.745l0-30.439c0,0,73.625-54.656,80.998-8.684c6.756,42.122,63.002,8.684,63.002,8.684v30.439H0z"/>
	<path fill="#918089" d="M0,156.389l0-30.439c0,0,74.372-54.625,81.33-8.746c6.385,42.099,62.67,8.746,62.67,8.746v30.439H0z"/>
	<path fill="#90808A" d="M0,157.032l0-30.439c0,0,75.118-54.594,81.661-8.808c6.013,42.076,62.339,8.808,62.339,8.808v30.439H0z"/>
	<path fill="#8F808A" d="M0,157.675l0-30.439c0,0,75.864-54.563,81.992-8.87c5.64,42.054,62.008,8.87,62.008,8.87v30.439H0z"/>
	<path fill="#8E818B" d="M0,158.318l0-30.439c0,0,76.609-54.532,82.323-8.932c5.267,42.031,61.677,8.932,61.677,8.932v30.439H0z"/>
	<path fill="#8D818B" d="M0,158.961l0-30.439c0,0,77.353-54.501,82.655-8.994c4.894,42.009,61.345,8.994,61.345,8.994v30.439H0z"/>
	<path fill="#8C818B" d="M0,159.604l0-30.439c0,0,78.097-54.47,82.986-9.057c4.52,41.986,61.014,9.057,61.014,9.057v30.439H0z"/>
	<path fill="#8C828C" d="M0,160.248l0-30.439c0,0,78.841-54.438,83.317-9.119c4.145,41.964,60.683,9.119,60.683,9.119v30.439H0z"/>
	<path fill="#8B828C" d="M0,160.891l0-30.439c0,0,79.583-54.407,83.648-9.181c3.77,41.942,60.352,9.181,60.352,9.181v30.439H0z"/>
	<path fill="#8A828D" d="M0,161.534l0-30.439c0,0,80.325-54.376,83.979-9.243c3.394,41.919,60.021,9.243,60.021,9.243v30.439H0z"/>
	<path fill="#89838D" d="M0,162.177l0-30.439c0,0,81.067-54.344,84.311-9.305C87.328,164.33,144,131.738,144,131.738v30.439H0z"/>
	<path fill="#88838E" d="M0,162.82l0-30.439c0,0,81.808-54.313,84.642-9.367c2.641,41.875,59.358,9.367,59.358,9.367v30.439H0z"/>
	<path fill="#87838E" d="M0,163.463l0-30.439c0,0,82.548-54.281,84.973-9.429c2.263,41.852,59.027,9.429,59.027,9.429v30.439H0z"/>
	<path fill="#86838E" d="M0,164.106l0-30.439c0,0,83.287-54.25,85.304-9.492c1.885,41.83,58.696,9.492,58.696,9.492v30.439H0z"/>
	<path fill="#85848F" d="M0,164.75l0-30.439c0,0,84.026-54.219,85.635-9.554c1.506,41.808,58.364,9.554,58.364,9.554v30.439H0z"/>
	<path fill="#84848F" d="M0,165.393l0-30.439c0,0,84.765-54.188,85.967-9.616c1.127,41.785,58.033,9.616,58.033,9.616v30.439H0z"/>
	<path fill="#838490" d="M0,166.036l0-30.439c0,0,85.503-54.156,86.298-9.678c0.747,41.763,57.702,9.678,57.702,9.678v30.439H0z"/>
	<path fill="#828590" d="M0,166.679l0-30.439c0,0,86.24-54.125,86.629-9.74c0.366,41.74,57.371,9.74,57.371,9.74v30.439H0z"/>
	<path fill="#828590" d="M0,167.322l0-30.439c0,0,86.976-54.094,86.96-9.802c-0.015,41.718,57.04,9.802,57.04,9.802v30.439H0z"/>
	<path fill="#818591" d="M0,167.965l0-30.439c0,0,87.712-54.064,87.292-9.864C86.895,169.357,144,137.527,144,137.527v30.439H0z"/>
	<path fill="#808591" d="M0,168.609l0-30.439c0,0,88.447-54.033,87.623-9.926C86.844,169.915,144,138.17,144,138.17v30.439H0z"/>
	<path fill="#7F8692" d="M0,169.252l0-30.439c0,0,89.182-54.003,87.954-9.989C86.792,170.473,144,138.813,144,138.813v30.439H0z"/>
	<path fill="#7E8692" d="M0,169.895l0-30.439c0,0,89.916-53.972,88.285-10.051C86.74,171.031,144,139.456,144,139.456v30.439H0z"/>
	<path fill="#7D8693" d="M0,170.538l0-30.439c0,0,90.649-53.942,88.616-10.113C86.687,171.589,144,140.099,144,140.099v30.439H0z"/>
	<path fill="#7C8793" d="M0,171.181l0-30.439c0,0,91.382-53.912,88.948-10.175C86.633,172.146,144,140.742,144,140.742v30.439H0z"/>
	<path fill="#7B8793" d="M0,171.824l0-30.439c0,0,92.114-53.883,89.279-10.237C86.579,172.703,144,141.386,144,141.386v30.439H0z"/>
	<path fill="#7A8794" d="M0,172.468l0-30.439c0,0,92.846-53.854,89.61-10.299C86.525,173.26,144,142.029,144,142.029v30.439H0z"/>
	<path fill="#798794" d="M0,173.111l0-30.439c0,0,93.577-53.825,89.941-10.361C86.469,173.816,144,142.672,144,142.672v30.439H0z"/>
	<path fill="#788895" d="M0,173.754l0-30.439c0,0,94.308-53.796,90.273-10.423C86.413,174.373,144,143.315,144,143.315v30.439H0z"/>
	<path fill="#778895" d="M0,174.397l0-30.439c0,0,95.038-53.767,90.604-10.486C86.357,174.929,144,143.958,144,143.958v30.439H0z"/>
	<path fill="#768896" d="M0,174.989l0-30.439c0,0,95.767-53.739,90.935-10.548C86.3,175.433,144,144.551,144,144.551v30.439H0z"/>
	<path fill="#758996" d="M0,175.632l0-30.439c0,0,96.496-53.712,91.266-10.61C86.242,175.988,144,145.193,144,145.193v30.439H0z"/>
	<path fill="#748996" d="M0,176.274l0-30.439c0,0,97.224-53.684,91.597-10.672C86.184,176.542,144,145.835,144,145.835v30.439H0z"/>
	<path fill="#728997" d="M0,176.916l0-30.439c0,0,97.952-53.657,91.929-10.734C86.126,177.096,144,146.477,144,146.477v30.439H0z"/>
	<path fill="#718A97" d="M0,177.559l0-30.439c0,0,98.68-53.631,92.26-10.796C86.066,177.65,144,147.12,144,147.12v30.439H0z"/>
	<path fill="#708A98" d="M0,178.201l0-30.439c0,0,99.406-53.604,92.591-10.858C86.007,178.203,144,147.763,144,147.763v30.439H0z"/>
	<path fill="#6F8A98" d="M0,178.844l0-30.439c0,0,100.133-53.579,92.922-10.92C85.946,178.756,144,148.405,144,148.405v30.439H0z"/>
	<path fill="#6E8A99" d="M0,179.487l0-30.439c0,0,100.859-53.553,93.254-10.983C85.886,179.309,144,149.048,144,149.048v30.439H0z"
		/>
	<path fill="#6D8B99" d="M0,180.13l0-30.439c0,0,101.584-53.528,93.585-11.045C85.824,179.861,144,149.691,144,149.691v30.439H0z"/>
	<path fill="#6C8B99" d="M0,180.773l0-30.439c0,0,102.309-53.504,93.916-11.107C85.763,180.413,144,150.334,144,150.334v30.439H0z"
		/>
	<path fill="#6B8B9A" d="M0,181.416l0-30.439c0,0,103.034-53.48,94.247-11.169C85.701,180.965,144,150.977,144,150.977v30.439H0z"/>
	<path fill="#698B9A" d="M0,182.059l0-30.439c0,0,103.758-53.456,94.578-11.231C85.638,181.517,144,151.621,144,151.621v30.439H0z"
		/>
	<path fill="#688C9B" d="M0,182.703l0-30.439c0,0,104.482-53.433,94.91-11.293C85.575,182.068,144,152.264,144,152.264v30.439H0z"/>
	<path fill="#678C9B" d="M0,183.346l0-30.439c0,0,105.205-53.411,95.241-11.355C85.511,182.618,144,152.908,144,152.908v30.439H0z"
		/>
	<path fill="#668C9C" d="M0,183.99l0-30.439c0,0,105.928-53.389,95.572-11.417C85.447,183.169,144,153.551,144,153.551v30.439H0z"/>
	<path fill="#658D9C" d="M0,184.634l0-30.439c0,0,106.651-53.368,95.903-11.48C85.383,183.719,144,154.195,144,154.195v30.439H0z"/>
	<path fill="#638D9C" d="M0,185.278l0-30.439c0,0,107.373-53.347,96.235-11.542C85.318,184.268,144,154.839,144,154.839v30.439H0z"
		/>
	<path fill="#628D9D" d="M0,185.922l0-30.439c0,0,108.095-53.326,96.566-11.604C85.253,184.818,144,155.483,144,155.483v30.439H0z"
		/>
	<path fill="#618D9D" d="M0,186.566l0-30.439c0,0,108.817-53.306,96.897-11.666C85.188,185.366,144,156.127,144,156.127v30.439H0z"
		/>
	<path fill="#5F8E9E" d="M0,187.26l0-30.439c0,0,109.538-53.287,97.228-11.728C85.122,185.965,144,156.821,144,156.821v30.439H0z"/>
	<path fill="#5E8E9E" d="M0,187.903l0-30.439c0,0,110.259-53.268,97.559-11.79C85.056,186.511,144,157.465,144,157.465v30.439H0z"/>
	<path fill="#5D8E9F" d="M0,188.547l0-30.439c0,0,110.98-53.25,97.891-11.852C84.99,187.058,144,158.108,144,158.108v30.439H0z"/>
	<path fill="#5B8E9F" d="M0,189.19l0-30.439c0,0,111.701-53.233,98.222-11.915C84.923,187.603,144,158.751,144,158.751v30.439H0z"/>
	<path fill="#5A8F9F" d="M0,189.833l0-30.439c0,0,112.421-53.216,98.553-11.977C84.856,188.148,144,159.394,144,159.394v30.439H0z"
		/>
	<path fill="#598FA0" d="M0,190.476l0-30.439c0,0,113.142-53.199,98.884-12.039C84.789,188.693,144,160.037,144,160.037v30.439H0z"
		/>
	<path fill="#578FA0" d="M0,191.119l0-30.439c0,0,113.862-53.184,99.216-12.101C84.721,189.237,144,160.68,144,160.68v30.439H0z"/>
	<path fill="#568FA1" d="M0,191.762l0-30.439c0,0,114.582-53.168,99.547-12.163C84.653,189.78,144,161.324,144,161.324v30.439H0z"/>
	<path fill="#5490A1" d="M0,192.406l0-30.439c0,0,115.301-53.154,99.878-12.225C84.586,190.323,144,161.967,144,161.967v30.439H0z"
		/>
	<path fill="#5390A2" d="M0,193.049l0-30.439c0,0,116.021-53.14,100.209-12.287C84.517,190.865,144,162.61,144,162.61v30.439H0z"/>
	<path fill="#5190A2" d="M0,193.692l0-30.439c0,0,116.741-53.126,100.54-12.349C84.449,191.407,144,163.253,144,163.253v30.439H0z"
		/>
	<path fill="#5090A3" d="M0,194.335l0-30.439c0,0,117.46-53.113,100.872-12.412C84.381,191.948,144,163.896,144,163.896v30.439H0z"
		/>
	<path fill="#4E91A3" d="M0,194.978l0-30.439c0,0,118.179-53.101,101.203-12.474C84.312,192.488,144,164.539,144,164.539v30.439H0z"
		/>
	<path fill="#4C91A3" d="M0,195.621l0-30.439c0,0,118.898-53.089,101.534-12.536C84.244,193.028,144,165.183,144,165.183v30.439H0z"
		/>
	<path fill="#4B91A4" d="M0,196.265l0-30.439c0,0,119.618-53.078,101.865-12.598C84.175,193.568,144,165.826,144,165.826v30.439H0z"
		/>
	<path fill="#4991A4" d="M0,196.908l0-30.439c0,0,120.337-53.068,102.197-12.66C84.106,194.106,144,166.469,144,166.469v30.439H0z"
		/>
	<path fill="#4792A5" d="M0,197.551l0-30.439c0,0,120.976-53.095,102.528-12.722C83.957,194.608,144,167.112,144,167.112v30.439H0z"
		/>
	<path fill="#4592A5" d="M0,198.194l0-30.439c0,0,121.722-53.074,102.859-12.784C83.914,195.157,144,167.755,144,167.755v30.439H0z"
		/>
	<path fill="#4392A6" d="M0,198.837l0-30.439c0,0,122.468-53.053,103.19-12.846C83.872,195.707,144,168.398,144,168.398v30.439H0z"
		/>
	<path fill="#4192A6" d="M0,199.48l0-30.439c0,0,123.213-53.032,103.521-12.909S144,169.042,144,169.042v30.439H0z"/>
	<path fill="#4392A6" d="M0,199.766l0-30.439c0,0,122.628-52.678,103.2-12.857c-19.397,39.805,40.8,12.857,40.8,12.857v30.439H0z"/>
	<path fill="#4592A5" d="M0,199.972l0-30.439c0,0,122.043-52.325,102.879-12.805C83.778,196.215,144,169.533,144,169.533v30.439H0z"
		/>
	<path fill="#4692A5" d="M0,200.217l0-30.439c0,0,121.458-51.972,102.558-12.753C83.753,196.195,144,169.779,144,169.779v30.439H0z"
		/>
	<path fill="#4892A5" d="M0,200.463l0-30.439c0,0,120.873-51.619,102.237-12.702C83.727,196.174,144,170.024,144,170.024v30.439H0z"
		/>
	<path fill="#4A92A4" d="M0,200.709l0-30.439c0,0,120.287-51.266,101.916-12.65C83.701,196.154,144,170.27,144,170.27v30.439H0z"/>
	<path fill="#4B92A4" d="M0,200.954l0-30.439c0,0,119.702-50.913,101.595-12.598C83.676,196.133,144,170.516,144,170.516v30.439H0z"
		/>
	<path fill="#4D92A4" d="M0,201.2l0-30.439c0,0,119.117-50.56,101.274-12.546C83.65,196.113,144,170.761,144,170.761V201.2H0z"/>
	<path fill="#4F92A3" d="M0,201.454l0-30.439c0,0,118.454-50.243,100.953-12.495C83.547,196.065,144,171.015,144,171.015v30.439H0z"
		/>
	<path fill="#5092A3" d="M0,201.7l0-30.439c0,0,117.858-49.895,100.632-12.443C83.511,196.041,144,171.262,144,171.262V201.7H0z"/>
	<path fill="#5192A3" d="M0,201.947l0-30.439c0,0,117.263-49.546,100.311-12.391C83.475,196.017,144,171.508,144,171.508v30.439H0z"
		/>
	<path fill="#5392A2" d="M0,202.194l0-30.439c0,0,116.667-49.198,99.99-12.339C83.439,195.993,144,171.755,144,171.755v30.439H0z"/>
	<path fill="#5492A2" d="M0,202.44l0-30.439c0,0,116.071-48.849,99.669-12.288C83.403,195.97,144,172.002,144,172.002v30.439H0z"/>
	<path fill="#5692A1" d="M0,202.687l0-30.439c0,0,115.475-48.5,99.348-12.236C83.367,195.946,144,172.248,144,172.248v30.439H0z"/>
	<path fill="#5792A1" d="M0,202.934l0-30.439c0,0,114.879-48.152,99.026-12.184C83.331,195.923,144,172.495,144,172.495v30.439H0z"
		/>
	<path fill="#5892A1" d="M0,203.181l0-30.439c0,0,114.283-47.803,98.705-12.132C83.294,195.899,144,172.742,144,172.742v30.439H0z"
		/>
	<path fill="#5A92A0" d="M0,203.427l0-30.439c0,0,113.687-47.454,98.384-12.081C83.257,195.876,144,172.988,144,172.988v30.439H0z"
		/>
	<path fill="#5B92A0" d="M0,203.674l0-30.439c0,0,113.09-47.105,98.063-12.029C83.221,195.852,144,173.235,144,173.235v30.439H0z"/>
	<path fill="#5C92A0" d="M0,203.921l0-30.439c0,0,112.494-46.756,97.742-11.977C83.184,195.829,144,173.482,144,173.482v30.439H0z"
		/>
	<path fill="#5E929F" d="M0,204.167l0-30.439c0,0,111.897-46.407,97.421-11.925C83.147,195.805,144,173.728,144,173.728v30.439H0z"
		/>
	<path fill="#5F929F" d="M0,204.414l0-30.439c0,0,111.3-46.058,97.1-11.874c-13.99,33.681,46.9,11.874,46.9,11.874v30.439H0z"/>
	<path fill="#60929F" d="M0,204.661l0-30.439c0,0,110.703-45.709,96.779-11.822C83.073,195.759,144,174.222,144,174.222v30.439H0z"
		/>
	<path fill="#61929E" d="M0,204.907l0-30.439c0,0,110.105-45.36,96.458-11.77C83.035,195.736,144,174.468,144,174.468v30.439H0z"/>
	<path fill="#63929E" d="M0,205.154l0-30.439c0,0,109.508-45.011,96.137-11.718C82.998,195.713,144,174.715,144,174.715v30.439H0z"
		/>
	<path fill="#64929D" d="M0,205.401l0-30.439c0,0,108.91-44.662,95.816-11.667C82.96,195.69,144,174.962,144,174.962v30.439H0z"/>
	<path fill="#65929D" d="M0,205.647l0-30.439c0,0,108.313-44.313,95.495-11.615C82.922,195.667,144,175.208,144,175.208v30.439H0z"
		/>
	<path fill="#66929D" d="M0,205.894l0-30.439c0,0,107.715-43.964,95.174-11.563C82.884,195.644,144,175.455,144,175.455v30.439H0z"
		/>
	<path fill="#67929C" d="M0,206.14l0-30.439c0,0,107.116-43.614,94.853-11.511C82.846,195.621,144,175.702,144,175.702v30.439H0z"/>
	<path fill="#68929C" d="M0,206.387l0-30.439c0,0,106.518-43.265,94.532-11.46C82.807,195.599,144,175.948,144,175.948v30.439H0z"/>
	<path fill="#6A929C" d="M0,206.634l0-30.439c0,0,105.919-42.915,94.21-11.408C82.769,195.576,144,176.195,144,176.195v30.439H0z"/>
	<path fill="#6B929B" d="M0,206.88l0-30.439c0,0,105.32-42.566,93.889-11.356C82.73,195.554,144,176.441,144,176.441v30.439H0z"/>
	<path fill="#6C929B" d="M0,207.127l0-30.439c0,0,104.721-42.216,93.568-11.304C82.691,195.532,144,176.688,144,176.688v30.439H0z"
		/>
	<path fill="#6D929B" d="M0,207.373l0-30.439c0,0,104.122-41.866,93.247-11.253C82.652,195.509,144,176.935,144,176.935v30.439H0z"
		/>
	<path fill="#6E929A" d="M0,207.62l0-30.439c0,0,103.523-41.516,92.926-11.201C82.613,195.487,144,177.181,144,177.181v30.439H0z"/>
	<path fill="#6F929A" d="M0,207.867l0-30.439c0,0,102.923-41.166,92.605-11.149C82.573,195.465,144,177.428,144,177.428v30.439H0z"
		/>
	<path fill="#709299" d="M0,208.113l0-30.439c0,0,102.323-40.816,92.284-11.097C82.533,195.443,144,177.674,144,177.674v30.439H0z"
		/>
	<path fill="#719299" d="M0,208.36l0-30.439c0,0,101.723-40.466,91.963-11.046C82.493,195.422,144,177.921,144,177.921v30.439H0z"/>
	<path fill="#729299" d="M0,208.606l0-30.439c0,0,101.122-40.116,91.642-10.994C82.453,195.4,144,178.167,144,178.167v30.439H0z"/>
	<path fill="#739298" d="M0,208.853l0-30.439c0,0,100.521-39.765,91.321-10.942C82.413,195.379,144,178.414,144,178.414v30.439H0z"
		/>
	<path fill="#749298" d="M0,209.099l0-30.439c0,0,99.92-39.414,91-10.89c-8.628,27.588,53,10.89,53,10.89v30.439H0z"/>
	<path fill="#759198" d="M0,209.345l0-30.439c0,0,99.319-39.063,90.679-10.839C82.331,195.337,144,178.907,144,178.907v30.439H0z"/>
	<path fill="#769197" d="M0,209.592l0-30.439c0,0,98.717-38.712,90.358-10.787C82.29,195.316,144,179.153,144,179.153v30.439H0z"/>
	<path fill="#779197" d="M0,209.838l0-30.439c0,0,98.115-38.361,90.037-10.735C82.249,195.295,144,179.399,144,179.399v30.439H0z"/>
	<path fill="#789197" d="M0,210.085l0-30.439c0,0,97.513-38.01,89.716-10.683C82.207,195.275,144,179.646,144,179.646v30.439H0z"/>
	<path fill="#799196" d="M0,210.331l0-30.439c0,0,96.911-37.658,89.395-10.632C82.165,195.255,144,179.892,144,179.892v30.439H0z"/>
	<path fill="#7A9196" d="M0,210.577l0-30.439c0,0,96.308-37.306,89.073-10.58c-6.95,25.676,54.927,10.58,54.927,10.58v30.439H0z"/>
	<path fill="#7B9196" d="M0,210.823l0-30.439c0,0,95.705-36.954,88.752-10.528C82.081,195.215,144,180.385,144,180.385v30.439H0z"/>
	<path fill="#7C9195" d="M0,211.07l0-30.439c0,0,95.101-36.601,88.431-10.476C82.038,195.196,144,180.631,144,180.631v30.439H0z"/>
	<path fill="#7D9195" d="M0,211.316l0-30.439c0,0,94.497-36.249,88.11-10.425C81.995,195.177,144,180.877,144,180.877v30.439H0z"/>
	<path fill="#7E9194" d="M0,211.562l0-30.439c0,0,93.893-35.896,87.789-10.373C81.952,195.158,144,181.123,144,181.123v30.439H0z"/>
	<path fill="#7F9194" d="M0,211.808l0-30.439c0,0,93.289-35.542,87.468-10.321C81.908,195.14,144,181.369,144,181.369v30.439H0z"/>
	<path fill="#809194" d="M0,212.054l0-30.439c0,0,92.684-35.189,87.147-10.269C81.865,195.122,144,181.615,144,181.615v30.439H0z"/>
	<path fill="#819193" d="M0,212.3l0-30.439c0,0,92.078-34.834,86.826-10.218C81.82,195.104,144,181.861,144,181.861V212.3H0z"/>
	<path fill="#829193" d="M0,212.546l0-30.439c0,0,91.473-34.48,86.505-10.166C81.776,195.086,144,182.107,144,182.107v30.439H0z"/>
	<path fill="#839193" d="M0,212.791l0-30.439c0,0,90.867-34.125,86.184-10.114C81.731,195.07,144,182.352,144,182.352v30.439H0z"/>
	<path fill="#849192" d="M0,213.037l0-30.439c0,0,90.26-33.77,85.863-10.062C81.686,195.053,144,182.598,144,182.598v30.439H0z"/>
	<path fill="#859192" d="M0,213.283l0-30.439c0,0,89.654-33.414,85.542-10.011C81.641,195.037,144,182.844,144,182.844v30.439H0z"/>
	<path fill="#869192" d="M0,213.528l0-30.439c0,0,89.046-33.057,85.221-9.959C81.595,195.022,144,183.089,144,183.089v30.439H0z"/>
	<path fill="#879191" d="M0,213.773l0-30.439c0,0,88.439-32.7,84.9-9.907c-3.351,21.579,59.1,9.907,59.1,9.907v30.439H0z"/>
	<path fill="#889191" d="M0,214.019l0-30.439c0,0,87.831-32.343,84.579-9.855C81.503,194.992,144,183.58,144,183.58v30.439H0z"/>
	<path fill="#899191" d="M0,214.264l0-30.439c0,0,87.223-31.985,84.257-9.804C81.456,194.979,144,183.825,144,183.825v30.439H0z"/>
	<path fill="#8A9190" d="M0,214.509l0-30.439c0,0,86.614-31.626,83.936-9.752C81.409,194.965,144,184.07,144,184.07v30.439H0z"/>
	<path fill="#8A9190" d="M0,214.754l0-30.439c0,0,86.005-31.266,83.615-9.7c-2.253,20.338,60.385,9.7,60.385,9.7v30.439H0z"/>
	<path fill="#8B918F" d="M0,214.999l0-30.439c0,0,85.395-30.906,83.294-9.648C81.315,194.941,144,184.56,144,184.56v30.439H0z"/>
	<path fill="#8C918F" d="M0,215.243l0-30.439c0,0,84.786-30.544,82.973-9.597C81.267,194.93,144,184.805,144,184.805v30.439H0z"/>
	<path fill="#8D918F" d="M0,215.488l0-30.439c0,0,84.176-30.182,82.652-9.545C81.219,194.92,144,185.049,144,185.049v30.439H0z"/>
	<path fill="#8E918E" d="M0,215.732l0-30.439c0,0,83.565-29.819,82.331-9.493c-1.161,19.11,61.669,9.493,61.669,9.493v30.439H0z"/>
	<path fill="#8F918E" d="M0,215.976l0-30.439c0,0,82.955-29.455,82.01-9.441c-0.888,18.806,61.99,9.441,61.99,9.441v30.439H0z"/>
	<path fill="#90918E" d="M0,216.22l0-30.439c0,0,82.344-29.09,81.689-9.39c-0.615,18.503,62.311,9.39,62.311,9.39v30.439H0z"/>
	<path fill="#91908D" d="M0,216.464l0-30.439c0,0,81.733-28.724,81.368-9.338C81.025,194.888,144,186.025,144,186.025v30.439H0z"/>
	<path fill="#92908D" d="M0,216.708l0-30.439c0,0,81.122-28.357,81.047-9.286c-0.071,17.9,62.953,9.286,62.953,9.286v30.439H0z"/>
	<path fill="#93908D" d="M0,216.951l0-30.439c0,0,80.511-27.988,80.726-9.234c0.201,17.601,63.274,9.234,63.274,9.234v30.439H0z"/>
	<path fill="#94908C" d="M0,217.194l0-30.439c0,0,79.9-27.618,80.405-9.183c0.474,17.303,63.595,9.183,63.595,9.183v30.439H0z"/>
	<path fill="#94908C" d="M0,217.437l0-30.439c0,0,79.289-27.247,80.084-9.131C80.83,194.874,144,186.998,144,186.998v30.439H0z"/>
	<path fill="#95908C" d="M0,217.68l0-30.439c0,0,78.678-26.874,79.763-9.079c1.018,16.712,64.237,9.079,64.237,9.079v30.439H0z"/>
	<path fill="#96908B" d="M0,217.922l0-30.439c0,0,78.067-26.5,79.441-9.027c1.291,16.419,64.558,9.027,64.558,9.027v30.439H0z"/>
	<path fill="#97908B" d="M0,218.164l0-30.439c0,0,77.457-26.124,79.12-8.976c1.564,16.127,64.88,8.976,64.88,8.976v30.439H0z"/>
	<path fill="#98908A" d="M0,218.406l0-30.439c0,0,76.847-25.747,78.799-8.924C80.637,194.88,144,187.967,144,187.967v30.439H0z"/>
	<path fill="#99908A" d="M0,218.647l0-30.439c0,0,76.238-25.368,78.478-8.872C80.59,194.886,144,188.208,144,188.208v30.439H0z"/>
	<path fill="#9A908A" d="M0,218.888l0-30.439c0,0,75.63-24.987,78.157-8.82c2.386,15.263,65.843,8.82,65.843,8.82v30.439H0z"/>
	<path fill="#9B9089" d="M0,219.129l0-30.439c0,0,75.023-24.605,77.836-8.769C80.497,194.901,144,188.69,144,188.69v30.439H0z"/>
	<path fill="#9B9089" d="M0,219.37l0-30.439c0,0,74.416-24.221,77.515-8.717c2.937,14.697,66.485,8.717,66.485,8.717v30.439H0z"/>
	<path fill="#9C9089" d="M0,219.61l0-30.439c0,0,73.811-23.835,77.194-8.665c3.215,14.417,66.806,8.665,66.806,8.665v30.439H0z"/>
	<path fill="#9D9088" d="M0,219.85l0-30.439c0,0,73.208-23.447,76.873-8.613c3.493,14.139,67.127,8.613,67.127,8.613v30.439H0z"/>
	<path fill="#9E9088" d="M0,220.09l0-30.439c0,0,72.606-23.058,76.552-8.562c3.773,13.863,67.448,8.562,67.448,8.562v30.439H0z"/>
	<path fill="#9F9088" d="M0,220.329l0-30.439c0,0,72.007-22.667,76.231-8.51c4.055,13.589,67.769,8.51,67.769,8.51v30.439H0z"/>
	<path fill="#A09087" d="M0,220.569l0-30.439c0,0,71.409-22.274,75.91-8.458c4.338,13.317,68.09,8.458,68.09,8.458v30.439H0z"/>
	<path fill="#A19087" d="M0,220.808l0-30.439c0,0,70.814-21.879,75.589-8.406C80.213,195.01,144,190.369,144,190.369v30.439H0z"/>
	<path fill="#A19087" d="M0,221.047l0-30.439c0,0,70.221-21.484,75.268-8.355c4.912,12.778,68.732,8.355,68.732,8.355v30.439H0z"/>
	<path fill="#A29086" d="M0,221.285l0-30.439c0,0,69.632-21.087,74.947-8.303c5.202,12.512,69.053,8.303,69.053,8.303v30.439H0z"/>
	<path fill="#A39086" d="M0,221.524l0-30.439c0,0,69.045-20.689,74.625-8.251C80.12,195.081,144,191.085,144,191.085v30.439H0z"/>
	<path fill="#A49085" d="M0,221.763l0-30.439c0,0,68.462-20.29,74.304-8.199c5.79,11.982,69.696,8.199,69.696,8.199v30.439H0z"/>
	<path fill="#A58F85" d="M0,222.001l0-30.439c0,0,67.882-19.89,73.983-8.148c6.089,11.719,70.017,8.148,70.017,8.148v30.439H0z"/>
	<path fill="#A68F85" d="M0,222.24l0-30.439c0,0,67.306-19.49,73.662-8.096c6.392,11.457,70.338,8.096,70.338,8.096v30.439H0z"/>
	<path fill="#A78F84" d="M0,222.479l0-30.439c0,0,66.734-19.09,73.341-8.044C80.038,195.192,144,192.04,144,192.04v30.439H0z"/>
	<path fill="#A78F84" d="M0,222.718l0-30.439c0,0,66.165-18.69,73.02-7.992c7.006,10.934,70.98,7.992,70.98,7.992v30.439H0z"/>
	<path fill="#A88F84" d="M0,222.958l0-30.439c0,0,65.6-18.291,72.699-7.941C80.018,195.25,144,192.519,144,192.519v30.439H0z"/>
	<path fill="#A98F83" d="M0,223.197l0-30.439c0,0,65.04-17.893,72.378-7.889c7.636,10.41,71.622,7.889,71.622,7.889v30.439H0z"/>
	<path fill="#AA8F83" d="M0,223.438l0-30.439c0,0,64.483-17.496,72.057-7.837c7.956,10.146,71.943,7.837,71.943,7.837v30.439H0z"/>
	<path fill="#AB8F83" d="M0,223.679l0-30.439c0,0,63.93-17.1,71.736-7.785c8.28,9.881,72.264,7.785,72.264,7.785v30.439H0z"/>
	<path fill="#AC8F82" d="M0,223.92l0-30.439c0,0,63.381-16.707,71.415-7.734c8.608,9.614,72.585,7.734,72.585,7.734v30.439H0z"/>
	<path fill="#AD8F82" d="M0,224.163l0-30.439c0,0,62.835-16.316,71.094-7.682c8.939,9.345,72.906,7.682,72.906,7.682v30.439H0z"/>
	<path fill="#AD8F81" d="M0,224.406l0-30.439c0,0,62.292-15.927,70.773-7.63c9.274,9.073,73.227,7.63,73.227,7.63v30.439H0z"/>
	<path fill="#AE8F81" d="M0,224.65l0-30.439c0,0,61.752-15.542,70.452-7.578c9.611,8.798,73.548,7.578,73.548,7.578v30.439H0z"/>
	<path fill="#AF8F81" d="M0,224.895l0-30.439c0,0,61.215-15.159,70.131-7.527c9.952,8.519,73.869,7.527,73.869,7.527v30.439H0z"/>
	<path fill="#B08F80" d="M0,225.141l0-30.439c0,0,60.679-14.78,69.809-7.475c10.295,8.237,74.19,7.475,74.19,7.475v30.439H0z"/>
	<path fill="#B18F80" d="M0,225.388l0-30.439c0,0,60.146-14.404,69.488-7.423c10.64,7.951,74.512,7.423,74.512,7.423v30.439H0z"/>
	<path fill="#B28F80" d="M0,225.636l0-30.439c0,0,59.614-14.032,69.167-7.371c10.987,7.66,74.833,7.371,74.833,7.371v30.439H0z"/>
	<path fill="#B28F7F" d="M0,225.886l0-30.439c0,0,59.083-13.663,68.846-7.32c11.335,7.365,75.154,7.32,75.154,7.32v30.439H0z"/>
	<path fill="#B38F7F" d="M0,226.136l0-30.439c0,0,58.552-13.298,68.525-7.268C80.21,195.495,144,195.698,144,195.698v30.439H0z"/>
	<path fill="#B48F7F" d="M0,226.388l0-30.439c0,0,58.021-12.937,68.204-7.216c12.035,6.761,75.796,7.216,75.796,7.216v30.439H0z"/>
	<path fill="#B58E7E" d="M0,226.641l0-30.439c0,0,57.491-12.578,67.883-7.164C80.268,195.49,144,196.202,144,196.202v30.439H0z"/>
	<path fill="#B68E7E" d="M0,226.895l0-30.439c0,0,56.96-12.224,67.562-7.113c12.735,6.139,76.438,7.113,76.438,7.113v30.439H0z"/>
	<path fill="#B78E7D" d="M0,227.151l0-30.439c0,0,56.428-11.872,67.241-7.061c13.085,5.822,76.759,7.061,76.759,7.061v30.439H0z"/>
	<path fill="#B78E7D" d="M0,227.407l0-30.439c0,0,55.895-11.524,66.92-7.009c13.433,5.501,77.08,7.009,77.08,7.009v30.439H0z"/>
	<path fill="#B88E7D" d="M0,227.665l0-30.439c0,0,55.36-11.178,66.599-6.957c13.781,5.175,77.401,6.957,77.401,6.957v30.439H0z"/>
	<path fill="#B98E7C" d="M0,227.924l0-30.439c0,0,54.824-10.835,66.278-6.906c14.126,4.846,77.722,6.906,77.722,6.906v30.439H0z"/>
	<path fill="#BA8E7C" d="M0,228.185l0-30.439c0,0,54.286-10.494,65.957-6.854c14.471,4.514,78.043,6.854,78.043,6.854v30.439H0z"/>
	<path fill="#BB8E7C" d="M0,228.447l0-30.439c0,0,53.746-10.156,65.636-6.802c14.813,4.178,78.364,6.802,78.364,6.802v30.439H0z"/>
	<path fill="#BB8E7B" d="M0,228.711l0-30.439c0,0,53.204-9.819,65.315-6.75c15.153,3.84,78.685,6.75,78.685,6.75v30.439H0z"/>
	<path fill="#BC8E7B" d="M0,228.976l0-30.439c0,0,52.661-9.484,64.993-6.699c15.492,3.499,79.006,6.699,79.006,6.699v30.439H0z"/>
	<path fill="#BD8E7B" d="M0,229.243l0-30.439c0,0,52.114-9.151,64.672-6.647C80.5,195.314,144,198.804,144,198.804v30.439H0z"/>
	<path fill="#BE8E7A" d="M0,229.512l0-30.439c0,0,51.566-8.819,64.351-6.595c16.161,2.811,79.649,6.595,79.649,6.595v30.439H0z"/>
	<path fill="#BF8E7A" d="M0,229.783l0-30.439c0,0,51.016-8.488,64.03-6.543c16.493,2.464,79.97,6.543,79.97,6.543v30.439H0z"/>
	<path fill="#BF8E7A" d="M0,230.057l0-30.439c0,0,50.463-8.158,63.709-6.492c16.822,2.116,80.291,6.492,80.291,6.492v30.439H0z"/>
	<path fill="#C08E79" d="M0,230.334l0-30.439c0,0,49.909-7.829,63.388-6.44c17.149,1.767,80.612,6.44,80.612,6.44v30.439H0z"/>
	<path fill="#C18E79" d="M0,230.613l0-30.439c0,0,49.352-7.5,63.067-6.388C80.54,195.204,144,200.175,144,200.175v30.439H0z"/>
	<path fill="#C28E78" d="M0,230.965l0-30.439c0,0,48.821-5.118,62.746-6.336c17.76-1.554,81.254,6.336,81.254,6.336v30.439H0z"/>
	<path fill="#C38E78" d="M0,231.305l0-30.439c0,0,48.295-4.845,62.425-6.285c18.037-1.837,81.575,6.285,81.575,6.285v30.439H0z"/>
	<path fill="#C48D78" d="M0,231.648l0-30.439c0,0,47.763-4.573,62.104-6.233c18.315-2.12,81.896,6.233,81.896,6.233v30.439H0z"/>
	<path fill="#C48D77" d="M0,231.994l0-30.439c0,0,47.227-4.3,61.783-6.181c18.596-2.403,82.217,6.181,82.217,6.181v30.439H0z"/>
	<path fill="#C58D77" d="M0,232.343l0-30.439c0,0,46.686-4.027,61.462-6.129C80.34,193.089,144,201.904,144,201.904v30.439H0z"/>
	<path fill="#C68D77" d="M0,232.694l0-30.439c0,0,46.141-3.754,61.141-6.078c19.161-2.969,82.859,6.078,82.859,6.078v30.439H0z"/>
	<path fill="#C78D76" d="M0,233.046l0-30.439c0,0,45.593-3.479,60.82-6.026c19.446-3.252,83.18,6.026,83.18,6.026v30.439H0z"/>
	<path fill="#C88D76" d="M0,233.095l0-30.439c0,0,44.832-4.88,60.499-5.974c19.998-1.396,83.501,5.974,83.501,5.974v30.439H0z"/>
	<path fill="#C88D76" d="M0,233.442l0-30.439c0,0,44.26-4.553,60.178-5.922c20.306-1.747,83.822,5.922,83.822,5.922v30.439H0z"/>
	<path fill="#C98D75" d="M0,233.795l0-30.439c0,0,43.687-4.224,59.856-5.871c20.612-2.098,84.143,5.871,84.143,5.871v30.439H0z"/>
	<path fill="#CA8D75" d="M0,234.152l0-30.439c0,0,43.112-3.896,59.535-5.819c20.917-2.449,84.465,5.819,84.465,5.819v30.439H0z"/>
	<path fill="#CB8D74" d="M0,234.513l0-30.439c0,0,42.537-3.567,59.214-5.767c21.221-2.799,84.786,5.767,84.786,5.767v30.439H0z"/>
	<path fill="#CB8D74" d="M0,234.876l0-30.439c0,0,41.96-3.238,58.893-5.715c21.524-3.148,85.107,5.715,85.107,5.715v30.439H0z"/>
	<path fill="#CC8D74" d="M0,235.242l0-30.439c0,0,41.382-2.909,58.572-5.664c21.826-3.497,85.428,5.664,85.428,5.664v30.439H0z"/>
	<path fill="#CD8D73" d="M0,235.61l0-30.439c0,0,40.803-2.579,58.251-5.612c22.126-3.846,85.749,5.612,85.749,5.612v30.439H0z"/>
	<path fill="#CE8C73" d="M0,235.98l0-30.439c0,0,40.224-2.249,57.93-5.56c22.426-4.193,86.07,5.56,86.07,5.56v30.439H0z"/>
	<path fill="#CF8C73" d="M0,236.352l0-30.439c0,0,39.643-1.918,57.609-5.508c22.725-4.541,86.391,5.508,86.391,5.508v30.439H0z"/>
	<path fill="#CF8C72" d="M0,236.725l0-30.439c0,0,39.062-1.588,57.288-5.457c23.023-4.887,86.712,5.457,86.712,5.457v30.439H0z"/>
	<path fill="#D08C72" d="M0,237.099l0-30.439c0,0,38.48-1.256,56.967-5.405C80.287,196.022,144,206.66,144,206.66v30.439H0z"/>
	<path fill="#D18C72" d="M0,237.474l0-30.439c0,0,37.898-0.924,56.646-5.353c23.617-5.579,87.354,5.353,87.354,5.353v30.439H0z"/>
	<path fill="#D28C71" d="M0,237.85l0-30.439c0,0,37.315-0.592,56.325-5.301c23.912-5.924,87.675,5.301,87.675,5.301v30.439H0z"/>
	<path fill="#D28C71" d="M0,238.227l0-30.439c0,0,36.731-0.259,56.004-5.25c24.208-6.268,87.996,5.25,87.996,5.25v30.439H0z"/>
	<path fill="#D38C70" d="M0,238.605l0-30.439c0,0,36.147,0.074,55.683-5.198c24.503-6.612,88.317,5.198,88.317,5.198v30.439H0z"/>
	<path fill="#D48C70" d="M0,238.984l0-30.439c0,0,35.562,0.407,55.362-5.146c24.797-6.955,88.638,5.146,88.638,5.146v30.439H0z"/>
	<path fill="#D58C70" d="M0,239.363l0-30.439c0,0,34.977,0.741,55.04-5.094c25.091-7.297,88.959,5.094,88.959,5.094v30.439H0z"/>
	<path fill="#D68C6F" d="M0,239.742l0-30.439c0,0,34.391,1.075,54.719-5.043c25.384-7.639,89.281,5.043,89.281,5.043v30.439H0z"/>
	<path fill="#D68C6F" d="M0,240.122l0-30.439c0,0,33.805,1.41,54.398-4.991c25.677-7.98,89.602,4.991,89.602,4.991v30.439H0z"/>
	<path fill="#D78B6F" d="M0,240.503l0-30.439c0,0,33.218,1.745,54.077-4.939c25.97-8.321,89.923,4.939,89.923,4.939v30.439H0z"/>
	<path fill="#D88B6E" d="M0,240.883l0-30.439c0,0,32.632,2.08,53.756-4.887c26.262-8.662,90.244,4.887,90.244,4.887v30.439H0z"/>
	<path fill="#D98B6E" d="M0,241.264l0-30.439c0,0,32.044,2.416,53.435-4.836c26.554-9.002,90.565,4.836,90.565,4.836v30.439H0z"/>
	<path fill="#D98B6E" d="M0,241.646l0-30.439c0,0,31.457,2.752,53.114-4.784c26.845-9.341,90.886,4.784,90.886,4.784v30.439H0z"/>
	<path fill="#DA8B6D" d="M0,242.028l0-30.439c0,0,30.869,3.088,52.793-4.732c27.137-9.68,91.207,4.732,91.207,4.732v30.439H0z"/>
	<path fill="#DB8B6D" d="M0,242.41l0-30.439c0,0,30.281,3.425,52.472-4.68C79.9,197.272,144,211.971,144,211.971v30.439H0z"/>
	<path fill="#DC8B6C" d="M0,242.792l0-30.439c0,0,29.693,3.762,52.151-4.629C79.87,197.368,144,212.353,144,212.353v30.439H0z"/>
	<path fill="#DD8B6C" d="M0,243.174l0-30.439c0,0,29.105,4.099,51.83-4.577c28.009-10.694,92.17,4.577,92.17,4.577v30.439H0z"/>
	<path fill="#DD8B6C" d="M0,243.557l0-30.439c0,0,28.516,4.437,51.509-4.525c28.3-11.031,92.491,4.525,92.491,4.525v30.439H0z"/>
	<path fill="#DE8B6B" d="M0,243.94l0-30.439c0,0,27.927,4.775,51.188-4.473C79.778,197.66,144,213.501,144,213.501v30.439H0z"/>
	<path fill="#DF8B6B" d="M0,244.322l0-30.439c0,0,27.338,5.113,50.867-4.422c28.88-11.704,93.133,4.422,93.133,4.422v30.439H0z"/>
	<path fill="#E08B6B" d="M0,244.706l0-30.439c0,0,26.749,5.452,50.546-4.37c29.17-12.04,93.454,4.37,93.454,4.37v30.439H0z"/>
	<path fill="#E18A6A" d="M0,245.089l0-30.439c0,0,26.16,5.791,50.224-4.318C79.685,197.957,144,214.65,144,214.65v30.439H0z"/>
	<path fill="#E18A6A" d="M0,245.472l0-30.439c0,0,25.57,6.13,49.903-4.266c29.75-12.71,94.097,4.266,94.097,4.266v30.439H0z"/>
	<path fill="#E28A69" d="M0,245.855l0-30.439c0,0,24.981,6.469,49.582-4.215c30.04-13.045,94.418,4.215,94.418,4.215v30.439H0z"/>
	<path fill="#E38A69" d="M0,246.239L0,215.8c0,0,24.391,6.809,49.261-4.163C79.59,198.258,144,215.8,144,215.8v30.439H0z"/>
	<path fill="#E48A69" d="M0,246.623l0-30.439c0,0,23.801,7.148,48.94-4.111c30.619-13.714,95.06,4.111,95.06,4.111v30.439H0z"/>
	<path fill="#E48A68" d="M0,247.006l0-30.439c0,0,23.211,7.489,48.619-4.059C79.527,198.461,144,216.567,144,216.567v30.439H0z"/>
	<path fill="#E58A68" d="M0,247.39l0-30.439c0,0,22.621,7.829,48.298-4.008C79.495,198.563,144,216.951,144,216.951v30.439H0z"/>
	<path fill="#E68A68" d="M0,247.774l0-30.439c0,0,22.031,8.169,47.977-3.956C79.463,198.665,144,217.335,144,217.335v30.439H0z"/>
	<path fill="#E78A67" d="M0,248.158l0-30.439c0,0,21.441,8.51,47.656-3.904C79.432,198.768,144,217.719,144,217.719v30.439H0z"/>
	<path fill="#E78A67" d="M0,248.542l0-30.439c0,0,20.851,8.851,47.335-3.852C79.4,198.871,144,218.103,144,218.103v30.439H0z"/>
	<path fill="#E88967" d="M0,248.926l0-30.439c0,0,20.26,9.192,47.014-3.801C79.368,198.974,144,218.487,144,218.487v30.439H0z"/>
	<path fill="#E98966" d="M0,249.31l0-30.439c0,0,19.67,9.533,46.693-3.749C79.335,199.078,144,218.871,144,218.871v30.439H0z"/>
	<path fill="#EA8966" d="M0,249.694l0-30.439c0,0,19.079,9.875,46.372-3.697C79.303,199.182,144,219.255,144,219.255v30.439H0z"/>
	<path fill="#EA8965" d="M0,250.093l0-30.439c0,0,18.462,10.162,46.051-3.645C79.238,199.235,144,219.654,144,219.654v30.439H0z"/>
	<path fill="#EB8965" d="M0,250.474l0-30.439c0,0,17.877,10.515,45.73-3.594c33.483-17.091,98.27,3.594,98.27,3.594v30.439H0z"/>
	<path fill="#EC8965" d="M0,250.855l0-30.439c0,0,17.291,10.868,45.408-3.542C79.187,199.466,144,220.417,144,220.417v30.439H0z"/>
	<path fill="#ED8964" d="M0,251.237l0-30.439c0,0,16.706,11.221,45.087-3.49c34.074-17.727,98.913,3.49,98.913,3.49v30.439H0z"/>
	<path fill="#EE8964" d="M0,251.618l0-30.439c0,0,16.121,11.574,44.766-3.438C79.136,199.697,144,221.18,144,221.18v30.439H0z"/>
	<path fill="#EE8963" d="M0,252l0-30.439c0,0,15.536,11.927,44.445-3.387C79.11,199.812,144,221.561,144,221.561V252H0z"/>
</g>
</svg>
