<?xml version="1.0" encoding="utf-8"?>
<!-- Generator: Adobe Illustrator 17.0.0, SVG Export Plug-In . SVG Version: 6.00 Build 0)  -->
<!DOCTYPE svg PUBLIC "-//W3C//DTD SVG 1.1 Tiny//EN" "http://www.w3.org/Graphics/SVG/1.1/DTD/svg11-tiny.dtd">
<svg version="1.1" baseProfile="tiny" id="Layer_1" xmlns="http://www.w3.org/2000/svg" xmlns:xlink="http://www.w3.org/1999/xlink"
	 x="0px" y="0px" width="144px" height="252px" viewBox="0 0 144 252" xml:space="preserve">
<g>
	<path fill="#3698AC" d="M143.911,40.18V0L0.089,0v40.18c0,0,83.716-23.061,84.949,0S143.911,40.18,143.911,40.18z"/>
	<path fill="#3797AB" d="M143.911,40.443c0,0-0.879-39.941-0.816-39.687C143.159,1.01,0.089,0.609,0.089,0.609v40.18
		c0,0,84.234-22.862,85.457,0C86.769,63.651,143.911,40.443,143.911,40.443z"/>
	<path fill="#3896AA" d="M143.911,40.771c0,0-1.759-39.702-1.631-39.193c0.128,0.509-142.19-0.294-142.19-0.294v40.18
		c0,0,84.752-22.663,85.964,0C87.266,64.127,143.911,40.771,143.911,40.771z"/>
	<path fill="#3995A9" d="M143.911,41.065c0,0-2.638-39.462-2.447-38.699C141.655,3.128,0.089,1.924,0.089,1.924v40.18
		c0,0,85.27-22.464,86.472,0S143.911,41.065,143.911,41.065z"/>
	<path fill="#3A94A9" d="M143.911,41.358c0,0-3.518-39.223-3.263-38.206C140.903,4.17,0.089,2.563,0.089,2.563v40.18
		c0,0,85.788-22.265,86.979,0C88.26,65.009,143.911,41.358,143.911,41.358z"/>
	<path fill="#3B94A8" d="M143.911,41.651c0,0-4.397-38.984-4.079-37.712S0.089,3.202,0.089,3.202v40.18c0,0,86.307-22.067,87.487,0
		S143.911,41.651,143.911,41.651z"/>
	<path fill="#3C93A7" d="M143.911,41.942c0,0-5.277-38.745-4.894-37.219C139.399,6.25,0.089,3.84,0.089,3.84v40.18
		c0,0,86.825-21.868,87.994,0C89.253,65.889,143.911,41.942,143.911,41.942z"/>
	<path fill="#3D92A6" d="M143.911,42.233c0,0-6.156-38.505-5.71-36.725C138.647,7.289,0.089,4.478,0.089,4.478v40.18
		c0,0,87.343-21.669,88.502,0S143.911,42.233,143.911,42.233z"/>
	<path fill="#3E91A5" d="M143.911,42.524c0,0-7.036-38.266-6.526-36.231C137.895,8.327,0.089,5.114,0.089,5.114v40.18
		c0,0,87.861-21.47,89.009,0S143.911,42.524,143.911,42.524z"/>
	<path fill="#3F91A5" d="M143.911,42.813c0,0-7.915-38.027-7.341-35.738C137.143,9.364,0.089,5.75,0.089,5.75v40.18
		c0,0,88.379-21.271,89.517,0C90.744,67.202,143.911,42.813,143.911,42.813z"/>
	<path fill="#4090A4" d="M143.911,43.102c0,0-8.795-37.787-8.157-35.244S0.089,6.385,0.089,6.385l0,40.18
		c0,0,88.897-21.073,90.024,0S143.911,43.102,143.911,43.102z"/>
	<path fill="#418FA3" d="M143.911,43.39c0,0-9.674-37.548-8.973-34.751C135.639,11.437,0.089,7.02,0.089,7.02l0,40.18
		c0,0,89.416-20.874,90.532,0S143.911,43.39,143.911,43.39z"/>
	<path fill="#428FA3" d="M143.911,43.677c0,0-10.554-37.309-9.789-34.257C134.887,12.472,0.089,7.653,0.089,7.653l0,40.18
		c0,0,89.934-20.675,91.04,0S143.911,43.677,143.911,43.677z"/>
	<path fill="#438EA2" d="M143.911,43.963c0,0-11.433-37.069-10.604-33.763C134.135,13.506,0.089,8.286,0.089,8.286l0,40.18
		c0,0,90.452-20.476,91.547,0C92.732,68.942,143.911,43.963,143.911,43.963z"/>
	<path fill="#438DA1" d="M143.911,44.249c0,0-12.313-36.83-11.42-33.27c0.893,3.56-132.401-2.061-132.401-2.061l0,40.18
		c0,0,90.97-20.277,92.055,0S143.911,44.249,143.911,44.249z"/>
	<path fill="#448DA0" d="M143.911,44.533c0,0-13.192-36.591-12.236-32.776S0.089,9.549,0.089,9.549l0,40.18
		c0,0,91.488-20.079,92.562,0S143.911,44.533,143.911,44.533z"/>
	<path fill="#458CA0" d="M143.911,44.817c0,0-14.072-36.352-13.052-32.282c1.02,4.069-130.77-2.356-130.77-2.356l0,40.18
		c0,0,92.006-19.88,93.07,0C94.222,70.239,143.911,44.817,143.911,44.817z"/>
	<path fill="#468B9F" d="M143.911,45.101c0,0-14.951-36.112-13.867-31.789c1.084,4.323-129.954-2.503-129.954-2.503l0,40.18
		c0,0,92.524-19.681,93.577,0S143.911,45.101,143.911,45.101z"/>
	<path fill="#478B9E" d="M143.911,45.383c0,0-15.831-35.873-14.683-31.295c1.148,4.578-129.138-2.65-129.138-2.65l0,40.18
		c0,0,93.043-19.482,94.085,0S143.911,45.383,143.911,45.383z"/>
	<path fill="#478A9E" d="M143.911,45.665c0,0-16.71-35.634-15.499-30.802c1.212,4.832-128.323-2.797-128.323-2.797l0,40.18
		c0,0,93.561-19.283,94.592,0S143.911,45.665,143.911,45.665z"/>
	<path fill="#48899D" d="M143.911,45.946c0,0-17.59-35.394-16.314-30.308c1.275,5.086-127.507-2.945-127.507-2.945l0,40.18
		c0,0,94.079-19.085,95.1,0C96.21,71.958,143.911,45.946,143.911,45.946z"/>
	<path fill="#49899C" d="M143.911,46.226c0,0-18.469-35.155-17.13-29.814S0.089,13.319,0.089,13.319l0,40.18
		c0,0,94.597-18.886,95.607,0C96.707,72.386,143.911,46.226,143.911,46.226z"/>
	<path fill="#49889C" d="M143.911,46.505c0,0-19.349-34.916-17.946-29.321S0.089,13.945,0.089,13.945l0,40.18
		c0,0,95.115-18.687,96.115,0S143.911,46.505,143.911,46.505z"/>
	<path fill="#4A879B" d="M143.911,46.784c0,0-20.228-34.676-18.762-28.827c1.467,5.849-125.06-3.386-125.06-3.386l0,40.18
		c0,0,95.633-18.488,96.622,0C97.701,73.239,143.911,46.784,143.911,46.784z"/>
	<path fill="#4B879A" d="M143.911,47.061c0,0-21.108-34.437-19.577-28.333S0.089,15.194,0.089,15.194l0,40.18
		c0,0,96.151-18.289,97.13,0C98.197,73.664,143.911,47.061,143.911,47.061z"/>
	<path fill="#4B869A" d="M143.911,47.338c0,0-21.987-34.198-20.393-27.84S0.089,15.818,0.089,15.818l0,40.18
		c0,0,96.67-18.091,97.637,0S143.911,47.338,143.911,47.338z"/>
	<path fill="#4C8599" d="M143.911,47.615c0,0-22.867-33.959-21.209-27.346S0.089,16.44,0.089,16.44l0,40.18
		c0,0,97.188-17.892,98.145,0S143.911,47.615,143.911,47.615z"/>
	<path fill="#4C8598" d="M143.911,47.89c0,0-23.746-33.719-22.024-26.853S0.089,17.062,0.089,17.062l0,40.18
		c0,0,97.706-17.693,98.652,0C99.688,74.935,143.911,47.89,143.911,47.89z"/>
	<path fill="#4D8498" d="M143.911,48.165c0,0-24.626-33.48-22.84-26.359c1.785,7.121-120.981-4.123-120.981-4.123l0,40.18
		c0,0,98.224-17.494,99.16,0C100.185,75.358,143.911,48.165,143.911,48.165z"/>
	<path fill="#4E8397" d="M143.911,48.439c0,0-25.505-33.241-23.656-25.865S0.089,18.303,0.089,18.303l0,40.18
		c0,0,98.742-17.295,99.667,0S143.911,48.439,143.911,48.439z"/>
	<path fill="#4E8396" d="M143.911,48.712c0,0-26.384-33.001-24.472-25.372c1.913,7.63-119.35-4.417-119.35-4.417l0,40.18
		c0,0,99.26-17.097,100.175,0C101.179,76.2,143.911,48.712,143.911,48.712z"/>
	<path fill="#4F8296" d="M143.911,48.984c0,0-27.264-32.762-25.287-24.878S0.089,19.541,0.089,19.541l0,40.18
		c0,0,99.779-16.898,100.682,0C101.676,76.62,143.911,48.984,143.911,48.984z"/>
	<path fill="#4F8295" d="M143.911,49.255c0,0-28.143-32.523-26.103-24.385S0.089,20.159,0.089,20.159l0,40.18
		c0,0,100.297-16.699,101.19,0S143.911,49.255,143.911,49.255z"/>
	<path fill="#508195" d="M143.911,49.526c0,0-29.023-32.283-26.919-23.891c2.104,8.393-116.903-4.859-116.903-4.859l0,40.18
		c0,0,100.815-16.5,101.697,0S143.911,49.526,143.911,49.526z"/>
	<path fill="#508094" d="M143.911,49.796c0,0-29.902-32.044-27.734-23.397S0.089,21.393,0.089,21.393l0,40.18
		c0,0,101.333-16.301,102.205,0S143.911,49.796,143.911,49.796z"/>
	<path fill="#518093" d="M143.911,50.065c0,0-30.782-31.805-28.55-22.904c2.232,8.901-115.271-5.153-115.271-5.153l0,40.18
		c0,0,101.851-16.103,102.712,0C103.663,78.291,143.911,50.065,143.911,50.065z"/>
	<path fill="#517F93" d="M143.911,50.334c0,0-31.661-31.566-29.366-22.41s-114.456-5.3-114.456-5.3l0,40.18
		c0,0,102.369-15.904,103.22,0S143.911,50.334,143.911,50.334z"/>
	<path fill="#527E92" d="M143.911,50.601c0,0-32.541-31.326-30.182-21.916S0.089,23.237,0.089,23.237l0,40.18
		c0,0,102.887-15.705,103.727,0S143.911,50.601,143.911,50.601z"/>
	<path fill="#527E91" d="M143.911,50.868c0,0-33.42-31.087-30.997-21.423C115.336,39.11,0.089,23.85,0.089,23.85l0,40.18
		c0,0,103.406-15.506,104.235,0C105.154,79.537,143.911,50.868,143.911,50.868z"/>
	<path fill="#537D91" d="M143.911,51.134c0,0-34.3-30.848-31.813-20.929S0.089,24.463,0.089,24.463l0,40.18
		c0,0,103.924-15.307,104.743,0S143.911,51.134,143.911,51.134z"/>
	<path fill="#537D90" d="M143.911,51.4c0,0-35.179-30.608-32.629-20.436c2.551,10.173-111.193-5.889-111.193-5.889l0,40.18
		c0,0,104.442-15.109,105.25,0S143.911,51.4,143.911,51.4z"/>
	<path fill="#547C90" d="M143.911,51.664c0,0-36.059-30.369-33.445-19.942S0.089,25.685,0.089,25.685l0,40.18
		c0,0,104.96-14.91,105.758,0S143.911,51.664,143.911,51.664z"/>
	<path fill="#547B8F" d="M143.911,51.928c0,0-36.938-30.13-34.26-19.448S0.089,26.296,0.089,26.296l0,40.18
		c0,0,105.478-14.711,106.265,0C107.141,81.187,143.911,51.928,143.911,51.928z"/>
	<path fill="#557B8E" d="M143.911,52.191c0,0-37.818-29.891-35.076-18.955c2.742,10.936-108.745-6.331-108.745-6.331l0,40.18
		c0,0,105.996-14.512,106.773,0S143.911,52.191,143.911,52.191z"/>
	<path fill="#557A8E" d="M143.911,52.453c0,0-38.697-29.651-35.892-18.461S0.089,27.513,0.089,27.513l0,40.18
		c0,0,106.515-14.313,107.28,0S143.911,52.453,143.911,52.453z"/>
	<path fill="#56798D" d="M143.911,52.714c0,0-39.577-29.412-36.707-17.968c2.869,11.444-107.114-6.626-107.114-6.626l0,40.18
		c0,0,107.033-14.115,107.788,0C108.632,82.416,143.911,52.714,143.911,52.714z"/>
	<path fill="#56798D" d="M143.911,52.975c0,0-40.456-29.173-37.523-17.474S0.089,28.728,0.089,28.728l0,40.18
		c0,0,107.551-13.916,108.295,0S143.911,52.975,143.911,52.975z"/>
	<path fill="#56788C" d="M143.911,53.235c0,0-41.336-28.933-38.339-16.98c2.997,11.953-105.483-6.92-105.483-6.92l0,40.18
		c0,0,108.069-13.717,108.803,0S143.911,53.235,143.911,53.235z"/>
	<path fill="#57788B" d="M143.911,53.494c0,0-42.215-28.694-39.155-16.487S0.089,29.94,0.089,29.94l0,40.18
		c0,0,108.587-13.518,109.31,0S143.911,53.494,143.911,53.494z"/>
	<path fill="#57778B" d="M143.911,53.752c0,0-43.095-28.455-39.97-15.993S0.089,30.545,0.089,30.545l0,40.18
		c0,0,109.105-13.319,109.818,0C110.62,84.044,143.911,53.752,143.911,53.752z"/>
	<path fill="#57768A" d="M143.911,54.01c0,0-43.974-28.215-40.786-15.499c3.188,12.716-103.035-7.362-103.035-7.362l0,40.18
		c0,0,109.623-13.121,110.325,0C111.116,84.449,143.911,54.01,143.911,54.01z"/>
	<path fill="#587689" d="M143.911,54.266c0,0-44.854-27.976-41.602-15.006S0.089,31.752,0.089,31.752l0,40.18
		c0,0,110.142-12.922,110.833,0S143.911,54.266,143.911,54.266z"/>
	<path fill="#587589" d="M143.911,54.522c0,0-45.733-27.737-42.417-14.512c3.316,13.225-101.404-7.656-101.404-7.656l0,40.18
		c0,0,110.66-12.723,111.34,0C112.11,85.257,143.911,54.522,143.911,54.522z"/>
	<path fill="#587488" d="M143.911,54.778c0,0-46.613-27.498-43.233-14.019S0.089,32.955,0.089,32.955l0,40.18
		c0,0,111.178-12.524,111.848,0S143.911,54.778,143.911,54.778z"/>
	<path fill="#597488" d="M143.911,55.032c0,0-47.492-27.258-44.049-13.525S0.089,33.556,0.089,33.556l0,40.18
		c0,0,111.696-12.325,112.355,0S143.911,55.032,143.911,55.032z"/>
	<path fill="#597387" d="M143.911,55.286c0,0-48.372-27.019-44.865-13.031c3.507,13.988-98.957-8.098-98.957-8.098l0,40.18
		c0,0,112.214-12.127,112.863,0S143.911,55.286,143.911,55.286z"/>
	<path fill="#597386" d="M143.911,55.538c0,0-49.251-26.78-45.68-12.538S0.089,34.756,0.089,34.756l0,40.18
		c0,0,112.732-11.928,113.37,0C114.098,86.864,143.911,55.538,143.911,55.538z"/>
	<path fill="#5A7286" d="M143.911,55.79c0,0-50.131-26.54-46.496-12.044c3.635,14.496-97.325-8.392-97.325-8.392l0,40.18
		c0,0,113.25-11.729,113.878,0C114.595,87.263,143.911,55.79,143.911,55.79z"/>
	<path fill="#5A7185" d="M143.911,56.042c0,0-51.01-26.301-47.312-11.551s-96.51-8.54-96.51-8.54l0,40.18
		c0,0,113.769-11.53,114.385,0S143.911,56.042,143.911,56.042z"/>
	<path fill="#5A7185" d="M143.911,56.292c0,0-51.89-26.062-48.127-11.057S0.089,36.549,0.089,36.549l0,40.18
		c0,0,114.287-11.332,114.893,0C115.588,88.06,143.911,56.292,143.911,56.292z"/>
	<path fill="#5B7084" d="M143.911,56.542c0,0-52.769-25.822-48.943-10.563c3.826,15.259-94.878-8.834-94.878-8.834l0,40.18
		c0,0,114.805-11.133,115.4,0C116.085,88.458,143.911,56.542,143.911,56.542z"/>
	<path fill="#5B7084" d="M143.911,56.791c0,0-53.648-25.583-49.759-10.07S0.089,37.74,0.089,37.74l0,40.18
		c0,0,115.323-10.934,115.908,0S143.911,56.791,143.911,56.791z"/>
	<path fill="#5B6F83" d="M143.911,57.039c0,0-54.528-25.344-50.575-9.576c3.953,15.768-93.247-9.129-93.247-9.129l0,40.18
		c0,0,115.841-10.735,116.415,0S143.911,57.039,143.911,57.039z"/>
	<path fill="#5C6E82" d="M143.911,57.287c0,0-55.407-25.105-51.39-9.082S0.089,38.928,0.089,38.928l0,40.18
		c0,0,116.359-10.536,116.923,0S143.911,57.287,143.911,57.287z"/>
	<path fill="#5C6E82" d="M143.911,57.533c0,0-56.287-24.865-52.206-8.589c4.081,16.276-91.615-9.423-91.615-9.423l0,40.18
		c0,0,116.878-10.338,117.43,0C118.073,90.039,143.911,57.533,143.911,57.533z"/>
	<path fill="#5C6D81" d="M143.911,57.779c0,0-57.166-24.626-53.022-8.095s-90.8-9.57-90.8-9.57l0,40.18
		c0,0,117.396-10.139,117.938,0S143.911,57.779,143.911,57.779z"/>
	<path fill="#5C6D81" d="M143.911,58.024c0,0-58.046-24.387-53.838-7.602S0.089,40.705,0.089,40.705v40.18
		c0,0,117.914-9.94,118.446,0C119.067,90.825,143.911,58.024,143.911,58.024z"/>
	<path fill="#5D6C80" d="M143.911,58.269c0,0-58.925-24.147-54.653-7.108C93.53,68.2,0.089,41.296,0.089,41.296v40.18
		c0,0,118.432-9.741,118.953,0C119.563,91.217,143.911,58.269,143.911,58.269z"/>
	<path fill="#5D6B80" d="M143.911,58.512c0,0-59.805-23.908-55.469-6.614S0.089,41.886,0.089,41.886v40.18
		c0,0,118.95-9.542,119.461,0S143.911,58.512,143.911,58.512z"/>
	<path fill="#5D6B7F" d="M143.911,58.755c0,0-60.684-23.669-56.285-6.121c4.4,17.548-87.537-10.159-87.537-10.159v40.18
		c0,0,119.468-9.344,119.968,0S143.911,58.755,143.911,58.755z"/>
	<path fill="#5E6A7E" d="M143.911,58.997c0,0-61.564-23.43-57.1-5.627S0.089,43.063,0.089,43.063v40.18c0,0,119.986-9.145,120.476,0
		S143.911,58.997,143.911,58.997z"/>
	<path fill="#5E6A7E" d="M143.911,59.238c0,0-62.443-23.19-57.916-5.134S0.089,43.651,0.089,43.651v40.18
		c0,0,120.505-8.946,120.983,0C121.551,92.777,143.911,59.238,143.911,59.238z"/>
	<path fill="#5E697D" d="M143.911,59.479c0,0-63.323-22.951-58.732-4.64C89.77,73.15,0.089,44.238,0.089,44.238v40.18
		c0,0,121.023-8.747,121.491,0S143.911,59.479,143.911,59.479z"/>
	<path fill="#5E697D" d="M143.911,59.719c0,0-64.202-22.712-59.548-4.146S0.089,44.824,0.089,44.824v40.18
		c0,0,121.541-8.548,121.998,0S143.911,59.719,143.911,59.719z"/>
	<path fill="#5E687C" d="M143.911,59.958c0,0-65.082-22.472-60.363-3.653c4.718,18.82-83.458-10.895-83.458-10.895v40.18
		c0,0,122.059-8.35,122.506,0C123.042,93.939,143.911,59.958,143.911,59.958z"/>
	<path fill="#5F677C" d="M143.911,60.196c0,0-65.961-22.233-61.179-3.159S0.089,45.994,0.089,45.994v40.18
		c0,0,122.577-8.151,123.013,0S143.911,60.196,143.911,60.196z"/>
	<path fill="#5F677B" d="M143.911,60.433c0,0-66.841-21.994-61.995-2.665S0.089,46.578,0.089,46.578v40.18
		c0,0,123.095-7.952,123.521,0C124.035,94.71,143.911,60.433,143.911,60.433z"/>
	<path fill="#5F667B" d="M143.911,60.67c0,0-67.72-21.754-62.81-2.172C86.01,78.081,0.089,47.161,0.089,47.161v40.18
		c0,0,123.614-7.753,124.028,0S143.911,60.67,143.911,60.67z"/>
	<path fill="#5F667A" d="M143.911,60.906c0,0-68.6-21.515-63.626-1.678S0.089,47.743,0.089,47.743v40.18
		c0,0,124.132-7.554,124.536,0C125.029,95.478,143.911,60.906,143.911,60.906z"/>
	<path fill="#606579" d="M143.911,61.141c0,0-69.479-21.276-64.442-1.185c5.037,20.091-79.38-11.632-79.38-11.632v40.18
		c0,0,124.65-7.356,125.043,0C125.526,95.86,143.911,61.141,143.911,61.141z"/>
	<path fill="#606479" d="M143.911,61.375c0,0-70.359-21.037-65.258-0.691S0.089,48.905,0.089,48.905v40.18
		c0,0,125.168-7.157,125.551,0S143.911,61.375,143.911,61.375z"/>
	<path fill="#606478" d="M143.911,61.609c0,0-71.238-20.797-66.073-0.197c5.165,20.6-77.748-11.926-77.748-11.926v40.18
		c0,0,125.686-6.958,126.058,0C126.52,96.624,143.911,61.609,143.911,61.609z"/>
	<path fill="#606378" d="M143.911,61.842c0,0-72.118-20.558-66.889,0.296S0.089,50.065,0.089,50.065v40.18
		c0,0,126.204-6.759,126.566,0S143.911,61.842,143.911,61.842z"/>
	<path fill="#606377" d="M143.911,62.074c0,0-72.997-20.319-67.705,0.79S0.089,50.643,0.089,50.643v40.18
		c0,0,126.722-6.56,127.073,0C127.514,97.384,143.911,62.074,143.911,62.074z"/>
	<path fill="#616277" d="M143.911,62.305c0,0-73.877-20.079-68.52,1.284C80.746,84.951,0.089,51.221,0.089,51.221v40.18
		c0,0,127.241-6.362,127.581,0C128.01,97.763,143.911,62.305,143.911,62.305z"/>
	<path fill="#616176" d="M143.911,62.536c0,0-74.756-19.84-69.336,1.777S0.089,51.798,0.089,51.798v40.18
		c0,0,127.759-6.163,128.088,0C128.507,98.141,143.911,62.536,143.911,62.536z"/>
	<path fill="#616176" d="M143.911,62.738c0,0-75.636-19.601-70.152,2.271c5.484,21.871-73.67-12.662-73.67-12.662v40.18
		c0,0,128.277-5.964,128.596,0S143.911,62.738,143.911,62.738z"/>
	<path fill="#616075" d="M143.911,63c0,0-76.515-19.361-70.968,2.764S0.089,52.955,0.089,52.955v40.18c0,0,128.795-5.765,129.103,0
		S143.911,63,143.911,63z"/>
	<path fill="#616075" d="M143.911,63.262c0,0-77.395-19.122-71.783,3.258S0.089,53.564,0.089,53.564v40.18
		c0,0,129.313-5.566,129.611,0S143.911,63.262,143.911,63.262z"/>
	<path fill="#615F74" d="M143.911,63.45c0,0-78.274-18.883-72.599,3.752C76.987,89.836,0.089,54.098,0.089,54.098v40.18
		c0,0,129.831-5.368,130.118,0C130.495,99.646,143.911,63.45,143.911,63.45z"/>
	<path fill="#625E73" d="M143.911,63.677c0,0-79.153-18.644-73.415,4.245S0.089,54.671,0.089,54.671v40.18
		c0,0,130.349-5.169,130.626,0C130.992,100.02,143.911,63.677,143.911,63.677z"/>
	<path fill="#625E73" d="M143.911,63.903c0,0-80.033-18.404-74.23,4.739S0.089,55.243,0.089,55.243v40.18
		c0,0,130.868-4.97,131.133,0C131.489,100.394,143.911,63.903,143.911,63.903z"/>
	<path fill="#625D72" d="M143.911,64.128c0,0-80.912-18.165-75.046,5.232S0.089,55.815,0.089,55.815v40.18
		c0,0,131.386-4.771,131.641,0C131.986,100.766,143.911,64.128,143.911,64.128z"/>
	<path fill="#625D72" d="M143.911,64.353c0,0-81.792-17.926-75.862,5.726S0.089,56.386,0.089,56.386v40.18
		c0,0,131.904-4.572,132.148,0C132.482,101.138,143.911,64.353,143.911,64.353z"/>
	<path fill="#625C71" d="M143.911,64.576c0,0-82.671-17.686-76.678,6.22c5.994,23.906-67.144-13.84-67.144-13.84v40.18
		c0,0,132.422-4.374,132.656,0C132.979,101.51,143.911,64.576,143.911,64.576z"/>
	<path fill="#625B71" d="M143.911,64.799c0,0-83.551-17.447-77.493,6.713S0.089,57.525,0.089,57.525v40.18
		c0,0,132.94-4.175,133.164,0C133.476,101.88,143.911,64.799,143.911,64.799z"/>
	<path fill="#635B70" d="M143.911,65.022c0,0-84.43-17.208-78.309,7.207S0.089,58.094,0.089,58.094v40.18
		c0,0,133.458-3.976,133.671,0C133.973,102.25,143.911,65.022,143.911,65.022z"/>
	<path fill="#635A70" d="M143.911,65.243c0,0-85.31-16.968-79.125,7.701S0.089,58.662,0.089,58.662v40.18
		c0,0,133.977-3.777,134.179,0C134.47,102.619,143.911,65.243,143.911,65.243z"/>
	<path fill="#635A6F" d="M143.911,65.464c0,0-86.189-16.729-79.941,8.194S0.089,59.229,0.089,59.229v40.18
		c0,0,134.495-3.578,134.686,0C134.967,102.987,143.911,65.464,143.911,65.464z"/>
	<path fill="#63596F" d="M143.911,65.684c0,0-87.069-16.49-80.756,8.688S0.089,59.795,0.089,59.795v40.18
		c0,0,135.013-3.38,135.194,0C135.464,103.355,143.911,65.684,143.911,65.684z"/>
	<path fill="#63596E" d="M143.911,65.903c0,0-87.948-16.251-81.572,9.181S0.089,60.361,0.089,60.361v40.18
		c0,0,135.531-3.181,135.701,0C135.961,103.722,143.911,65.903,143.911,65.903z"/>
	<path fill="#63586E" d="M143.911,66.121c0,0-88.828-16.011-82.388,9.675c6.44,25.686-61.434-14.871-61.434-14.871v40.18
		c0,0,136.049-2.982,136.209,0C136.458,104.088,143.911,66.121,143.911,66.121z"/>
	<path fill="#63576D" d="M143.911,66.339c0,0-89.707-15.772-83.203,10.169S0.089,61.49,0.089,61.49v40.18
		c0,0,136.567-2.783,136.716,0C136.954,104.453,143.911,66.339,143.911,66.339z"/>
	<path fill="#64576D" d="M143.911,66.59c0,0-90.587-15.533-84.019,10.662S0.089,62.087,0.089,62.087v40.18
		c0,0,137.085-2.584,137.224,0C137.451,104.852,143.911,66.59,143.911,66.59z"/>
	<path fill="#64566C" d="M143.911,66.893c0,0-91.466-15.293-84.835,11.156S0.089,62.736,0.089,62.736v40.18
		c0,0,137.604-2.386,137.731,0S143.911,66.893,143.911,66.893z"/>
	<path fill="#64566C" d="M143.911,67.197c0,0-92.346-15.054-85.651,11.649S0.089,63.386,0.089,63.386v40.18
		c0,0,138.122-2.187,138.239,0C138.445,105.754,143.911,67.197,143.911,67.197z"/>
	<path fill="#64556B" d="M143.911,67.501c0,0-93.225-14.815-86.466,12.143c6.759,26.958-57.355-15.607-57.355-15.607v40.18
		c0,0,138.64-1.988,138.746,0C138.942,106.206,143.911,67.501,143.911,67.501z"/>
	<path fill="#64546B" d="M143.911,67.807c0,0-94.105-14.576-87.282,12.637S0.089,64.69,0.089,64.69v40.18
		c0,0,139.158-1.789,139.254,0S143.911,67.807,143.911,67.807z"/>
	<path fill="#64546A" d="M143.911,68.114c0,0-94.984-14.336-88.098,13.13S0.089,65.343,0.089,65.343v40.18
		c0,0,139.676-1.59,139.761,0S143.911,68.114,143.911,68.114z"/>
	<path fill="#64536A" d="M143.911,68.422c0,0-95.864-14.097-88.913,13.624S0.089,65.997,0.089,65.997v40.18
		c0,0,140.194-1.392,140.269,0C140.433,107.569,143.911,68.422,143.911,68.422z"/>
	<path fill="#645369" d="M143.911,68.731c0,0-96.743-13.858-89.729,14.118S0.089,66.652,0.089,66.652v40.18
		c0,0,140.712-1.193,140.776,0C140.929,108.026,143.911,68.731,143.911,68.731z"/>
	<path fill="#655269" d="M143.911,69.041c0,0-97.623-13.618-90.545,14.611S0.089,67.309,0.089,67.309v40.18
		c0,0,141.231-0.994,141.284,0C141.426,108.483,143.911,69.041,143.911,69.041z"/>
	<path fill="#655168" d="M143.911,69.352c0,0-98.502-13.379-91.361,15.105S0.089,67.966,0.089,67.966v40.18
		c0,0,141.749-0.795,141.791,0C141.923,108.942,143.911,69.352,143.911,69.352z"/>
	<path fill="#655168" d="M143.911,69.664c0,0-99.382-13.14-92.176,15.598S0.089,68.625,0.089,68.625v40.18
		c0,0,142.267-0.596,142.299,0C142.42,109.402,143.911,69.664,143.911,69.664z"/>
	<path fill="#655067" d="M143.911,69.977c0,0-100.261-12.9-92.992,16.092S0.089,69.284,0.089,69.284v40.18
		c0,0,142.785-0.398,142.806,0S143.911,69.977,143.911,69.977z"/>
	<path fill="#654F67" d="M143.911,70.291c0,0-101.141-12.661-93.808,16.586S0.089,69.945,0.089,69.945v40.18
		c0,0,143.303-0.199,143.314,0S143.911,70.291,143.911,70.291z"/>
	<path fill="#654F66" d="M143.911,110.787v-40.18c0,0-102.02-12.422-94.623,17.079S0.089,70.607,0.089,70.607v40.18H143.911z"/>
	<path fill="#664F66" d="M143.911,111.38V71.2c0,0-101.435-12.456-94.152,16.936S0.089,71.2,0.089,71.2v40.18H143.911z"/>
	<path fill="#674F66" d="M143.911,111.974v-40.18c0,0-100.849-12.49-93.681,16.792S0.089,71.793,0.089,71.793v40.18H143.911z"/>
	<path fill="#684F66" d="M143.911,112.567v-40.18c0,0-100.264-12.524-93.209,16.649S0.089,72.387,0.089,72.387v40.18H143.911z"/>
	<path fill="#684F66" d="M143.911,113.16V72.98c0,0-99.679-12.558-92.738,16.505S0.089,72.98,0.089,72.98v40.18H143.911z"/>
	<path fill="#695066" d="M143.911,113.754v-40.18c0,0-99.093-12.592-92.267,16.362S0.089,73.573,0.089,73.573v40.18H143.911z"/>
	<path fill="#6A5066" d="M143.911,114.347v-40.18c0,0-98.508-12.626-91.795,16.218S0.089,74.167,0.089,74.167v40.18H143.911z"/>
	<path fill="#6B5067" d="M143.911,114.94V74.76c0,0-97.923-12.66-91.324,16.075S0.089,74.76,0.089,74.76v40.18H143.911z"/>
	<path fill="#6C5067" d="M143.911,115.479v-40.18c0,0-97.337-12.694-90.852,15.931S0.089,75.299,0.089,75.299v40.18H143.911z"/>
	<path fill="#6D5067" d="M143.911,116.066v-40.18c0,0-96.752-12.728-90.381,15.788S0.089,75.886,0.089,75.886v40.18H143.911z"/>
	<path fill="#6D5067" d="M143.911,116.653v-40.18c0,0-96.167-12.761-89.91,15.644S0.089,76.473,0.089,76.473v40.18H143.911z"/>
	<path fill="#6E5067" d="M143.911,117.24V77.06c0,0-95.581-12.795-89.438,15.5S0.089,77.06,0.089,77.06v40.18H143.911z"/>
	<path fill="#6F5067" d="M143.911,117.828v-40.18c0,0-94.996-12.829-88.967,15.357S0.089,77.647,0.089,77.647v40.18H143.911z"/>
	<path fill="#705167" d="M143.911,118.415v-40.18c0,0-94.411-12.863-88.496,15.213S0.089,78.235,0.089,78.235v40.18H143.911z"/>
	<path fill="#715167" d="M143.911,119.002v-40.18c0,0-93.825-12.897-88.024,15.07S0.089,78.822,0.089,78.822v40.18H143.911z"/>
	<path fill="#715167" d="M143.911,119.59V79.41c0,0-93.24-12.931-87.553,14.926S0.089,79.41,0.089,79.41v40.18H143.911z"/>
	<path fill="#725167" d="M143.911,120.178v-40.18c0,0-92.655-12.965-87.081,14.783S0.089,79.997,0.089,79.997v40.18H143.911z"/>
	<path fill="#735167" d="M143.911,120.765v-40.18c0,0-92.069-12.999-86.61,14.639S0.089,80.585,0.089,80.585v40.18H143.911z"/>
	<path fill="#745167" d="M143.911,121.353v-40.18c0,0-91.484-13.033-86.139,14.496S0.089,81.173,0.089,81.173v40.18H143.911z"/>
	<path fill="#755167" d="M143.911,121.941v-40.18c0,0-90.899-13.067-85.667,14.352S0.089,81.761,0.089,81.761v40.18H143.911z"/>
	<path fill="#765267" d="M143.911,122.529v-40.18c0,0-90.313-13.101-85.196,14.209S0.089,82.349,0.089,82.349v40.18H143.911z"/>
	<path fill="#765267" d="M143.911,123.118v-40.18c0,0-89.728-13.135-84.725,14.065S0.089,82.937,0.089,82.937v40.18H143.911z"/>
	<path fill="#775267" d="M143.911,123.706v-40.18c0,0-89.143-13.169-84.253,13.922S0.089,83.526,0.089,83.526v40.18H143.911z"/>
	<path fill="#785267" d="M143.911,124.294v-40.18c0,0-88.557-13.203-83.782,13.778S0.089,84.114,0.089,84.114v40.18H143.911z"/>
	<path fill="#795267" d="M143.911,124.883v-40.18c0,0-87.972-13.237-83.31,13.635S0.089,84.703,0.089,84.703v40.18H143.911z"/>
	<path fill="#7A5267" d="M143.911,125.472v-40.18c0,0-87.387-13.271-82.839,13.491S0.089,85.291,0.089,85.291v40.18H143.911z"/>
	<path fill="#7B5267" d="M143.911,126.06V85.88c0,0-86.801-13.305-82.368,13.348S0.089,85.88,0.089,85.88v40.18H143.911z"/>
	<path fill="#7B5367" d="M143.911,126.649v-40.18c0,0-86.216-13.339-81.896,13.204S0.089,86.469,0.089,86.469v40.18H143.911z"/>
	<path fill="#7C5367" d="M143.911,127.238v-40.18c0,0-85.631-13.373-81.425,13.061S0.089,87.058,0.089,87.058v40.18H143.911z"/>
	<path fill="#7D5367" d="M143.911,127.827v-40.18c0,0-85.045-13.407-80.954,12.917S0.089,87.647,0.089,87.647v40.18H143.911z"/>
	<path fill="#7E5367" d="M143.911,128.416v-40.18c0,0-84.46-13.441-80.482,12.774S0.089,88.236,0.089,88.236v40.18H143.911z"/>
	<path fill="#7F5367" d="M143.911,129.006v-40.18c0,0-83.875-13.475-80.011,12.63S0.089,88.826,0.089,88.826v40.18H143.911z"/>
	<path fill="#805367" d="M143.911,129.595v-40.18c0,0-83.289-13.509-79.539,12.487S0.089,89.415,0.089,89.415v40.18H143.911z"/>
	<path fill="#805367" d="M143.911,130.185v-40.18c0,0-82.704-13.543-79.068,12.343c3.636,25.886-64.753-12.343-64.753-12.343v40.18
		H143.911z"/>
	<path fill="#815367" d="M143.911,130.774v-40.18c0,0-82.119-13.577-78.597,12.199C68.836,128.57,0.089,90.594,0.089,90.594v40.18
		H143.911z"/>
	<path fill="#825467" d="M143.911,131.364v-40.18c0,0-81.533-13.611-78.125,12.056S0.089,91.184,0.089,91.184v40.18H143.911z"/>
	<path fill="#835467" d="M143.911,131.954v-40.18c0,0-80.948-13.645-77.654,11.912S0.089,91.774,0.089,91.774v40.18H143.911z"/>
	<path fill="#845467" d="M143.911,132.544v-40.18c0,0-80.363-13.678-77.183,11.769c3.18,25.447-66.639-11.769-66.639-11.769v40.18
		H143.911z"/>
	<path fill="#855468" d="M143.911,133.134v-40.18c0,0-79.777-13.712-76.711,11.625c3.066,25.338-67.11-11.625-67.11-11.625v40.18
		H143.911z"/>
	<path fill="#865468" d="M143.911,133.724v-40.18c0,0-79.192-13.746-76.24,11.482S0.089,93.544,0.089,93.544v40.18H143.911z"/>
	<path fill="#865468" d="M143.911,134.315v-40.18c0,0-78.607-13.78-75.768,11.338S0.089,94.135,0.089,94.135v40.18H143.911z"/>
	<path fill="#875468" d="M143.911,134.905v-40.18c0,0-78.021-13.814-75.297,11.195c2.724,25.009-68.524-11.195-68.524-11.195v40.18
		H143.911z"/>
	<path fill="#885468" d="M143.911,135.496v-40.18c0,0-77.436-13.848-74.826,11.051c2.61,24.9-68.996-11.051-68.996-11.051v40.18
		H143.911z"/>
	<path fill="#895468" d="M143.911,136.087v-40.18c0,0-76.851-13.882-74.354,10.908S0.089,95.906,0.089,95.906v40.18H143.911z"/>
	<path fill="#8A5568" d="M143.911,136.677v-40.18c0,0-76.265-13.916-73.883,10.764S0.089,96.497,0.089,96.497v40.18H143.911z"/>
	<path fill="#8B5568" d="M143.911,137.268v-40.18c0,0-75.68-13.95-73.412,10.621c2.269,24.571-70.41-10.621-70.41-10.621v40.18
		H143.911z"/>
	<path fill="#8C5568" d="M143.911,137.86v-40.18c0,0-75.095-13.984-72.94,10.477c2.155,24.461-70.881-10.477-70.881-10.477v40.18
		H143.911z"/>
	<path fill="#8C5568" d="M143.911,138.451V98.27c0,0-74.509-14.018-72.469,10.334S0.089,98.27,0.089,98.27v40.18H143.911z"/>
	<path fill="#8D5568" d="M143.911,139.042v-40.18c0,0-73.924-14.052-71.997,10.19S0.089,98.862,0.089,98.862v40.18H143.911z"/>
	<path fill="#8E5568" d="M143.911,139.634v-40.18c0,0-73.339-14.086-71.526,10.047c1.813,24.133-72.295-10.047-72.295-10.047v40.18
		H143.911z"/>
	<path fill="#8F5568" d="M143.911,140.225v-40.18c0,0-72.753-14.12-71.055,9.903c1.699,24.023-72.767-9.903-72.767-9.903v40.18
		H143.911z"/>
	<path fill="#905668" d="M143.911,140.817v-40.18c0,0-72.168-14.154-70.583,9.76s-73.238-9.76-73.238-9.76v40.18H143.911z"/>
	<path fill="#915668" d="M143.911,141.409v-40.18c0,0-71.583-14.188-70.112,9.616s-73.71-9.616-73.71-9.616v40.18H143.911z"/>
	<path fill="#925668" d="M143.911,142.001v-40.18c0,0-70.997-14.222-69.641,9.473c1.357,23.694-74.181-9.473-74.181-9.473v40.18
		H143.911z"/>
	<path fill="#925668" d="M143.911,142.593v-40.18c0,0-70.412-14.256-69.169,9.329c1.243,23.585-74.652-9.329-74.652-9.329v40.18
		H143.911z"/>
	<path fill="#935668" d="M143.911,143.185v-40.18c0,0-69.827-14.29-68.698,9.185s-75.124-9.185-75.124-9.185v40.18H143.911z"/>
	<path fill="#945668" d="M143.911,143.777v-40.18c0,0-69.241-14.324-68.226,9.042s-75.595-9.042-75.595-9.042v40.18H143.911z"/>
	<path fill="#955668" d="M143.911,144.37v-40.18c0,0-68.656-14.358-67.755,8.898c0.901,23.256-76.066-8.898-76.066-8.898v40.18
		H143.911z"/>
	<path fill="#965668" d="M143.911,144.963v-40.18c0,0-68.071-14.392-67.284,8.755c0.787,23.147-76.538-8.755-76.538-8.755v40.18
		H143.911z"/>
	<path fill="#975668" d="M143.911,145.555v-40.18c0,0-67.485-14.426-66.812,8.611s-77.009-8.611-77.009-8.611v40.18H143.911z"/>
	<path fill="#985768" d="M143.911,146.148v-40.18c0,0-66.9-14.46-66.341,8.468s-77.481-8.468-77.481-8.468v40.18H143.911z"/>
	<path fill="#995768" d="M143.911,146.741v-40.18c0,0-66.315-14.494-65.87,8.324s-77.952-8.324-77.952-8.324v40.18H143.911z"/>
	<path fill="#9A5768" d="M143.911,147.334v-40.18c0,0-65.729-14.528-65.398,8.181c0.331,22.708-78.423-8.181-78.423-8.181v40.18
		H143.911z"/>
	<path fill="#9A5768" d="M143.911,147.928v-40.18c0,0-65.144-14.562-64.927,8.037s-78.895-8.037-78.895-8.037v40.18H143.911z"/>
	<path fill="#9B5768" d="M143.911,148.521v-40.18c0,0-64.559-14.595-64.455,7.894s-79.366-7.894-79.366-7.894v40.18H143.911z"/>
	<path fill="#9C5768" d="M143.911,149.115v-40.18c0,0-63.973-14.629-63.984,7.75s-79.837-7.75-79.837-7.75v40.18H143.911z"/>
	<path fill="#9D5768" d="M143.911,149.708v-40.18c0,0-63.388-14.663-63.513,7.607c-0.125,22.27-80.309-7.607-80.309-7.607v40.18
		H143.911z"/>
	<path fill="#9E5768" d="M143.911,150.302v-40.18c0,0-62.803-14.697-63.041,7.463s-80.78-7.463-80.78-7.463v40.18H143.911z"/>
	<path fill="#9F5768" d="M143.911,150.896v-40.18c0,0-62.217-14.731-62.57,7.32s-81.252-7.32-81.252-7.32v40.18H143.911z"/>
	<path fill="#A05868" d="M143.911,151.49v-40.18c0,0-61.632-14.765-62.099,7.176S0.089,111.31,0.089,111.31v40.18H143.911z"/>
	<path fill="#A15868" d="M143.911,152.085v-40.18c0,0-61.047-14.799-61.627,7.033c-0.58,21.832-82.194-7.033-82.194-7.033v40.18
		H143.911z"/>
	<path fill="#A25868" d="M143.911,152.679v-40.18c0,0-60.461-14.833-61.156,6.889c-0.694,21.722-82.666-6.889-82.666-6.889v40.18
		H143.911z"/>
	<path fill="#A35868" d="M143.911,153.274v-40.18c0,0-59.876-14.867-60.684,6.746s-83.137-6.746-83.137-6.746v40.18H143.911z"/>
	<path fill="#A45868" d="M143.911,153.868v-40.18c0,0-59.291-14.901-60.213,6.602s-83.608-6.602-83.608-6.602v40.18H143.911z"/>
	<path fill="#A55868" d="M143.911,154.463v-40.18c0,0-58.705-14.935-59.742,6.459c-1.036,21.394-84.08-6.459-84.08-6.459v40.18
		H143.911z"/>
	<path fill="#A55868" d="M143.911,155.058v-40.18c0,0-58.12-14.969-59.27,6.315c-1.15,21.284-84.551-6.315-84.551-6.315v40.18
		H143.911z"/>
	<path fill="#A65868" d="M143.911,155.653v-40.18c0,0-57.535-15.003-58.799,6.171s-85.023-6.171-85.023-6.171v40.18H143.911z"/>
	<path fill="#A75868" d="M143.911,156.248v-40.18c0,0-56.949-15.037-58.327,6.028s-85.494-6.028-85.494-6.028v40.18H143.911z"/>
	<path fill="#A85968" d="M143.911,156.844v-40.18c0,0-56.364-15.071-57.856,5.884c-1.492,20.955-85.965-5.884-85.965-5.884v40.18
		H143.911z"/>
	<path fill="#A95968" d="M143.911,157.439v-40.18c0,0-55.779-15.105-57.385,5.741c-1.606,20.846-86.437-5.741-86.437-5.741v40.18
		H143.911z"/>
	<path fill="#AA5968" d="M143.911,158.035v-40.18c0,0-55.193-15.139-56.913,5.597s-86.908-5.597-86.908-5.597v40.18H143.911z"/>
	<path fill="#AB5968" d="M143.911,158.631v-40.18c0,0-54.608-15.173-56.442,5.454s-87.379-5.454-87.379-5.454v40.18H143.911z"/>
	<path fill="#AC5968" d="M143.911,159.227v-40.18c0,0-54.023-15.207-55.971,5.31c-1.948,20.517-87.851-5.31-87.851-5.31v40.18
		H143.911z"/>
	<path fill="#AD5968" d="M143.911,159.823v-40.18c0,0-53.437-15.241-55.499,5.167c-2.062,20.408-88.322-5.167-88.322-5.167v40.18
		H143.911z"/>
	<path fill="#AE5968" d="M143.911,160.42v-40.18c0,0-52.852-15.275-55.028,5.023s-88.794-5.023-88.794-5.023v40.18H143.911z"/>
	<path fill="#AF5968" d="M143.911,161.016v-40.18c0,0-52.267-15.309-54.556,4.88s-89.265-4.88-89.265-4.88v40.18H143.911z"/>
	<path fill="#B05968" d="M143.911,161.613v-40.18c0,0-51.681-15.343-54.085,4.736c-2.404,20.079-89.736-4.736-89.736-4.736v40.18
		H143.911z"/>
	<path fill="#B05968" d="M143.911,162.209v-40.18c0,0-51.096-15.377-53.614,4.593c-2.518,19.969-90.208-4.593-90.208-4.593v40.18
		H143.911z"/>
	<path fill="#B15A68" d="M143.911,162.806v-40.18c0,0-50.511-15.411-53.142,4.449s-90.679-4.449-90.679-4.449v40.18H143.911z"/>
	<path fill="#B25A68" d="M143.911,163.404v-40.18c0,0-49.925-15.445-52.671,4.306s-91.15-4.306-91.15-4.306v40.18H143.911z"/>
	<path fill="#B35A68" d="M143.911,164.001v-40.18c0,0-49.34-15.479-52.2,4.162c-2.86,19.641-91.622-4.162-91.622-4.162v40.18
		H143.911z"/>
	<path fill="#B45A68" d="M143.911,164.598v-40.18c0,0-48.755-15.512-51.728,4.019c-2.973,19.531-92.093-4.019-92.093-4.019v40.18
		H143.911z"/>
	<path fill="#B55A68" d="M143.911,165.196v-40.18c0,0-48.169-15.546-51.257,3.875s-92.565-3.875-92.565-3.875v40.18H143.911z"/>
	<path fill="#B65A68" d="M143.911,165.794v-40.18c0,0-47.584-15.58-50.785,3.732s-93.036-3.732-93.036-3.732v40.18H143.911z"/>
	<path fill="#B75A68" d="M143.911,166.391v-40.18c0,0-46.999-15.614-50.314,3.588c-3.315,19.202-93.507-3.588-93.507-3.588v40.18
		H143.911z"/>
	<path fill="#B85A68" d="M143.911,166.989v-40.18c0,0-46.413-15.648-49.843,3.445c-3.429,19.093-93.979-3.445-93.979-3.445v40.18
		H143.911z"/>
	<path fill="#B95A68" d="M143.911,167.588v-40.18c0,0-45.828-15.682-49.371,3.301c-3.543,18.983-94.45-3.301-94.45-3.301v40.18
		H143.911z"/>
	<path fill="#BA5A68" d="M143.911,168.186v-40.18c0,0-45.243-15.716-48.9,3.158s-94.921-3.158-94.921-3.158v40.18H143.911z"/>
	<path fill="#BB5B68" d="M143.911,168.785v-40.18c0,0-44.657-15.75-48.429,3.014c-3.771,18.764-95.393-3.014-95.393-3.014v40.18
		H143.911z"/>
	<path fill="#BC5B68" d="M143.911,169.383v-40.18c0,0-44.072-15.784-47.957,2.87c-3.885,18.655-95.864-2.87-95.864-2.87v40.18
		H143.911z"/>
	<path fill="#BD5B68" d="M143.911,169.982v-40.18c0,0-43.487-15.818-47.486,2.727s-96.336-2.727-96.336-2.727v40.18H143.911z"/>
	<path fill="#BE5B68" d="M143.911,170.581v-40.18c0,0-42.901-15.852-47.014,2.583s-96.807-2.583-96.807-2.583v40.18H143.911z"/>
	<path fill="#BF5B68" d="M143.911,171.18V131c0,0-42.316-15.886-46.543,2.44C93.141,151.766,0.089,131,0.089,131v40.18H143.911z"/>
	<path fill="#C05B68" d="M143.911,171.78V131.6c0,0-41.731-15.92-46.072,2.296c-4.341,18.216-97.75-2.296-97.75-2.296v40.18H143.911
		z"/>
	<path fill="#C15B68" d="M143.911,172.379v-40.18c0,0-41.145-15.954-45.6,2.153c-4.455,18.107-98.221-2.153-98.221-2.153v40.18
		H143.911z"/>
	<path fill="#C25B68" d="M143.911,172.979v-40.18c0,0-40.56-15.988-45.129,2.009s-98.692-2.009-98.692-2.009v40.18H143.911z"/>
	<path fill="#C35B68" d="M143.911,173.579v-40.18c0,0-39.975-16.022-44.658,1.866c-4.683,17.888-99.164-1.866-99.164-1.866v40.18
		H143.911z"/>
	<path fill="#C45B68" d="M143.911,174.179v-40.18c0,0-39.389-16.056-44.186,1.722c-4.797,17.778-99.635-1.722-99.635-1.722v40.18
		H143.911z"/>
	<path fill="#C55B68" d="M143.911,174.779v-40.18c0,0-38.804-16.09-43.715,1.579S0.089,134.599,0.089,134.599v40.18H143.911z"/>
	<path fill="#C65C68" d="M143.911,175.38v-40.18c0,0-38.219-16.124-43.243,1.435S0.089,135.199,0.089,135.199v40.18H143.911z"/>
	<path fill="#C75C68" d="M143.911,175.98V135.8c0,0-37.633-16.158-42.772,1.292C96,154.541,0.089,135.8,0.089,135.8v40.18H143.911z"
		/>
	<path fill="#C85C68" d="M143.911,176.581v-40.18c0,0-37.048-16.192-42.301,1.148c-5.253,17.34-101.521-1.148-101.521-1.148v40.18
		H143.911z"/>
	<path fill="#C95C68" d="M143.911,177.182v-40.18c0,0-36.463-16.226-41.829,1.005S0.089,137.002,0.089,137.002v40.18H143.911z"/>
	<path fill="#CA5C68" d="M143.911,177.783v-40.18c0,0-35.877-16.26-41.358,0.861S0.089,137.603,0.089,137.603v40.18H143.911z"/>
	<path fill="#CB5C68" d="M143.911,178.427v-40.18c0,0-35.292-16.294-40.887,0.718c-5.594,17.011-102.935-0.718-102.935-0.718v40.18
		H143.911z"/>
	<path fill="#CC5C68" d="M143.911,179.02v-40.18c0,0-34.707-16.328-40.415,0.574C97.787,156.316,0.089,138.84,0.089,138.84v40.18
		H143.911z"/>
	<path fill="#CD5D68" d="M143.911,179.614v-40.18c0,0-34.121-16.362-39.944,0.431S0.089,139.433,0.089,139.433v40.18H143.911z"/>
	<path fill="#CF5D68" d="M143.911,180.207v-40.18c0,0-33.536-16.396-39.472,0.287S0.089,140.027,0.089,140.027v40.18H143.911z"/>
	<path fill="#D05D68" d="M143.911,180.8v-40.18c0,0-32.951-16.429-39.001,0.144c-6.05,16.573-104.82-0.144-104.82-0.144v40.18
		H143.911z"/>
	<path fill="#D15D68" d="M143.911,181.394v-40.18c0,0-32.365-16.463-38.53,0c-6.164,16.463-105.292,0-105.292,0v40.18H143.911z"/>
	<path fill="#D15E68" d="M143.911,181.846v-40.18c0,0-32.942-16.289-38.984,0s-104.837,0-104.837,0v40.18H143.911z"/>
	<path fill="#D15F69" d="M143.911,182.238v-40.18c0,0-33.519-16.115-39.438,0s-104.383,0-104.383,0v40.18H143.911z"/>
	<path fill="#D26069" d="M143.911,182.66v-40.18c0,0-34.096-15.94-39.893,0s-103.929,0-103.929,0v40.18H143.911z"/>
	<path fill="#D26069" d="M143.911,183.082v-40.18c0,0-34.673-15.766-40.347,0c-5.674,15.766-103.474,0-103.474,0v40.18H143.911z"/>
	<path fill="#D26169" d="M143.911,183.504v-40.18c0,0-35.25-15.591-40.802,0c-5.552,15.591-103.02,0-103.02,0v40.18H143.911z"/>
	<path fill="#D26269" d="M143.911,183.926v-40.18c0,0-35.827-15.417-41.256,0s-102.565,0-102.565,0v40.18H143.911z"/>
	<path fill="#D26369" d="M143.911,184.347v-40.18c0,0-36.404-15.242-41.711,0s-102.111,0-102.111,0v40.18H143.911z"/>
	<path fill="#D26469" d="M143.911,184.769v-40.18c0,0-36.981-15.068-42.165,0s-101.656,0-101.656,0v40.18H143.911z"/>
	<path fill="#D2646A" d="M143.911,185.191v-40.18c0,0-37.557-14.893-42.619,0c-5.062,14.893-101.202,0-101.202,0v40.18H143.911z"/>
	<path fill="#D3656A" d="M143.911,185.613v-40.18c0,0-38.134-14.719-43.074,0s-100.748,0-100.748,0v40.18H143.911z"/>
	<path fill="#D3666A" d="M143.911,186.035v-40.18c0,0-38.711-14.544-43.528,0s-100.293,0-100.293,0v40.18H143.911z"/>
	<path fill="#D3676A" d="M143.911,186.457v-40.18c0,0-39.288-14.37-43.983,0s-99.839,0-99.839,0v40.18H143.911z"/>
	<path fill="#D3676A" d="M143.911,186.879v-40.18c0,0-39.865-14.195-44.437,0s-99.384,0-99.384,0v40.18H143.911z"/>
	<path fill="#D3686A" d="M143.911,187.301v-40.18c0,0-40.442-14.021-44.891,0c-4.449,14.021-98.93,0-98.93,0v40.18H143.911z"/>
	<path fill="#D3696A" d="M143.911,187.723v-40.18c0,0-41.019-13.846-45.346,0s-98.476,0-98.476,0v40.18H143.911z"/>
	<path fill="#D46A6A" d="M143.911,188.145v-40.18c0,0-41.596-13.672-45.8,0c-4.204,13.672-98.021,0-98.021,0v40.18H143.911z"/>
	<path fill="#D46B6B" d="M143.911,188.567v-40.18c0,0-42.173-13.497-46.255,0s-97.567,0-97.567,0v40.18H143.911z"/>
	<path fill="#D46B6B" d="M143.911,188.989v-40.18c0,0-42.75-13.323-46.709,0s-97.112,0-97.112,0v40.18H143.911z"/>
	<path fill="#D46C6B" d="M143.911,189.411v-40.18c0,0-43.326-13.149-47.163,0c-3.837,13.149-96.658,0-96.658,0v40.18H143.911z"/>
	<path fill="#D46D6B" d="M143.911,189.833v-40.18c0,0-43.903-12.974-47.618,0s-96.204,0-96.204,0v40.18H143.911z"/>
	<path fill="#D46E6B" d="M143.911,190.255v-40.18c0,0-44.48-12.8-48.072,0c-3.592,12.8-95.749,0-95.749,0v40.18H143.911z"/>
	<path fill="#D46E6B" d="M143.911,190.677v-40.18c0,0-45.057-12.625-48.527,0s-95.295,0-95.295,0v40.18H143.911z"/>
	<path fill="#D56F6B" d="M143.911,191.099v-40.18c0,0-45.634-12.451-48.981,0c-3.347,12.451-94.84,0-94.84,0v40.18H143.911z"/>
	<path fill="#D5706B" d="M143.911,191.521v-40.18c0,0-46.211-12.276-49.435,0s-94.386,0-94.386,0v40.18H143.911z"/>
	<path fill="#D5706C" d="M143.911,191.943v-40.18c0,0-46.788-12.102-49.89,0c-3.102,12.102-93.932,0-93.932,0v40.18H143.911z"/>
	<path fill="#D5716C" d="M143.911,192.365v-40.18c0,0-47.365-11.927-50.344,0c-2.98,11.927-93.477,0-93.477,0v40.18H143.911z"/>
	<path fill="#D5726C" d="M143.911,192.787v-40.18c0,0-47.942-11.753-50.799,0c-2.857,11.753-93.023,0-93.023,0v40.18H143.911z"/>
	<path fill="#D5736C" d="M143.911,193.209v-40.18c0,0-48.518-11.578-51.253,0c-2.735,11.578-92.568,0-92.568,0v40.18H143.911z"/>
	<path fill="#D6736C" d="M143.911,193.631v-40.18c0,0-49.095-11.404-51.707,0s-92.114,0-92.114,0v40.18H143.911z"/>
	<path fill="#D6746C" d="M143.911,194.053v-40.18c0,0-49.672-11.229-52.162,0c-2.49,11.229-91.66,0-91.66,0v40.18H143.911z"/>
	<path fill="#D6756C" d="M143.911,194.475v-40.18c0,0-50.249-11.055-52.616,0c-2.367,11.055-91.205,0-91.205,0v40.18H143.911z"/>
	<path fill="#D6756C" d="M143.911,194.897v-40.18c0,0-50.826-10.88-53.071,0c-2.245,10.88-90.751,0-90.751,0v40.18H143.911z"/>
	<path fill="#D6766C" d="M143.911,195.319v-40.18c0,0-51.403-10.706-53.525,0s-90.296,0-90.296,0v40.18H143.911z"/>
	<path fill="#D6776D" d="M143.911,195.741v-40.18c0,0-51.98-10.531-53.979,0c-2,10.532-89.842,0-89.842,0v40.18H143.911z"/>
	<path fill="#D6776D" d="M143.911,196.163v-40.18c0,0-52.557-10.357-54.434,0c-1.877,10.357-89.388,0-89.388,0v40.18H143.911z"/>
	<path fill="#D7786D" d="M143.911,196.585v-40.18c0,0-53.134-10.183-54.888,0c-1.755,10.183-88.933,0-88.933,0v40.18H143.911z"/>
	<path fill="#D7796D" d="M143.911,197.007v-40.18c0,0-53.711-10.008-55.343,0c-1.632,10.008-88.479,0-88.479,0v40.18H143.911z"/>
	<path fill="#D77A6D" d="M143.911,197.429v-40.18c0,0-54.287-9.834-55.797,0c-1.51,9.834-88.024,0-88.024,0v40.18H143.911z"/>
	<path fill="#D77A6D" d="M143.911,197.851v-40.18c0,0-54.864-9.659-56.251,0c-1.387,9.659-87.57,0-87.57,0v40.18H143.911z"/>
	<path fill="#D77B6D" d="M143.911,198.272v-40.18c0,0-55.441-9.485-56.706,0c-1.265,9.485-87.116,0-87.116,0v40.18H143.911z"/>
	<path fill="#D77C6D" d="M143.911,198.694v-40.18c0,0-56.018-9.31-57.16,0c-1.142,9.31-86.661,0-86.661,0v40.18H143.911z"/>
	<path fill="#D87C6D" d="M143.911,199.116v-40.18c0,0-56.595-9.136-57.615,0c-1.02,9.136-86.207,0-86.207,0v40.18H143.911z"/>
	<path fill="#D87D6D" d="M143.911,199.538v-40.18c0,0-57.172-8.961-58.069,0c-0.897,8.961-85.752,0-85.752,0v40.18H143.911z"/>
	<path fill="#D87E6E" d="M143.911,199.96v-40.18c0,0-57.749-8.787-58.524,0c-0.775,8.787-85.298,0-85.298,0v40.18H143.911z"/>
	<path fill="#D87E6E" d="M143.911,200.382v-40.18c0,0-58.326-8.612-58.978,0c-0.652,8.612-84.843,0-84.843,0v40.18H143.911z"/>
	<path fill="#D87F6E" d="M143.911,200.804v-40.18c0,0-58.903-8.438-59.432,0c-0.53,8.438-84.389,0-84.389,0v40.18H143.911z"/>
	<path fill="#D8806E" d="M143.911,201.226v-40.18c0,0-59.479-8.263-59.887,0c-0.407,8.263-83.935,0-83.935,0v40.18H143.911z"/>
	<path fill="#D9806E" d="M143.911,201.648v-40.18c0,0-60.056-8.089-60.341,0s-83.48,0-83.48,0v40.18H143.911z"/>
	<path fill="#D9816E" d="M143.911,202.07v-40.18c0,0-60.633-7.914-60.796,0s-83.026,0-83.026,0v40.18H143.911z"/>
	<path fill="#D9826E" d="M143.911,202.492v-40.18c0,0-61.21-7.74-61.25,0c-0.04,7.74-82.571,0-82.571,0v40.18H143.911z"/>
	<path fill="#D9836E" d="M143.911,202.914v-40.18c0,0-61.787-7.566-61.704,0c0.083,7.566-82.117,0-82.117,0v40.18H143.911z"/>
	<path fill="#D9836E" d="M143.911,203.336v-40.18c0,0-62.364-7.391-62.159,0c0.205,7.391-81.663,0-81.663,0v40.18H143.911z"/>
	<path fill="#D9846F" d="M143.911,203.758v-40.18c0,0-62.941-7.217-62.613,0s-81.208,0-81.208,0v40.18H143.911z"/>
	<path fill="#DA856F" d="M143.911,204.18V164c0,0-63.518-7.042-63.068,0s-80.754,0-80.754,0v40.18H143.911z"/>
	<path fill="#DA856F" d="M143.911,204.602v-40.18c0,0-64.095-6.868-63.522,0c0.573,6.868-80.299,0-80.299,0v40.18H143.911z"/>
	<path fill="#DA866F" d="M143.911,205.024v-40.18c0,0-64.672-6.693-63.976,0c0.695,6.693-79.845,0-79.845,0v40.18H143.911z"/>
	<path fill="#DA876F" d="M143.911,205.446v-40.18c0,0-65.248-6.519-64.431,0s-79.391,0-79.391,0v40.18H143.911z"/>
	<path fill="#DA876F" d="M143.911,205.868v-40.18c0,0-65.825-6.344-64.885,0s-78.936,0-78.936,0v40.18H143.911z"/>
	<path fill="#DA886F" d="M143.911,206.29v-40.18c0,0-66.402-6.17-65.34,0s-78.482,0-78.482,0v40.18H143.911z"/>
	<path fill="#DB896F" d="M143.911,206.712v-40.18c0,0-66.979-5.995-65.794,0s-78.027,0-78.027,0v40.18H143.911z"/>
	<path fill="#DB896F" d="M143.911,207.134v-40.18c0,0-67.556-5.821-66.248,0c1.308,5.821-77.573,0-77.573,0v40.18H143.911z"/>
	<path fill="#DB8A6F" d="M143.911,207.556v-40.18c0,0-68.133-5.646-66.703,0s-77.119,0-77.119,0v40.18H143.911z"/>
	<path fill="#DB8B6F" d="M143.911,207.978v-40.18c0,0-68.71-5.472-67.157,0s-76.664,0-76.664,0v40.18H143.911z"/>
	<path fill="#DB8B70" d="M143.911,208.4v-40.18c0,0-69.287-5.297-67.612,0s-76.21,0-76.21,0v40.18H143.911z"/>
	<path fill="#DB8C70" d="M143.911,208.822v-40.18c0,0-69.864-5.123-68.066,0c1.798,5.123-75.755,0-75.755,0v40.18H143.911z"/>
	<path fill="#DB8D70" d="M143.911,209.244v-40.18c0,0-70.44-4.948-68.52,0c1.92,4.949-75.301,0-75.301,0v40.18H143.911z"/>
	<path fill="#DC8D70" d="M143.911,209.666v-40.18c0,0-71.017-4.774-68.975,0s-74.847,0-74.847,0v40.18H143.911z"/>
	<path fill="#DC8E70" d="M143.911,210.088v-40.18c0,0-71.594-4.6-69.429,0s-74.392,0-74.392,0v40.18H143.911z"/>
	<path fill="#DC8F70" d="M143.911,210.51v-40.18c0,0-72.171-4.425-69.884,0s-73.938,0-73.938,0v40.18H143.911z"/>
	<path fill="#DC8F70" d="M143.911,210.932v-40.18c0,0-72.748-4.251-70.338,0c2.41,4.251-73.483,0-73.483,0v40.18H143.911z"/>
	<path fill="#DC9070" d="M143.911,211.354v-40.18c0,0-73.325-4.076-70.792,0c2.533,4.076-73.029,0-73.029,0v40.18H143.911z"/>
	<path fill="#DC9170" d="M143.911,211.776v-40.18c0,0-73.902-3.902-71.247,0s-72.575,0-72.575,0v40.18H143.911z"/>
	<path fill="#DD9270" d="M143.911,212.197v-40.18c0,0-74.479-3.727-71.701,0s-72.12,0-72.12,0v40.18H143.911z"/>
	<path fill="#DD9270" d="M143.911,212.619v-40.18c0,0-75.056-3.553-72.156,0c2.9,3.553-71.666,0-71.666,0v40.18H143.911z"/>
	<path fill="#DD9371" d="M143.911,213.041v-40.18c0,0-75.633-3.378-72.61,0c3.022,3.378-71.211,0-71.211,0v40.18H143.911z"/>
	<path fill="#DD9471" d="M143.911,213.463v-40.18c0,0-76.209-3.204-73.064,0c3.145,3.204-70.757,0-70.757,0v40.18H143.911z"/>
	<path fill="#DD9471" d="M143.911,213.885v-40.18c0,0-76.786-3.029-73.519,0s-70.303,0-70.303,0v40.18H143.911z"/>
	<path fill="#DE9571" d="M143.911,214.307v-40.18c0,0-77.363-2.855-73.973,0s-69.848,0-69.848,0v40.18H143.911z"/>
	<path fill="#DE9671" d="M143.911,214.729v-40.18c0,0-77.94-2.68-74.428,0c3.512,2.68-69.394,0-69.394,0v40.18H143.911z"/>
	<path fill="#DE9671" d="M143.911,215.151v-40.18c0,0-78.517-2.506-74.882,0c3.635,2.506-68.939,0-68.939,0v40.18H143.911z"/>
	<path fill="#DE9771" d="M143.911,215.573v-40.18c0,0-79.094-2.331-75.337,0c3.757,2.331-68.485,0-68.485,0v40.18H143.911z"/>
	<path fill="#DE9871" d="M143.911,215.995v-40.18c0,0-79.671-2.157-75.791,0c3.88,2.157-68.031,0-68.031,0v40.18H143.911z"/>
	<path fill="#DF9971" d="M143.911,216.417v-40.18c0,0-80.248-1.983-76.245,0s-67.576,0-67.576,0v40.18H143.911z"/>
	<path fill="#DF9971" d="M143.911,216.839v-40.18c0,0-80.825-1.808-76.7,0c4.125,1.808-67.122,0-67.122,0v40.18H143.911z"/>
	<path fill="#DF9A71" d="M143.911,217.261v-40.18c0,0-81.402-1.634-77.154,0c4.247,1.634-66.667,0-66.667,0v40.18H143.911z"/>
	<path fill="#DF9B71" d="M143.911,217.683v-40.18c0,0-81.978-1.459-77.609,0c4.37,1.459-66.213,0-66.213,0v40.18H143.911z"/>
	<path fill="#DF9B72" d="M143.911,218.105v-40.18c0,0-82.555-1.285-78.063,0c4.492,1.285-65.758,0-65.758,0v40.18H143.911z"/>
	<path fill="#DF9C72" d="M143.911,218.527v-40.18c0,0-83.132-1.11-78.517,0c4.615,1.11-65.304,0-65.304,0v40.18H143.911z"/>
	<path fill="#E09D72" d="M143.911,218.949v-40.18c0,0-83.709-0.936-78.972,0c4.737,0.936-64.85,0-64.85,0v40.18H143.911z"/>
	<path fill="#E09E72" d="M143.911,219.371v-40.18c0,0-84.286-0.761-79.426,0c4.86,0.761-64.395,0-64.395,0v40.18H143.911z"/>
	<path fill="#E09E72" d="M143.911,219.793v-40.18c0,0-84.863-0.587-79.881,0c4.982,0.587-63.941,0-63.941,0v40.18H143.911z"/>
	<path fill="#E09F72" d="M143.911,220.215v-40.18c0,0-85.44-0.412-80.335,0c5.105,0.412-63.486,0-63.486,0v40.18H143.911z"/>
	<path fill="#E0A072" d="M143.911,220.637v-40.18c0,0-86.017-0.238-80.789,0c5.227,0.238-63.032,0-63.032,0v40.18H143.911z"/>
	<path fill="#E1A072" d="M143.911,221.059v-40.18c0,0-86.594-0.063-81.244,0c5.35,0.063-62.578,0-62.578,0v40.18H143.911z"/>
	<path fill="#E1A172" d="M143.911,221.53v-40.18c0,0-87.17,0.111-81.698,0c5.472-0.111-62.123,0-62.123,0v40.18H143.911z"/>
	<path fill="#E1A272" d="M143.911,222.03v-40.18c0,0-87.747,0.286-82.153,0c5.595-0.286-61.669,0-61.669,0v40.18H143.911z"/>
	<path fill="#E1A372" d="M143.911,222.529v-40.18c0,0-88.324,0.46-82.607,0c5.717-0.46-61.214,0-61.214,0v40.18H143.911z"/>
	<path fill="#E1A372" d="M143.911,223.029v-40.18c0,0-88.901,0.635-83.061,0c5.84-0.635-60.76,0-60.76,0v40.18H143.911z"/>
	<path fill="#E1A472" d="M143.911,223.528v-40.18c0,0-89.478,0.809-83.516,0c5.962-0.809-60.306,0-60.306,0v40.18H143.911z"/>
	<path fill="#E2A573" d="M143.911,224.028v-40.18c0,0-90.055,0.983-83.97,0c6.085-0.983-59.851,0-59.851,0v40.18H143.911z"/>
	<path fill="#E2A573" d="M143.911,224.527v-40.18c0,0-90.632,1.158-84.425,0c6.207-1.158-59.397,0-59.397,0v40.18H143.911z"/>
	<path fill="#E2A673" d="M143.911,225.027v-40.18c0,0-91.209,1.332-84.879,0c6.33-1.332-58.942,0-58.942,0v40.18H143.911z"/>
	<path fill="#E2A773" d="M143.911,225.526v-40.18c0,0-91.786,1.507-85.333,0c6.452-1.507-58.488,0-58.488,0v40.18H143.911z"/>
	<path fill="#E2A873" d="M143.911,226.026v-40.18c0,0-92.363,1.681-85.788,0c6.575-1.681-58.034,0-58.034,0v40.18H143.911z"/>
	<path fill="#E3A873" d="M143.911,226.525v-40.18c0,0-92.939,1.856-86.242,0c6.697-1.856-57.579,0-57.579,0v40.18H143.911z"/>
	<path fill="#E3A973" d="M143.911,227.025v-40.18c0,0-93.516,2.03-86.697,0c6.82-2.03-57.125,0-57.125,0v40.18H143.911z"/>
	<path fill="#E3AA73" d="M143.911,227.524v-40.18c0,0-94.093,2.205-87.151,0c6.942-2.205-56.67,0-56.67,0v40.18H143.911z"/>
	<path fill="#E3AB73" d="M143.911,228.024v-40.18c0,0-94.67,2.379-87.605,0c7.065-2.379-56.216,0-56.216,0v40.18H143.911z"/>
	<path fill="#E3AB73" d="M143.911,228.523v-40.18c0,0-95.247,2.554-88.06,0c7.187-2.554-55.762,0-55.762,0v40.18H143.911z"/>
	<path fill="#E4AC73" d="M143.911,229.023v-40.18c0,0-95.824,2.728-88.514,0c7.31-2.728-55.307,0-55.307,0v40.18H143.911z"/>
	<path fill="#E4AD73" d="M143.911,229.522v-40.18c0,0-96.401,2.903-88.969,0c7.432-2.903-54.853,0-54.853,0v40.18H143.911z"/>
	<path fill="#E4AD73" d="M143.911,230.022v-40.18c0,0-96.978,3.077-89.423,0c7.555-3.077-54.398,0-54.398,0v40.18H143.911z"/>
	<path fill="#E4AE73" d="M143.911,230.521v-40.18c0,0-97.555,3.252-89.877,0c7.677-3.252-53.944,0-53.944,0v40.18H143.911z"/>
	<path fill="#E4AF74" d="M143.911,231.021v-40.18c0,0-98.131,3.426-90.332,0c7.8-3.426-53.49,0-53.49,0v40.18H143.911z"/>
	<path fill="#E5B074" d="M143.911,231.52v-40.18c0,0-98.708,3.6-90.786,0c7.922-3.601-53.035,0-53.035,0v40.18H143.911z"/>
	<path fill="#E5B074" d="M143.911,232.02v-40.18c0,0-99.285,3.775-91.241,0c8.045-3.775-52.581,0-52.581,0v40.18H143.911z"/>
	<path fill="#E5B174" d="M143.911,232.519v-40.18c0,0-99.862,3.949-91.695,0c8.167-3.949-52.126,0-52.126,0v40.18H143.911z"/>
	<path fill="#E5B274" d="M143.911,233.019v-40.18c0,0-100.439,4.124-92.149,0c8.29-4.124-51.672,0-51.672,0v40.18H143.911z"/>
	<path fill="#E6B374" d="M143.911,233.518v-40.18c0,0-101.016,4.298-92.604,0c8.412-4.298-51.218,0-51.218,0v40.18H143.911z"/>
	<path fill="#E6B374" d="M143.911,234.018v-40.18c0,0-101.593,4.473-93.058,0c8.535-4.473-50.763,0-50.763,0v40.18H143.911z"/>
	<path fill="#E6B474" d="M143.911,234.517v-40.18c0,0-102.17,4.647-93.513,0c8.657-4.647-50.309,0-50.309,0l0,40.18H143.911z"/>
	<path fill="#E6B574" d="M143.911,235.017v-40.18c0,0-102.747,4.822-93.967,0c8.78-4.822-49.854,0-49.854,0l0,40.18H143.911z"/>
	<path fill="#E6B674" d="M143.911,235.517v-40.18c0,0-103.324,4.996-94.422,0c8.902-4.996-49.4,0-49.4,0l0,40.18H143.911z"/>
	<path fill="#E7B674" d="M143.911,236.016v-40.18c0,0-103.9,5.171-94.876,0s-48.945,0-48.945,0l0,40.18H143.911z"/>
	<path fill="#E7B774" d="M143.911,236.516v-40.18c0,0-104.477,5.345-95.33,0s-48.491,0-48.491,0l0,40.18H143.911z"/>
	<path fill="#E7B874" d="M143.911,237.015v-40.18c0,0-105.054,5.52-95.785,0s-48.037,0-48.037,0l0,40.18H143.911z"/>
	<path fill="#E7B974" d="M143.911,237.515v-40.18c0,0-105.631,5.694-96.239,0s-47.582,0-47.582,0l0,40.18H143.911z"/>
	<path fill="#E7B974" d="M143.911,238.014v-40.18c0,0-106.208,5.869-96.694,0s-47.128,0-47.128,0l0,40.18H143.911z"/>
	<path fill="#E8BA74" d="M143.911,238.514v-40.18c0,0-106.785,6.043-97.148,0s-46.673,0-46.673,0l0,40.18H143.911z"/>
	<path fill="#E8BB74" d="M143.911,239.013v-40.18c0,0-107.362,6.218-97.602,0s-46.219,0-46.219,0l0,40.18H143.911z"/>
	<path fill="#E8BC74" d="M143.911,239.513v-40.18c0,0-107.939,6.392-98.057,0c9.882-6.392-45.765,0-45.765,0l0,40.18H143.911z"/>
	<path fill="#E8BC74" d="M143.911,240.012v-40.18c0,0-108.516,6.566-98.511,0c10.004-6.566-45.31,0-45.31,0l0,40.18H143.911z"/>
	<path fill="#E8BD74" d="M143.911,240.512v-40.18c0,0-109.092,6.741-98.966,0c10.127-6.741-44.856,0-44.856,0l0,40.18H143.911z"/>
	<path fill="#E9BE74" d="M143.911,241.011v-40.18c0,0-109.669,6.915-99.42,0c10.249-6.915-44.401,0-44.401,0l0,40.18H143.911z"/>
	<path fill="#E9BF74" d="M143.911,241.511v-40.18c0,0-110.246,7.09-99.874,0c10.372-7.09-43.947,0-43.947,0l0,40.18H143.911z"/>
	<path fill="#E9BF75" d="M143.911,242.01v-40.18c0,0-110.823,7.264-100.329,0c10.494-7.264-43.493,0-43.493,0l0,40.18H143.911z"/>
	<path fill="#E9C075" d="M143.911,242.51v-40.18c0,0-111.4,7.439-100.783,0c10.617-7.439-43.038,0-43.038,0l0,40.18H143.911z"/>
	<path fill="#E9C175" d="M143.911,243.009v-40.18c0,0-111.977,7.613-101.238,0c10.739-7.613-42.584,0-42.584,0l0,40.18H143.911z"/>
	<path fill="#EAC175" d="M143.911,243.509v-40.18c0,0-112.554,7.788-101.692,0c10.862-7.788-42.129,0-42.129,0l0,40.18H143.911z"/>
	<path fill="#EAC275" d="M143.911,244.008v-40.18c0,0-113.131,7.962-102.146,0c10.984-7.962-41.675,0-41.675,0l0,40.18H143.911z"/>
	<path fill="#EAC375" d="M143.911,244.508v-40.18c0,0-113.708,8.137-102.601,0c11.107-8.137-41.221,0-41.221,0l0,40.18H143.911z"/>
	<path fill="#EAC475" d="M143.911,245.007v-40.18c0,0-114.285,8.311-103.055,0c11.229-8.311-40.766,0-40.766,0l0,40.18H143.911z"/>
	<path fill="#EAC475" d="M143.911,245.507v-40.18c0,0-114.861,8.486-103.51,0c11.352-8.486-40.312,0-40.312,0l0,40.18H143.911z"/>
	<path fill="#EBC575" d="M143.911,246.006v-40.18c0,0-115.438,8.66-103.964,0c11.474-8.66-39.857,0-39.857,0l0,40.18H143.911z"/>
	<path fill="#EBC675" d="M143.911,246.506v-40.18c0,0-116.015,8.835-104.418,0c11.597-8.835-39.403,0-39.403,0l0,40.18H143.911z"/>
	<path fill="#EBC775" d="M143.911,247.005v-40.18c0,0-116.592,9.009-104.873,0c11.719-9.009-38.949,0-38.949,0l0,40.18H143.911z"/>
	<path fill="#EBC775" d="M143.911,247.505v-40.18c0,0-117.169,9.184-105.327,0c11.842-9.184-38.494,0-38.494,0l0,40.18H143.911z"/>
	<path fill="#ECC875" d="M143.911,248.004v-40.18c0,0-117.746,9.358-105.782,0c11.964-9.358-38.04,0-38.04,0l0,40.18H143.911z"/>
	<path fill="#ECC975" d="M143.911,248.504v-40.18c0,0-118.323,9.532-106.236,0c12.087-9.532-37.585,0-37.585,0l0,40.18H143.911z"/>
	<path fill="#ECCA75" d="M143.911,249.003v-40.18c0,0-118.9,9.707-106.69,0c12.209-9.707-37.131,0-37.131,0l0,40.18H143.911z"/>
	<path fill="#ECCA75" d="M143.911,249.503v-40.18c0,0-119.477,9.881-107.145,0c12.332-9.881-36.677,0-36.677,0l0,40.18H143.911z"/>
	<path fill="#ECCB75" d="M143.911,250.002v-40.18c0,0-120.053,10.056-107.599,0c12.454-10.056-36.222,0-36.222,0l0,40.18H143.911z"
		/>
	<path fill="#EDCC75" d="M143.911,250.502v-40.18c0,0-120.63,10.23-108.054,0c12.577-10.23-35.768,0-35.768,0l0,40.18H143.911z"/>
	<path fill="#EDCC75" d="M143.911,251.001v-40.18c0,0-121.207,10.405-108.508,0c12.699-10.405-35.313,0-35.313,0l0,40.18H143.911z"
		/>
	<path fill="#EDCD75" d="M143.911,251.548v-40.18c0,0-121.784,10.579-108.962,0c12.822-10.579-34.859,0-34.859,0l0,40.18H143.911z"
		/>
	<path fill="#EDCE75" d="M143.911,252v-40.18c0,0-122.361,10.754-109.417,0s-34.405,0-34.405,0l0,40.18H143.911z"/>
</g>
</svg>
