<?xml version="1.0" encoding="utf-8"?>
<!-- Generator: Adobe Illustrator 17.0.0, SVG Export Plug-In . SVG Version: 6.00 Build 0)  -->
<!DOCTYPE svg PUBLIC "-//W3C//DTD SVG 1.1 Tiny//EN" "http://www.w3.org/Graphics/SVG/1.1/DTD/svg11-tiny.dtd">
<svg version="1.1" baseProfile="tiny" id="Layer_1" xmlns="http://www.w3.org/2000/svg" xmlns:xlink="http://www.w3.org/1999/xlink"
	 x="0px" y="0px" width="144px" height="252px" viewBox="0 0 144 252" xml:space="preserve">
<g>
	<path fill="#418FA3" d="M0,35.711L0,0L144,0v35.711c0,0-87.386-27.246-83.762,0C63.861,62.957,0,35.711,0,35.711z"/>
	<path fill="#428FA3" d="M0,35.947c0,0,0.151-35.802,0.259-35.552C0.358,0.625,144,0.468,144,0.468v35.711
		c0,0-87.753-27.069-84.154,0S0,35.947,0,35.947z"/>
	<path fill="#4390A2" d="M0,36.184c0,0,0.302-35.892,0.519-35.392C0.717,1.25,144,0.936,144,0.936v35.711
		c0,0-88.121-26.892-84.545,0C63.032,63.54,0,36.184,0,36.184z"/>
	<path fill="#4490A2" d="M0,36.42c0,0,0.454-35.983,0.778-35.232C1.076,1.875,144,1.404,144,1.404v35.711
		c0,0-88.489-26.715-84.936,0C62.617,63.831,0,36.42,0,36.42z"/>
	<path fill="#4590A1" d="M0,36.594c0,0,0.605-36.073,1.038-35.073C1.434,2.439,144,1.811,144,1.811v35.711
		c0,0-88.856-26.538-85.327,0S0,36.594,0,36.594z"/>
	<path fill="#4690A1" d="M0,36.817c0,0,0.756-36.163,1.297-34.913C1.793,3.05,144,2.266,144,2.266v35.711
		c0,0-89.224-26.361-85.718,0C61.788,64.338,0,36.817,0,36.817z"/>
	<path fill="#4790A0" d="M0,37.041c0,0,0.907-36.254,1.557-34.753C2.151,3.663,144,2.721,144,2.721v35.711
		c0,0-89.591-26.184-86.109,0C61.373,64.617,0,37.041,0,37.041z"/>
	<path fill="#4890A0" d="M0,37.266c0,0,1.059-36.344,1.816-34.594C2.51,4.277,144,3.178,144,3.178v35.711
		c0,0-89.959-26.008-86.501,0S0,37.266,0,37.266z"/>
	<path fill="#49909F" d="M0,37.492c0,0,1.21-36.435,2.076-34.434C2.869,4.892,144,3.636,144,3.636v35.711
		c0,0-90.327-25.831-86.892,0C60.544,65.177,0,37.492,0,37.492z"/>
	<path fill="#4A909F" d="M0,37.718c0,0,1.361-36.525,2.335-34.274C3.227,5.507,144,4.094,144,4.094v35.711
		c0,0-90.694-25.654-87.283,0C60.129,65.459,0,37.718,0,37.718z"/>
	<path fill="#4B919E" d="M0,37.945c0,0,1.512-36.616,2.594-34.115C3.586,6.123,144,4.553,144,4.553v35.711
		c0,0-91.062-25.477-87.674,0S0,37.945,0,37.945z"/>
	<path fill="#4C919E" d="M0,38.173c0,0,1.664-36.706,2.854-33.955C3.944,6.74,144,5.013,144,5.013v35.711c0,0-91.43-25.3-88.065,0
		S0,38.173,0,38.173z"/>
	<path fill="#4D919D" d="M0,38.402c0,0,1.815-36.797,3.113-33.795C4.303,7.357,144,5.474,144,5.474v35.711
		c0,0-91.797-25.123-88.456,0C58.885,66.308,0,38.402,0,38.402z"/>
	<path fill="#4E919D" d="M0,38.632c0,0,1.966-36.887,3.373-33.636C4.662,7.976,144,5.935,144,5.935v35.711
		c0,0-92.165-24.946-88.847,0C58.47,66.592,0,38.632,0,38.632z"/>
	<path fill="#4F919C" d="M0,38.862c0,0,2.117-36.978,3.632-33.476C5.02,8.595,144,6.397,144,6.397v35.711
		c0,0-92.533-24.769-89.239,0C58.056,66.877,0,38.862,0,38.862z"/>
	<path fill="#50919C" d="M0,39.092c0,0,2.269-37.068,3.892-33.316C5.379,9.214,144,6.86,144,6.86v35.711c0,0-92.9-24.592-89.63,0
		S0,39.092,0,39.092z"/>
	<path fill="#51919B" d="M0,39.324c0,0,2.42-37.158,4.151-33.157C5.737,9.835,144,7.323,144,7.323v35.711
		c0,0-93.268-24.415-90.021,0C57.226,67.449,0,39.324,0,39.324z"/>
	<path fill="#51929A" d="M0,39.556c0,0,2.571-37.249,4.411-32.997C6.096,10.456,144,7.787,144,7.787v35.711
		c0,0-93.635-24.238-90.412,0C56.812,67.736,0,39.556,0,39.556z"/>
	<path fill="#52929A" d="M0,39.789c0,0,2.722-37.339,4.67-32.837C6.455,11.077,144,8.252,144,8.252v35.711
		c0,0-94.003-24.061-90.803,0S0,39.789,0,39.789z"/>
	<path fill="#539299" d="M0,40.022c0,0,2.874-37.43,4.929-32.678C6.813,11.699,144,8.717,144,8.717v35.711
		c0,0-94.371-23.884-91.194,0C55.982,68.312,0,40.022,0,40.022z"/>
	<path fill="#549299" d="M0,40.256c0,0,3.025-37.52,5.189-32.518C7.172,12.322,144,9.182,144,9.182v35.711
		c0,0-94.738-23.708-91.586,0C55.567,68.601,0,40.256,0,40.256z"/>
	<path fill="#559298" d="M0,40.49c0,0,3.176-37.611,5.448-32.358C7.531,12.945,144,9.649,144,9.649V45.36
		c0,0-95.106-23.531-91.977,0S0,40.49,0,40.49z"/>
	<path fill="#559298" d="M0,40.725c0,0,3.327-37.701,5.708-32.199C7.889,13.569,144,10.115,144,10.115v35.711
		c0,0-95.474-23.354-92.368,0C54.738,69.18,0,40.725,0,40.725z"/>
	<path fill="#569297" d="M0,40.961c0,0,3.479-37.792,5.967-32.039C8.248,14.193,144,10.583,144,10.583v35.711
		c0,0-95.841-23.177-92.759,0C54.323,69.471,0,40.961,0,40.961z"/>
	<path fill="#579297" d="M0,41.196c0,0,3.63-37.882,6.227-31.879C8.606,14.818,144,11.051,144,11.051v35.711c0,0-96.209-23-93.15,0
		S0,41.196,0,41.196z"/>
	<path fill="#589396" d="M0,41.433c0,0,3.781-37.973,6.486-31.72C8.965,15.444,144,11.519,144,11.519V47.23
		c0,0-96.576-22.823-93.541,0C53.494,70.053,0,41.433,0,41.433z"/>
	<path fill="#599396" d="M0,41.67c0,0,3.932-38.063,6.746-31.56C9.324,16.069,144,11.988,144,11.988v35.711
		c0,0-96.944-22.646-93.933,0C53.079,70.345,0,41.67,0,41.67z"/>
	<path fill="#5A9395" d="M0,41.907c0,0,4.084-38.153,7.005-31.4C9.682,16.695,144,12.457,144,12.457v35.711
		c0,0-97.312-22.469-94.324,0S0,41.907,0,41.907z"/>
	<path fill="#5A9395" d="M0,42.145c0,0,4.235-38.244,7.264-31.241C10.041,17.322,144,12.927,144,12.927v35.711
		c0,0-97.679-22.292-94.715,0S0,42.145,0,42.145z"/>
	<path fill="#5B9394" d="M0,42.383c0,0,4.386-38.334,7.524-31.081C10.399,17.949,144,13.397,144,13.397v35.711
		c0,0-98.047-22.115-95.106,0S0,42.383,0,42.383z"/>
	<path fill="#5C9394" d="M0,42.622c0,0,4.537-38.425,7.783-30.922C10.758,18.577,144,13.867,144,13.867v35.711
		c0,0-98.415-21.938-95.497,0C51.421,71.517,0,42.622,0,42.622z"/>
	<path fill="#5D9393" d="M0,42.86c0,0,4.689-38.515,8.043-30.762C11.117,19.204,144,14.338,144,14.338v35.711
		c0,0-98.782-21.761-95.888,0C51.006,71.81,0,42.86,0,42.86z"/>
	<path fill="#5D9493" d="M0,43.1c0,0,4.84-38.606,8.302-30.602C11.475,19.833,144,14.809,144,14.809V50.52
		c0,0-99.15-21.585-96.279,0S0,43.1,0,43.1z"/>
	<path fill="#5E9492" d="M0,43.339c0,0,4.991-38.696,8.562-30.443C11.834,20.461,144,15.281,144,15.281v35.711
		c0,0-99.517-21.408-96.671,0C50.177,72.399,0,43.339,0,43.339z"/>
	<path fill="#5F9492" d="M0,43.579c0,0,5.142-38.787,8.821-30.283C12.192,21.09,144,15.753,144,15.753v35.711
		c0,0-99.885-21.231-97.062,0C49.762,72.694,0,43.579,0,43.579z"/>
	<path fill="#609491" d="M0,43.82c0,0,5.294-38.877,9.081-30.123C12.551,21.719,144,16.225,144,16.225v35.711
		c0,0-100.253-21.054-97.453,0S0,43.82,0,43.82z"/>
	<path fill="#609491" d="M0,44.06c0,0,5.445-38.968,9.34-29.964c3.57,8.252,134.661,2.6,134.661,2.6v35.711
		c0,0-100.62-20.877-97.844,0C48.933,73.285,0,44.06,0,44.06z"/>
	<path fill="#619490" d="M0,44.301c0,0,5.596-39.058,9.599-29.804C13.268,22.979,144,17.17,144,17.17v35.711
		c0,0-100.988-20.7-98.235,0C48.518,73.581,0,44.301,0,44.301z"/>
	<path fill="#62948F" d="M0,44.543c0,0,5.747-39.148,9.859-29.644C13.627,23.609,144,17.643,144,17.643v35.711
		c0,0-101.356-20.523-98.626,0S0,44.543,0,44.543z"/>
	<path fill="#63958F" d="M0,44.784c0,0,5.899-39.239,10.118-29.485C13.985,24.239,144,18.117,144,18.117v35.711
		c0,0-101.723-20.346-99.018,0C47.688,74.174,0,44.784,0,44.784z"/>
	<path fill="#63958E" d="M0,45.026c0,0,6.05-39.329,10.378-29.325C14.344,24.87,144,18.59,144,18.59v35.711
		c0,0-102.091-20.169-99.409,0C47.274,74.471,0,45.026,0,45.026z"/>
	<path fill="#64958E" d="M0,45.268c0,0,6.201-39.42,10.637-29.165C14.703,25.501,144,19.064,144,19.064v35.711
		c0,0-102.458-19.992-99.8,0S0,45.268,0,45.268z"/>
	<path fill="#65958D" d="M0,45.51c0,0,6.352-39.51,10.897-29.006C15.061,26.132,144,19.538,144,19.538V55.25
		c0,0-102.826-19.815-100.191,0S0,45.51,0,45.51z"/>
	<path fill="#65958D" d="M0,45.753c0,0,6.504-39.601,11.156-28.846C15.42,26.763,144,20.013,144,20.013v35.711
		c0,0-103.194-19.638-100.582,0C46.03,75.362,0,45.753,0,45.753z"/>
	<path fill="#66958C" d="M0,45.995c0,0,6.655-39.691,11.416-28.686C15.778,27.395,144,20.487,144,20.487v35.711
		c0,0-103.561-19.461-100.973,0S0,45.995,0,45.995z"/>
	<path fill="#67958C" d="M0,46.238c0,0,6.806-39.782,11.675-28.527C16.137,28.026,144,20.962,144,20.962v35.711
		c0,0-103.929-19.285-101.364,0C45.2,75.958,0,46.238,0,46.238z"/>
	<path fill="#68968B" d="M0,46.481c0,0,6.957-39.872,11.934-28.367C16.496,28.658,144,21.437,144,21.437v35.711
		c0,0-104.297-19.108-101.756,0S0,46.481,0,46.481z"/>
	<path fill="#68968B" d="M0,46.725c0,0,7.109-39.963,12.194-28.207C16.854,29.29,144,21.912,144,21.912v35.711
		c0,0-104.664-18.931-102.147,0C44.371,76.554,0,46.725,0,46.725z"/>
	<path fill="#69968A" d="M0,46.968c0,0,7.26-40.053,12.453-28.048C17.213,29.923,144,22.388,144,22.388v35.711
		c0,0-105.032-18.754-102.538,0C43.956,76.852,0,46.968,0,46.968z"/>
	<path fill="#6A968A" d="M0,47.212c0,0,7.411-40.144,12.713-27.888C17.571,30.555,144,22.863,144,22.863v35.711
		c0,0-105.4-18.577-102.929,0S0,47.212,0,47.212z"/>
	<path fill="#6A9689" d="M0,47.455c0,0,7.562-40.234,12.972-27.728C17.93,31.188,144,23.339,144,23.339V59.05
		c0,0-105.767-18.4-103.32,0C43.127,77.45,0,47.455,0,47.455z"/>
	<path fill="#6B9689" d="M0,47.699c0,0,7.714-40.324,13.232-27.569C18.289,31.821,144,23.814,144,23.814v35.711
		c0,0-106.135-18.223-103.711,0C42.712,77.749,0,47.699,0,47.699z"/>
	<path fill="#6C9688" d="M0,47.943c0,0,7.865-40.415,13.491-27.409C18.647,32.453,144,24.29,144,24.29v35.711
		c0,0-106.502-18.046-104.103,0S0,47.943,0,47.943z"/>
	<path fill="#6C9688" d="M0,48.233c0,0,8.016-40.505,13.751-27.249C19.006,33.133,144,24.812,144,24.812v35.711
		c0,0-106.87-17.869-104.494,0C41.883,78.393,0,48.233,0,48.233z"/>
	<path fill="#6D9787" d="M0,48.47c0,0,8.167-40.596,14.01-27.09C19.364,33.758,144,25.281,144,25.281v35.711
		c0,0-107.238-17.692-104.885,0C41.468,78.684,0,48.47,0,48.47z"/>
	<path fill="#6E9786" d="M0,48.706c0,0,8.319-40.686,14.269-26.93C19.723,34.383,144,25.749,144,25.749V61.46
		c0,0-107.605-17.515-105.276,0S0,48.706,0,48.706z"/>
	<path fill="#6E9786" d="M0,48.942c0,0,8.47-40.777,14.529-26.77C20.082,35.008,144,26.217,144,26.217v35.711
		c0,0-107.973-17.338-105.667,0C40.639,79.266,0,48.942,0,48.942z"/>
	<path fill="#6F9785" d="M0,49.178c0,0,8.621-40.867,14.788-26.611C20.44,35.633,144,26.685,144,26.685v35.711
		c0,0-108.341-17.161-106.058,0C40.224,79.558,0,49.178,0,49.178z"/>
	<path fill="#709785" d="M0,49.415c0,0,8.772-40.958,15.048-26.451C20.799,36.258,144,27.153,144,27.153v35.711
		c0,0-108.708-16.985-106.45,0S0,49.415,0,49.415z"/>
	<path fill="#709784" d="M0,49.651c0,0,8.924-41.048,15.307-26.291C21.157,36.883,144,27.621,144,27.621v35.711
		c0,0-109.076-16.808-106.841,0S0,49.651,0,49.651z"/>
	<path fill="#719784" d="M0,49.887c0,0,9.075-41.139,15.567-26.132C21.516,37.509,144,28.089,144,28.089v35.711
		c0,0-109.443-16.631-107.232,0C38.98,80.431,0,49.887,0,49.887z"/>
	<path fill="#729883" d="M0,50.123c0,0,9.226-41.229,15.826-25.972C21.875,38.134,144,28.558,144,28.558v35.711
		c0,0-109.811-16.454-107.623,0S0,50.123,0,50.123z"/>
	<path fill="#729883" d="M0,50.36c0,0,9.377-41.319,16.086-25.813C22.233,38.759,144,29.026,144,29.026v35.711
		c0,0-110.179-16.277-108.014,0C38.151,81.014,0,50.36,0,50.36z"/>
	<path fill="#739882" d="M0,50.596c0,0,9.529-41.41,16.345-25.653C22.592,39.384,144,29.494,144,29.494v35.711
		c0,0-110.546-16.1-108.405,0S0,50.596,0,50.596z"/>
	<path fill="#749882" d="M0,50.832c0,0,9.68-41.5,16.604-25.493C22.95,40.009,144,29.962,144,29.962v35.711
		c0,0-110.914-15.923-108.796,0C37.321,81.596,0,50.832,0,50.832z"/>
	<path fill="#749881" d="M0,51.122c0,0,9.831-41.591,16.864-25.334C23.309,40.688,144,30.484,144,30.484v35.711
		c0,0-111.282-15.746-109.188,0C36.907,81.941,0,51.122,0,51.122z"/>
	<path fill="#759881" d="M0,51.367c0,0,9.982-41.681,17.123-25.174C23.668,41.321,144,30.96,144,30.96v35.711
		c0,0-111.649-15.569-109.579,0S0,51.367,0,51.367z"/>
	<path fill="#759880" d="M0,51.611c0,0,10.134-41.772,17.383-25.014C24.026,41.955,144,31.437,144,31.437v35.711
		c0,0-112.017-15.392-109.97,0S0,51.611,0,51.611z"/>
	<path fill="#769980" d="M0,51.856c0,0,10.285-41.862,17.642-24.855C24.385,42.588,144,31.913,144,31.913v35.711
		c0,0-112.384-15.215-110.361,0S0,51.856,0,51.856z"/>
	<path fill="#77997F" d="M0,52.101c0,0,10.436-41.953,17.902-24.695C24.743,43.222,144,32.39,144,32.39v35.711
		c0,0-112.752-15.038-110.752,0S0,52.101,0,52.101z"/>
	<path fill="#77997F" d="M0,52.345c0,0,10.587-42.043,18.161-24.535C25.102,43.855,144,32.866,144,32.866v35.711
		c0,0-113.12-14.861-111.143,0S0,52.345,0,52.345z"/>
	<path fill="#78997E" d="M0,52.59c0,0,10.739-42.134,18.421-24.376C25.461,44.489,144,33.343,144,33.343v35.711
		c0,0-113.487-14.685-111.535,0C34.419,83.739,0,52.59,0,52.59z"/>
	<path fill="#79997E" d="M0,52.834c0,0,10.89-42.224,18.68-24.216C25.819,45.122,144,33.819,144,33.819v35.711
		c0,0-113.855-14.508-111.926,0S0,52.834,0,52.834z"/>
	<path fill="#79997D" d="M0,53.079c0,0,11.041-42.314,18.939-24.056C26.178,45.756,144,34.296,144,34.296v35.711
		c0,0-114.223-14.331-112.317,0C33.589,84.338,0,53.079,0,53.079z"/>
	<path fill="#7A997C" d="M0,53.323c0,0,11.192-42.405,19.199-23.897C26.536,46.389,144,34.772,144,34.772v35.711
		c0,0-114.59-14.154-112.708,0S0,53.323,0,53.323z"/>
	<path fill="#7A9A7C" d="M0,53.568c0,0,11.343-42.495,19.458-23.737C26.895,47.022,144,35.248,144,35.248v35.711
		c0,0-114.958-13.977-113.099,0C32.76,84.936,0,53.568,0,53.568z"/>
	<path fill="#7B9A7B" d="M0,53.812c0,0,11.495-42.586,19.718-23.577C27.254,47.655,144,35.724,144,35.724v35.711
		c0,0-115.325-13.8-113.49,0C32.345,85.236,0,53.812,0,53.812z"/>
	<path fill="#7C9A7B" d="M0,54.056c0,0,11.646-42.676,19.977-23.418C27.612,48.288,144,36.2,144,36.2v35.711
		c0,0-115.693-13.623-113.881,0C31.931,85.535,0,54.056,0,54.056z"/>
	<path fill="#7C9A7A" d="M0,54.3c0,0,11.797-42.767,20.237-23.258C27.971,48.921,144,36.676,144,36.676v35.711
		c0,0-116.061-13.446-114.273,0S0,54.3,0,54.3z"/>
	<path fill="#7D9A7A" d="M0,54.544c0,0,11.948-42.857,20.496-23.098C28.33,49.554,144,37.152,144,37.152v35.711
		c0,0-116.428-13.269-114.664,0S0,54.544,0,54.544z"/>
	<path fill="#7D9A79" d="M0,54.788c0,0,12.1-42.948,20.756-22.939C28.688,50.187,144,37.628,144,37.628v35.711
		c0,0-116.796-13.092-115.055,0C30.686,86.431,0,54.788,0,54.788z"/>
	<path fill="#7E9B79" d="M0,55.032c0,0,12.251-43.038,21.015-22.779C29.047,50.819,144,38.104,144,38.104v35.711
		c0,0-117.164-12.915-115.446,0S0,55.032,0,55.032z"/>
	<path fill="#7F9B78" d="M0,55.275c0,0,12.402-43.129,21.274-22.619C29.405,51.452,144,38.579,144,38.579V74.29
		c0,0-117.531-12.738-115.837,0C29.857,87.029,0,55.275,0,55.275z"/>
	<path fill="#7F9B78" d="M0,55.519c0,0,12.553-43.219,21.534-22.46C29.764,52.084,144,39.054,144,39.054v35.711
		c0,0-117.899-12.561-116.228,0S0,55.519,0,55.519z"/>
	<path fill="#809B77" d="M0,55.762c0,0,12.705-43.309,21.793-22.3C30.123,52.716,144,39.53,144,39.53v35.711
		c0,0-118.267-12.385-116.62,0C29.028,87.625,0,55.762,0,55.762z"/>
	<path fill="#809B76" d="M0,56.005c0,0,12.856-43.4,22.053-22.14C30.481,53.348,144,40.005,144,40.005v35.711
		c0,0-118.634-12.208-117.011,0S0,56.005,0,56.005z"/>
	<path fill="#819B76" d="M0,56.248c0,0,13.007-43.49,22.312-21.981C30.84,53.98,144,40.48,144,40.48v35.711
		c0,0-119.002-12.031-117.402,0S0,56.248,0,56.248z"/>
	<path fill="#819B75" d="M0,56.491c0,0,13.158-43.581,22.572-21.821C31.198,54.612,144,40.954,144,40.954v35.711
		c0,0-119.369-11.854-117.793,0C27.784,88.519,0,56.491,0,56.491z"/>
	<path fill="#829C75" d="M0,56.734c0,0,13.31-43.671,22.831-21.661C31.557,55.244,144,41.429,144,41.429V77.14
		c0,0-119.737-11.677-118.184,0S0,56.734,0,56.734z"/>
	<path fill="#839C74" d="M0,56.976c0,0,13.461-43.762,23.091-21.502C31.916,55.875,144,41.903,144,41.903v35.711
		c0,0-120.105-11.5-118.575,0S0,56.976,0,56.976z"/>
	<path fill="#839C74" d="M0,57.219c0,0,13.612-43.852,23.35-21.342C32.274,56.506,144,42.378,144,42.378v35.711
		c0,0-120.472-11.323-118.967,0S0,57.219,0,57.219z"/>
	<path fill="#849C73" d="M0,57.461c0,0,13.763-43.943,23.609-21.183C32.633,57.137,144,42.852,144,42.852v35.711
		c0,0-120.84-11.146-119.358,0C26.125,89.709,0,57.461,0,57.461z"/>
	<path fill="#849C72" d="M0,57.703c0,0,13.915-44.033,23.869-21.023C32.991,57.768,144,43.326,144,43.326v35.711
		c0,0-121.208-10.969-119.749,0C25.71,90.006,0,57.703,0,57.703z"/>
	<path fill="#859C72" d="M0,57.945c0,0,14.066-44.124,24.128-20.863C33.35,58.399,144,43.799,144,43.799v35.711
		c0,0-121.575-10.792-120.14,0S0,57.945,0,57.945z"/>
	<path fill="#869D71" d="M0,58.186c0,0,14.217-44.214,24.388-20.704C33.709,59.029,144,44.273,144,44.273v35.711
		c0,0-121.943-10.615-120.531,0C24.881,90.599,0,58.186,0,58.186z"/>
	<path fill="#869D71" d="M0,58.428c0,0,14.368-44.304,24.647-20.544C34.067,59.66,144,44.746,144,44.746v35.711
		c0,0-122.31-10.438-120.922,0S0,58.428,0,58.428z"/>
	<path fill="#879D70" d="M0,58.669c0,0,14.52-44.395,24.907-20.384C34.426,60.29,144,45.219,144,45.219V80.93
		c0,0-122.678-10.261-121.313,0S0,58.669,0,58.669z"/>
	<path fill="#879D6F" d="M0,58.91c0,0,14.671-44.485,25.166-20.225C34.784,60.919,144,45.692,144,45.692v35.711
		c0,0-123.046-10.085-121.705,0C23.637,91.488,0,58.91,0,58.91z"/>
	<path fill="#889D6F" d="M0,59.15c0,0,14.822-44.576,25.426-20.065C35.143,61.549,144,46.165,144,46.165v35.711
		c0,0-123.413-9.908-122.096,0C23.222,91.783,0,59.15,0,59.15z"/>
	<path fill="#899D6E" d="M0,59.391c0,0,14.973-44.666,25.685-19.905C35.502,62.178,144,46.637,144,46.637v35.711
		c0,0-123.781-9.731-122.487,0C22.807,92.079,0,59.391,0,59.391z"/>
	<path fill="#899D6E" d="M0,59.631c0,0,15.125-44.757,25.944-19.746C35.86,62.807,144,47.109,144,47.109V82.82
		c0,0-124.149-9.554-122.878,0S0,59.631,0,59.631z"/>
	<path fill="#8A9E6D" d="M0,59.871c0,0,15.276-44.847,26.204-19.586C36.219,63.436,144,47.581,144,47.581v35.711
		c0,0-124.516-9.377-123.269,0C21.978,92.669,0,59.871,0,59.871z"/>
	<path fill="#8A9E6C" d="M0,60.111c0,0,15.427-44.938,26.463-19.426C36.577,64.065,144,48.053,144,48.053v35.711
		c0,0-124.884-9.2-123.66,0S0,60.111,0,60.111z"/>
	<path fill="#8B9E6C" d="M0,60.35c0,0,15.578-45.028,26.723-19.267C36.936,64.693,144,48.524,144,48.524v35.711
		c0,0-125.251-9.023-124.052,0S0,60.35,0,60.35z"/>
	<path fill="#8B9E6B" d="M0,60.59c0,0,15.73-45.119,26.982-19.107C37.295,65.321,144,48.995,144,48.995v35.711
		c0,0-125.619-8.846-124.443,0C20.734,93.552,0,60.59,0,60.59z"/>
	<path fill="#8C9E6A" d="M0,60.828c0,0,15.881-45.209,27.242-18.947C37.653,65.949,144,49.466,144,49.466v35.711
		c0,0-125.987-8.669-124.834,0S0,60.828,0,60.828z"/>
	<path fill="#8D9E6A" d="M0,61.067c0,0,16.032-45.299,27.501-18.788C38.012,66.577,144,49.936,144,49.936v35.711
		c0,0-126.354-8.492-125.225,0C19.905,94.14,0,61.067,0,61.067z"/>
	<path fill="#8D9F69" d="M0,61.306c0,0,16.183-45.39,27.761-18.628C38.37,67.204,144,50.407,144,50.407v35.711
		c0,0-126.722-8.315-125.616,0S0,61.306,0,61.306z"/>
	<path fill="#8E9F68" d="M0,61.544c0,0,16.335-45.48,28.02-18.468C38.729,67.831,144,50.877,144,50.877v35.711
		c0,0-127.09-8.138-126.007,0C19.075,94.726,0,61.544,0,61.544z"/>
	<path fill="#8E9F68" d="M0,61.781c0,0,16.486-45.571,28.279-18.309C39.088,68.458,144,51.346,144,51.346v35.711
		c0,0-127.457-7.962-126.398,0S0,61.781,0,61.781z"/>
	<path fill="#8F9F67" d="M0,62.019c0,0,16.637-45.661,28.539-18.149C39.446,69.084,144,51.816,144,51.816v35.711
		c0,0-127.825-7.785-126.79,0S0,62.019,0,62.019z"/>
	<path fill="#909F66" d="M0,62.256c0,0,16.788-45.752,28.798-17.989C39.805,69.71,144,52.285,144,52.285v35.711
		c0,0-128.192-7.608-127.181,0C17.831,95.604,0,62.256,0,62.256z"/>
	<path fill="#909F66" d="M0,62.493c0,0,16.94-45.842,29.058-17.83C40.163,70.336,144,52.754,144,52.754v35.711
		c0,0-128.56-7.431-127.572,0C17.417,95.896,0,62.493,0,62.493z"/>
	<path fill="#919F65" d="M0,62.73c0,0,17.091-45.933,29.317-17.67C40.522,70.961,144,53.222,144,53.222v35.711
		c0,0-128.928-7.254-127.963,0C17.002,96.187,0,62.73,0,62.73z"/>
	<path fill="#91A064" d="M0,62.966c0,0,17.242-46.023,29.577-17.51C40.881,71.586,144,53.69,144,53.69v35.711
		c0,0-129.295-7.077-128.354,0C16.587,96.478,0,62.966,0,62.966z"/>
	<path fill="#92A063" d="M0,63.202c0,0,17.393-46.114,29.836-17.351C41.239,72.211,144,54.158,144,54.158v35.711
		c0,0-129.663-6.9-128.745,0C16.173,96.769,0,63.202,0,63.202z"/>
	<path fill="#92A063" d="M0,63.438c0,0,17.545-46.204,30.096-17.191C41.598,72.836,144,54.626,144,54.626v35.711
		c0,0-130.031-6.723-129.137,0S0,63.438,0,63.438z"/>
	<path fill="#93A062" d="M0,63.673c0,0,17.696-46.294,30.355-17.031C41.956,73.46,144,55.093,144,55.093v35.711
		c0,0-130.398-6.546-129.528,0S0,63.673,0,63.673z"/>
	<path fill="#94A061" d="M0,63.908c0,0,17.847-46.385,30.614-16.872C42.315,74.084,144,55.56,144,55.56v35.711
		c0,0-130.766-6.369-129.919,0C14.928,97.64,0,63.908,0,63.908z"/>
	<path fill="#94A061" d="M0,64.142c0,0,17.998-46.475,30.874-16.712C42.674,74.707,144,56.026,144,56.026v35.711
		c0,0-131.134-6.192-130.31,0C14.514,97.93,0,64.142,0,64.142z"/>
	<path fill="#95A160" d="M0,64.377c0,0,18.15-46.566,31.133-16.552C43.032,75.33,144,56.492,144,56.492v35.711
		c0,0-131.501-6.015-130.701,0C14.099,98.219,0,64.377,0,64.377z"/>
	<path fill="#95A15F" d="M0,64.61c0,0,18.301-46.656,31.393-16.393C43.391,75.953,144,56.958,144,56.958v35.711
		c0,0-131.869-5.838-131.092,0C13.684,98.508,0,64.61,0,64.61z"/>
	<path fill="#96A15E" d="M0,64.844c0,0,18.452-46.747,31.652-16.233C43.749,76.576,144,57.424,144,57.424v35.711
		c0,0-132.236-5.662-131.484,0C13.27,98.796,0,64.844,0,64.844z"/>
	<path fill="#96A15E" d="M0,65.077c0,0,18.603-46.837,31.912-16.074C44.108,77.198,144,57.889,144,57.889V93.6
		c0,0-132.604-5.485-131.875,0S0,65.077,0,65.077z"/>
	<path fill="#97A15D" d="M0,65.31c0,0,18.755-46.928,32.171-15.914C44.467,77.819,144,58.353,144,58.353v35.711
		c0,0-132.972-5.308-132.266,0C12.44,99.372,0,65.31,0,65.31z"/>
	<path fill="#98A15C" d="M0,65.542c0,0,18.906-47.018,32.431-15.754C44.825,78.441,144,58.818,144,58.818v35.711
		c0,0-133.339-5.131-132.657,0S0,65.542,0,65.542z"/>
	<path fill="#98A25C" d="M0,65.774c0,0,19.057-47.109,32.69-15.595C45.184,79.061,144,59.282,144,59.282v35.711
		c0,0-133.707-4.954-133.048,0C11.611,99.947,0,65.774,0,65.774z"/>
	<path fill="#99A25B" d="M0,66.006c0,0,19.208-47.199,32.949-15.435C45.542,79.682,144,59.745,144,59.745v35.711
		c0,0-134.075-4.777-133.439,0C11.196,100.233,0,66.006,0,66.006z"/>
	<path fill="#99A25A" d="M0,66.237c0,0,19.36-47.289,33.209-15.275C45.901,80.302,144,60.208,144,60.208v35.711
		c0,0-134.442-4.6-133.83,0S0,66.237,0,66.237z"/>
	<path fill="#9AA259" d="M0,66.468c0,0,19.511-47.38,33.468-15.116C46.26,80.922,144,60.671,144,60.671v35.711
		c0,0-134.81-4.423-134.222,0C10.367,100.805,0,66.468,0,66.468z"/>
	<path fill="#9AA259" d="M0,66.699c0,0,19.662-47.47,33.728-14.956C46.618,81.541,144,61.133,144,61.133v35.711
		c0,0-135.177-4.246-134.613,0S0,66.699,0,66.699z"/>
	<path fill="#9BA258" d="M0,66.929c0,0,19.813-47.561,33.987-14.796C46.977,82.16,144,61.595,144,61.595v35.711
		c0,0-135.545-4.069-135.004,0C9.538,101.376,0,66.929,0,66.929z"/>
	<path fill="#9BA357" d="M0,67.158c0,0,19.965-47.651,34.247-14.637C47.336,82.779,144,62.057,144,62.057v35.711
		c0,0-135.913-3.892-135.395,0C9.123,101.66,0,67.158,0,67.158z"/>
	<path fill="#9CA356" d="M0,67.388c0,0,20.116-47.742,34.506-14.477C47.694,83.397,144,62.518,144,62.518v35.711
		c0,0-136.28-3.715-135.786,0C8.708,101.944,0,67.388,0,67.388z"/>
	<path fill="#9DA356" d="M0,67.616c0,0,20.267-47.832,34.766-14.317C48.053,84.014,144,62.979,144,62.979V98.69
		c0,0-136.648-3.538-136.177,0C8.294,102.228,0,67.616,0,67.616z"/>
	<path fill="#9DA355" d="M0,67.845c0,0,20.418-47.923,35.025-14.158C48.411,84.632,144,63.439,144,63.439V99.15
		c0,0-137.016-3.362-136.569,0C7.879,102.512,0,67.845,0,67.845z"/>
	<path fill="#9EA354" d="M0,68.073c0,0,20.57-48.013,35.284-13.998C48.77,85.249,144,63.899,144,63.899V99.61
		c0,0-137.383-3.185-136.96,0S0,68.073,0,68.073z"/>
	<path fill="#9EA353" d="M0,68.3c0,0,20.721-48.104,35.544-13.838C49.129,85.865,144,64.358,144,64.358v35.711
		c0,0-137.751-3.008-137.351,0C7.049,103.077,0,68.3,0,68.3z"/>
	<path fill="#9FA452" d="M0,68.527c0,0,20.872-48.194,35.803-13.679C49.487,86.481,144,64.817,144,64.817v35.711
		c0,0-138.118-2.831-137.742,0S0,68.527,0,68.527z"/>
	<path fill="#9FA452" d="M0,68.754c0,0,21.023-48.285,36.063-13.519C49.846,87.096,144,65.276,144,65.276v35.711
		c0,0-138.486-2.654-138.133,0C6.22,103.641,0,68.754,0,68.754z"/>
	<path fill="#A0A451" d="M0,68.98c0,0,21.175-48.375,36.322-13.359C50.204,87.711,144,65.734,144,65.734v35.711
		c0,0-138.854-2.477-138.524,0C5.805,103.922,0,68.98,0,68.98z"/>
	<path fill="#A0A450" d="M0,69.206c0,0,21.326-48.465,36.582-13.2C50.563,88.326,144,66.191,144,66.191v35.711
		c0,0-139.221-2.3-138.915,0S0,69.206,0,69.206z"/>
	<path fill="#A1A44F" d="M0,69.431c0,0,21.477-48.556,36.841-13.04C50.922,88.94,144,66.648,144,66.648v35.711
		c0,0-139.589-2.123-139.307,0C4.976,104.483,0,69.431,0,69.431z"/>
	<path fill="#A2A44F" d="M0,69.656c0,0,21.628-48.646,37.101-12.88C51.28,89.554,144,67.105,144,67.105v35.711
		c0,0-139.957-1.946-139.698,0S0,69.656,0,69.656z"/>
	<path fill="#A2A54E" d="M0,69.88c0,0,21.78-48.737,37.36-12.721C51.639,90.167,144,67.561,144,67.561v35.711
		c0,0-140.324-1.769-140.089,0C4.147,105.042,0,69.88,0,69.88z"/>
	<path fill="#A3A54D" d="M0,70.104c0,0,21.931-48.827,37.619-12.561C51.997,90.78,144,68.017,144,68.017v35.711
		c0,0-140.692-1.592-140.48,0C3.732,105.32,0,70.104,0,70.104z"/>
	<path fill="#A3A54C" d="M0,70.327c0,0,22.082-48.918,37.879-12.401C52.356,91.392,144,68.472,144,68.472v35.711
		c0,0-141.059-1.415-140.871,0C3.317,105.599,0,70.327,0,70.327z"/>
	<path fill="#A4A54B" d="M0,70.55c0,0,22.233-49.008,38.138-12.242C52.715,92.004,144,68.927,144,68.927v35.711
		c0,0-141.427-1.238-141.262,0C2.903,105.877,0,70.55,0,70.55z"/>
	<path fill="#A4A54B" d="M0,70.773c0,0,22.384-49.099,38.398-12.082C53.073,92.615,144,69.381,144,69.381v35.711
		c0,0-141.795-1.062-141.654,0C2.488,106.154,0,70.773,0,70.773z"/>
	<path fill="#A5A54A" d="M0,70.995c0,0,22.536-49.189,38.657-11.922C53.432,93.226,144,69.835,144,69.835v35.711
		c0,0-142.162-0.885-142.045,0C2.073,106.431,0,70.995,0,70.995z"/>
	<path fill="#A5A649" d="M0,71.216c0,0,22.687-49.28,38.917-11.763C53.79,93.836,144,70.288,144,70.288v35.711
		c0,0-142.53-0.708-142.436,0C1.659,106.707,0,71.216,0,71.216z"/>
	<path fill="#A6A648" d="M0,71.387c0,0,22.838-49.37,39.176-11.603C54.149,94.396,144,70.692,144,70.692v35.711
		c0,0-142.898-0.531-142.827,0S0,71.387,0,71.387z"/>
	<path fill="#A7A648" d="M0,71.624c0,0,22.989-49.46,39.436-11.444C54.508,95.022,144,71.16,144,71.16v35.711
		c0,0-143.265-0.354-143.218,0S0,71.624,0,71.624z"/>
	<path fill="#A7A647" d="M0,71.86c0,0,23.141-49.551,39.695-11.284C54.866,95.647,144,71.628,144,71.628v35.711
		c0,0-143.633-0.177-143.609,0C0.415,107.516,0,71.86,0,71.86z"/>
	<path fill="#A8A646" d="M0,107.807l0-35.711c0,0,23.292-49.641,39.954-11.124C55.225,96.272,144,72.096,144,72.096v35.711H0z"/>
	<path fill="#A7A547" d="M0,108.38l0-35.711c0,0,24.085-49.559,40.547-11.036C55.627,96.964,144,72.668,144,72.668v35.711H0z"/>
	<path fill="#A6A547" d="M0,108.952l0-35.711c0,0,24.879-49.477,41.139-10.948C56.029,97.656,144,73.241,144,73.241v35.711H0z"/>
	<path fill="#A6A448" d="M0,109.524l0-35.711c0,0,25.672-49.395,41.731-10.859C56.431,98.348,144,73.813,144,73.813v35.711H0z"/>
	<path fill="#A5A348" d="M0,110.096l0-35.711c0,0,26.466-49.313,42.323-10.771C56.833,99.04,144,74.385,144,74.385v35.711H0z"/>
	<path fill="#A4A249" d="M0,110.668l0-35.711c0,0,27.259-49.231,42.915-10.683C57.235,99.733,144,74.957,144,74.957v35.711H0z"/>
	<path fill="#A4A149" d="M0,111.241l0-35.711c0,0,28.053-49.148,43.508-10.594C57.637,100.425,144,75.529,144,75.529v35.711H0z"/>
	<path fill="#A3A04A" d="M0,111.813l0-35.711c0,0,28.846-49.066,44.1-10.506C58.039,101.117,144,76.102,144,76.102v35.711H0z"/>
	<path fill="#A29F4B" d="M0,112.385l0-35.711c0,0,29.639-48.984,44.692-10.418C58.441,101.809,144,76.674,144,76.674v35.711H0z"/>
	<path fill="#A29F4B" d="M0,112.957l0-35.711c0,0,30.433-48.902,45.284-10.33C58.843,102.501,144,77.246,144,77.246v35.711H0z"/>
	<path fill="#A19E4C" d="M0,113.529l0-35.711c0,0,31.226-48.82,45.876-10.241C59.245,103.193,144,77.818,144,77.818v35.711H0z"/>
	<path fill="#A09D4C" d="M0,114.102L0,78.39c0,0,32.101-48.768,46.469-10.153C59.722,103.858,144,78.39,144,78.39v35.711H0z"/>
	<path fill="#A09C4D" d="M0,114.674l0-35.711c0,0,32.901-48.688,47.061-10.065C60.13,104.548,144,78.963,144,78.963v35.711H0z"/>
	<path fill="#9F9B4D" d="M0,115.246l0-35.711c0,0,33.701-48.608,47.653-9.976C60.539,105.238,144,79.535,144,79.535v35.711H0z"/>
	<path fill="#9E9A4E" d="M0,115.818l0-35.711c0,0,34.501-48.528,48.245-9.888C60.947,105.929,144,80.107,144,80.107v35.711H0z"/>
	<path fill="#9E994E" d="M0,116.39l0-35.711c0,0,35.301-48.447,48.837-9.8c12.518,35.74,95.163,9.8,95.163,9.8v35.711H0z"/>
	<path fill="#9D994F" d="M0,116.963l0-35.711c0,0,36.101-48.367,49.43-9.712C61.763,107.31,144,81.251,144,81.251v35.711H0z"/>
	<path fill="#9D984F" d="M0,117.535l0-35.711c0,0,36.901-48.286,50.022-9.623C62.171,108.001,144,81.824,144,81.824v35.711H0z"/>
	<path fill="#9C9750" d="M0,118.107l0-35.711c0,0,37.701-48.205,50.614-9.535C62.579,108.691,144,82.396,144,82.396v35.711H0z"/>
	<path fill="#9B9650" d="M0,118.679l0-35.711c0,0,38.5-48.125,51.206-9.447C62.987,109.382,144,82.968,144,82.968v35.711H0z"/>
	<path fill="#9B9551" d="M0,119.251L0,83.54c0,0,39.3-48.044,51.798-9.358C63.394,110.073,144,83.54,144,83.54v35.711H0z"/>
	<path fill="#9A9551" d="M0,119.824l0-35.711c0,0,40.099-47.963,52.391-9.27c11.412,35.922,91.61,9.27,91.61,9.27v35.711H0z"/>
	<path fill="#999452" d="M0,120.396l0-35.711c0,0,40.898-47.882,52.983-9.182C64.21,111.456,144,84.685,144,84.685v35.711H0z"/>
	<path fill="#999352" d="M0,120.968l0-35.711c0,0,41.698-47.8,53.575-9.094C64.617,112.147,144,85.257,144,85.257v35.711H0z"/>
	<path fill="#989253" d="M0,121.54l0-35.711c0,0,42.497-47.719,54.167-9.005C65.024,112.838,144,85.829,144,85.829v35.711H0z"/>
	<path fill="#989153" d="M0,122.112l0-35.711c0,0,43.295-47.638,54.76-8.917C65.431,113.53,144,86.401,144,86.401v35.711H0z"/>
	<path fill="#979154" d="M0,122.684l0-35.711c0,0,44.094-47.556,55.352-8.829C65.839,114.221,144,86.973,144,86.973v35.711H0z"/>
	<path fill="#969054" d="M0,123.257l0-35.711c0,0,44.893-47.475,55.944-8.74C66.246,114.913,144,87.545,144,87.545v35.711H0z"/>
	<path fill="#968F55" d="M0,123.829l0-35.711c0,0,45.691-47.393,56.536-8.652C66.652,115.605,144,88.118,144,88.118v35.711H0z"/>
	<path fill="#958E55" d="M0,124.401L0,88.69c0,0,46.49-47.311,57.128-8.564C67.059,116.296,144,88.69,144,88.69v35.711H0z"/>
	<path fill="#958D55" d="M0,124.973l0-35.711c0,0,47.288-47.229,57.721-8.476c9.746,36.202,86.28,8.476,86.28,8.476v35.711H0z"/>
	<path fill="#948D56" d="M0,125.545l0-35.711c0,0,48.086-47.147,58.313-8.387C67.872,117.68,144,89.834,144,89.834v35.711H0z"/>
	<path fill="#938C56" d="M0,126.118l0-35.711c0,0,48.884-47.065,58.905-8.299C68.279,118.372,144,90.406,144,90.406v35.711H0z"/>
	<path fill="#938B57" d="M0,126.69l0-35.711c0,0,49.682-46.983,59.497-8.211C68.685,119.064,144,90.979,144,90.979v35.711H0z"/>
	<path fill="#928A57" d="M0,127.262l0-35.711c0,0,50.48-46.901,60.089-8.122C69.091,119.757,144,91.551,144,91.551v35.711H0z"/>
	<path fill="#928957" d="M0,127.834l0-35.711c0,0,51.277-46.819,60.682-8.034C69.498,120.449,144,92.123,144,92.123v35.711H0z"/>
	<path fill="#918958" d="M0,128.406l0-35.711c0,0,52.075-46.737,61.274-7.946C69.904,121.141,144,92.695,144,92.695v35.711H0z"/>
	<path fill="#908858" d="M0,128.979l0-35.711c0,0,52.872-46.654,61.866-7.858C70.309,121.834,144,93.267,144,93.267v35.711H0z"/>
	<path fill="#908758" d="M0,129.551L0,93.84c0,0,53.669-46.572,62.458-7.769C70.715,122.526,144,93.84,144,93.84v35.711H0z"/>
	<path fill="#8F8659" d="M0,130.123l0-35.711c0,0,54.467-46.489,63.05-7.681c8.071,36.488,80.95,7.681,80.95,7.681v35.711H0z"/>
	<path fill="#8F8659" d="M0,130.695l0-35.711c0,0,55.264-46.407,63.643-7.593C71.526,123.911,144,94.984,144,94.984v35.711H0z"/>
	<path fill="#8E8559" d="M0,131.267l0-35.711c0,0,56.06-46.324,64.235-7.504C71.932,124.604,144,95.556,144,95.556v35.711H0z"/>
	<path fill="#8E845A" d="M0,131.84l0-35.711c0,0,56.857-46.241,64.827-7.416C72.337,125.296,144,96.128,144,96.128v35.711H0z"/>
	<path fill="#8D835A" d="M0,132.412l0-35.711c0,0,57.654-46.159,65.419-7.328C72.742,125.989,144,96.701,144,96.701v35.711H0z"/>
	<path fill="#8C835A" d="M0,132.984l0-35.711c0,0,58.45-46.076,66.011-7.24c7.136,36.649,77.989,7.24,77.989,7.24v35.711H0z"/>
	<path fill="#8C825B" d="M0,133.556l0-35.711c0,0,59.246-45.993,66.604-7.151C73.552,127.375,144,97.845,144,97.845v35.711H0z"/>
	<path fill="#8B815B" d="M0,134.128l0-35.711c0,0,60.042-45.91,67.196-7.063C73.956,128.068,144,98.417,144,98.417v35.711H0z"/>
	<path fill="#8B805B" d="M0,134.701l0-35.711c0,0,60.838-45.827,67.788-6.975C74.361,128.761,144,98.989,144,98.989v35.711H0z"/>
	<path fill="#8A805C" d="M0,135.273l0-35.711c0,0,61.634-45.744,68.38-6.886c6.385,36.779,75.62,6.886,75.62,6.886v35.711H0z"/>
	<path fill="#8A7F5C" d="M0,135.845l0-35.711c0,0,62.43-45.661,68.972-6.798C75.17,130.147,144,100.134,144,100.134v35.711H0z"/>
	<path fill="#897E5C" d="M0,136.417l0-35.711c0,0,63.225-45.578,69.565-6.71c6.009,36.844,74.436,6.71,74.436,6.71v35.711H0z"/>
	<path fill="#897D5C" d="M0,136.989l0-35.711c0,0,64.02-45.494,70.157-6.622c5.821,36.877,73.844,6.622,73.844,6.622v35.711H0z"/>
	<path fill="#887D5D" d="M0,137.561l0-35.711c0,0,64.816-45.411,70.749-6.533C76.382,132.226,144,101.85,144,101.85v35.711H0z"/>
	<path fill="#877C5D" d="M0,138.134l0-35.711c0,0,65.611-45.328,71.341-6.445C76.786,132.92,144,102.422,144,102.422v35.711H0z"/>
	<path fill="#877B5D" d="M0,138.706l0-35.711c0,0,66.406-45.244,71.933-6.357c5.256,36.975,72.067,6.357,72.067,6.357v35.711H0z"/>
	<path fill="#867B5D" d="M0,139.278l0-35.711c0,0,67.2-45.161,72.526-6.268c5.067,37.008,71.475,6.268,71.475,6.268v35.711H0z"/>
	<path fill="#867A5E" d="M0,139.85l0-35.711c0,0,67.995-45.078,73.118-6.18c4.878,37.04,70.883,6.18,70.883,6.18v35.711H0z"/>
	<path fill="#85795E" d="M0,140.422l0-35.711c0,0,68.789-44.994,73.71-6.092c4.689,37.073,70.29,6.092,70.29,6.092v35.711H0z"/>
	<path fill="#85785E" d="M0,140.995l0-35.711c0,0,69.584-44.911,74.302-6.004c4.5,37.106,69.698,6.004,69.698,6.004v35.711H0z"/>
	<path fill="#84785E" d="M0,141.567l0-35.711c0,0,70.378-44.827,74.894-5.915C79.205,137.08,144,105.856,144,105.856v35.711H0z"/>
	<path fill="#84775F" d="M0,142.139l0-35.711c0,0,71.172-44.744,75.487-5.827c4.121,37.172,68.514,5.827,68.514,5.827v35.711H0z"/>
	<path fill="#83765F" d="M0,142.711L0,107c0,0,71.966-44.66,76.079-5.739C80.01,138.466,144,107,144,107v35.711H0z"/>
	<path fill="#83765F" d="M0,143.283l0-35.711c0,0,72.759-44.577,76.671-5.65c3.742,37.238,67.329,5.65,67.329,5.65v35.711H0z"/>
	<path fill="#82755F" d="M0,143.856l0-35.711c0,0,73.553-44.493,77.263-5.562c3.552,37.271,66.737,5.562,66.737,5.562v35.711H0z"/>
	<path fill="#81745F" d="M0,144.428l0-35.711c0,0,74.346-44.41,77.855-5.474c3.362,37.304,66.145,5.474,66.145,5.474v35.711H0z"/>
	<path fill="#817460" d="M0,145l0-35.711c0,0,75.14-44.326,78.448-5.386C81.619,141.24,144,109.289,144,109.289V145H0z"/>
	<path fill="#807360" d="M0,145.572l0-35.711c0,0,75.933-44.242,79.04-5.297c2.982,37.37,64.961,5.297,64.961,5.297v35.711H0z"/>
	<path fill="#807260" d="M0,146.144l0-35.711c0,0,76.726-44.159,79.632-5.209c2.791,37.403,64.368,5.209,64.368,5.209v35.711H0z"/>
	<path fill="#7F7160" d="M0,146.717l0-35.711c0,0,77.518-44.075,80.224-5.121c2.6,37.436,63.776,5.121,63.776,5.121v35.711H0z"/>
	<path fill="#7F7160" d="M0,147.289l0-35.711c0,0,78.311-43.992,80.817-5.032c2.41,37.469,63.184,5.032,63.184,5.032v35.711H0z"/>
	<path fill="#7E7060" d="M0,147.861l0-35.711c0,0,79.104-43.908,81.409-4.944C83.627,144.708,144,112.15,144,112.15v35.711H0z"/>
	<path fill="#7E6F61" d="M0,148.433l0-35.711c0,0,79.896-43.824,82.001-4.856c2.028,37.536,62,4.856,62,4.856v35.711H0z"/>
	<path fill="#7D6F61" d="M0,149.005l0-35.711c0,0,80.688-43.741,82.593-4.768c1.836,37.569,61.407,4.768,61.407,4.768v35.711H0z"/>
	<path fill="#7D6E61" d="M0,149.578l0-35.711c0,0,81.48-43.657,83.185-4.679C84.83,146.789,144,113.866,144,113.866v35.711H0z"/>
	<path fill="#7C6D61" d="M0,150.15l0-35.711c0,0,82.272-43.574,83.778-4.591c1.454,37.635,60.223,4.591,60.223,4.591v35.711H0z"/>
	<path fill="#7C6D61" d="M0,150.722l0-35.711c0,0,83.064-43.49,84.37-4.503c1.262,37.668,59.631,4.503,59.631,4.503v35.711H0z"/>
	<path fill="#7B6C61" d="M0,151.294l0-35.711c0,0,83.855-43.407,84.962-4.414c1.07,37.701,59.039,4.414,59.039,4.414v35.711H0z"/>
	<path fill="#7B6B61" d="M0,151.866l0-35.711c0,0,84.647-43.323,85.554-4.326c0.878,37.734,58.446,4.326,58.446,4.326v35.711H0z"/>
	<path fill="#7A6B61" d="M0,152.438l0-35.711c0,0,85.438-43.239,86.146-4.238c0.686,37.767,57.854,4.238,57.854,4.238v35.711H0z"/>
	<path fill="#7A6A62" d="M0,153.011l0-35.711c0,0,86.229-43.156,86.739-4.15c0.494,37.8,57.262,4.15,57.262,4.15v35.711H0z"/>
	<path fill="#796962" d="M0,153.583l0-35.711c0,0,87.02-43.072,87.331-4.061c0.301,37.833,56.67,4.061,56.67,4.061v35.711H0z"/>
	<path fill="#796962" d="M0,154.155l0-35.711c0,0,87.811-42.989,87.923-3.973c0.109,37.866,56.078,3.973,56.078,3.973v35.711H0z"/>
	<path fill="#786862" d="M0,154.727l0-35.711c0,0,88.601-42.906,88.515-3.885C88.431,153.03,144,119.016,144,119.016v35.711H0z"/>
	<path fill="#786762" d="M0,155.299l0-35.711c0,0,89.392-42.822,89.107-3.796C88.831,153.723,144,119.588,144,119.588v35.711H0z"/>
	<path fill="#776762" d="M0,155.872l0-35.711c0,0,90.182-42.739,89.7-3.708C89.23,154.416,144,120.16,144,120.16v35.711H0z"/>
	<path fill="#776662" d="M0,156.444l0-35.711c0,0,90.973-42.655,90.292-3.62c-0.663,37.997,53.709,3.62,53.709,3.62v35.711H0z"/>
	<path fill="#766562" d="M0,157.016l0-35.711c0,0,91.763-42.572,90.884-3.531c-0.856,38.03,53.117,3.531,53.117,3.531v35.711H0z"/>
	<path fill="#766562" d="M0,157.588l0-35.711c0,0,92.553-42.489,91.476-3.443C90.427,156.496,144,121.877,144,121.877v35.711H0z"/>
	<path fill="#756463" d="M0,158.16l0-35.711c0,0,93.343-42.406,92.068-3.355C90.825,157.189,144,122.449,144,122.449v35.711H0z"/>
	<path fill="#756363" d="M0,158.733l0-35.711c0,0,94.132-42.322,92.661-3.267c-1.437,38.128,51.34,3.267,51.34,3.267v35.711H0z"/>
	<path fill="#746363" d="M0,159.305l0-35.711c0,0,94.922-42.239,93.253-3.178c-1.63,38.16,50.748,3.178,50.748,3.178v35.711H0z"/>
	<path fill="#746263" d="M0,159.877l0-35.711c0,0,95.711-42.156,93.845-3.09c-1.824,38.193,50.155,3.09,50.155,3.09v35.711H0z"/>
	<path fill="#736163" d="M0,160.449l0-35.711c0,0,96.5-42.073,94.437-3.002C92.419,159.962,144,124.738,144,124.738v35.711H0z"/>
	<path fill="#736163" d="M0,161.021l0-35.711c0,0,97.29-41.99,95.029-2.913C92.816,160.655,144,125.31,144,125.31v35.711H0z"/>
	<path fill="#726063" d="M0,161.594l0-35.711c0,0,98.079-41.907,95.622-2.825c-2.407,38.29,48.379,2.825,48.379,2.825v35.711H0z"/>
	<path fill="#726063" d="M0,162.166l0-35.711c0,0,98.867-41.824,96.214-2.737C93.612,162.04,144,126.455,144,126.455v35.711H0z"/>
	<path fill="#725F63" d="M0,162.738l0-35.711c0,0,99.656-41.742,96.806-2.649C94.01,162.733,144,127.027,144,127.027v35.711H0z"/>
	<path fill="#715E63" d="M0,163.31l0-35.711c0,0,100.445-41.659,97.398-2.56c-2.991,38.387,46.602,2.56,46.602,2.56v35.711H0z"/>
	<path fill="#715E63" d="M0,163.882l0-35.711c0,0,101.233-41.576,97.99-2.472c-3.186,38.419,46.01,2.472,46.01,2.472v35.711H0z"/>
	<path fill="#705D63" d="M0,164.455l0-35.711c0,0,102.022-41.493,98.583-2.384C95.201,164.811,144,128.743,144,128.743v35.711H0z"/>
	<path fill="#705C63" d="M0,165.027l0-35.711c0,0,102.81-41.411,99.175-2.295C95.598,165.504,144,129.316,144,129.316v35.711H0z"/>
	<path fill="#6F5C63" d="M0,165.599l0-35.711c0,0,103.598-41.328,99.767-2.207C95.995,166.196,144,129.888,144,129.888v35.711H0z"/>
	<path fill="#6F5B64" d="M0,166.171l0-35.711c0,0,104.386-41.246,100.359-2.119C96.392,166.889,144,130.46,144,130.46v35.711H0z"/>
	<path fill="#6E5A64" d="M0,166.743l0-35.711c0,0,105.174-41.163,100.951-2.031C96.789,167.581,144,131.032,144,131.032v35.711H0z"
		/>
	<path fill="#6E5A64" d="M0,167.315l0-35.711c0,0,105.962-41.081,101.544-1.942C97.185,168.273,144,131.604,144,131.604v35.711H0z"
		/>
	<path fill="#6D5964" d="M0,167.888l0-35.711c0,0,106.749-40.999,102.136-1.854C97.582,168.965,144,132.177,144,132.177v35.711H0z"
		/>
	<path fill="#6D5864" d="M0,168.46l0-35.711c0,0,107.537-40.917,102.728-1.766c-4.75,38.675,41.272,1.766,41.272,1.766v35.711H0z"/>
	<path fill="#6D5864" d="M0,169.032l0-35.711c0,0,108.324-40.835,103.32-1.677c-4.946,38.706,40.68,1.677,40.68,1.677v35.711H0z"/>
	<path fill="#6C5764" d="M0,169.604l0-35.711c0,0,109.111-40.753,103.913-1.589C98.77,171.042,144,133.893,144,133.893v35.711H0z"/>
	<path fill="#6C5764" d="M0,170.176l0-35.711c0,0,109.899-40.671,104.505-1.501C99.166,171.734,144,134.465,144,134.465v35.711H0z"
		/>
	<path fill="#6B5664" d="M0,170.749l0-35.711c0,0,110.686-40.589,105.097-1.413C99.562,172.425,144,135.037,144,135.037v35.711H0z"
		/>
	<path fill="#6B5564" d="M0,171.321l0-35.711c0,0,111.473-40.507,105.689-1.324C99.957,173.117,144,135.61,144,135.61v35.711H0z"/>
	<path fill="#6A5564" d="M0,171.893l0-35.711c0,0,112.259-40.425,106.281-1.236c-5.928,38.863,37.719,1.236,37.719,1.236v35.711H0z"
		/>
	<path fill="#6A5464" d="M0,172.465l0-35.711c0,0,113.046-40.344,106.874-1.148C100.748,174.5,144,136.754,144,136.754v35.711H0z"/>
	<path fill="#695364" d="M0,173.037l0-35.711c0,0,113.833-40.262,107.466-1.059c-6.322,38.925,36.535,1.059,36.535,1.059v35.711H0z"
		/>
	<path fill="#695364" d="M0,173.61l0-35.711c0,0,114.619-40.181,108.058-0.971c-6.519,38.956,35.943,0.971,35.943,0.971v35.711H0z"
		/>
	<path fill="#695264" d="M0,174.182l0-35.711c0,0,115.33-40.112,108.65-0.883c-6.791,38.974,35.35,0.883,35.35,0.883v35.711
		L0,174.182z"/>
	<path fill="#685164" d="M0,174.754l0-35.711c0,0,116.124-40.03,109.242-0.795c-6.981,39.006,34.758,0.795,34.758,0.795v35.711H0z"
		/>
	<path fill="#685164" d="M0,175.326l0-35.711c0,0,116.917-39.948,109.835-0.706c-7.171,39.037,34.166,0.706,34.166,0.706v35.711H0z"
		/>
	<path fill="#675064" d="M0,175.898l0-35.711c0,0,117.711-39.866,110.427-0.618c-7.361,39.069,33.574,0.618,33.574,0.618v35.711H0z"
		/>
	<path fill="#675064" d="M0,176.471l0-35.711c0,0,118.504-39.784,111.019-0.53c-7.551,39.101,32.982,0.53,32.982,0.53v35.711H0z"/>
	<path fill="#664F64" d="M0,177.043l0-35.711c0,0,119.298-39.702,111.611-0.441c-7.742,39.132,32.389,0.441,32.389,0.441v35.711H0z"
		/>
	<path fill="#664E64" d="M0,177.615l0-35.711c0,0,120.091-39.619,112.203-0.353c-7.932,39.164,31.797,0.353,31.797,0.353v35.711H0z"
		/>
	<path fill="#664E64" d="M0,178.187l0-35.711c0,0,120.884-39.537,112.796-0.265c-8.122,39.196,31.205,0.265,31.205,0.265v35.711H0z"
		/>
	<path fill="#654D64" d="M0,178.759l0-35.711c0,0,121.678-39.455,113.388-0.177c-8.312,39.227,30.613,0.177,30.613,0.177v35.711H0z"
		/>
	<path fill="#654C64" d="M0,179.332l0-35.711c0,0,122.471-39.373,113.98-0.088C105.477,182.791,144,143.62,144,143.62v35.711H0z"/>
	<path fill="#644C64" d="M0,179.904l0-35.711c0,0,123.265-39.291,114.572,0s29.428,0,29.428,0v35.711H0z"/>
	<path fill="#654C64" d="M0,180.326l0-35.711c0,0,122.395-38.69,113.915,0s30.086,0,30.086,0v35.711H0z"/>
	<path fill="#664C65" d="M0,180.748l0-35.711c0,0,121.526-38.09,113.257,0s30.743,0,30.743,0v35.711H0z"/>
	<path fill="#674C65" d="M0,181.17l0-35.711c0,0,120.657-37.49,112.6,0s31.401,0,31.401,0v35.711H0z"/>
	<path fill="#684C65" d="M0,181.592l0-35.711c0,0,119.788-36.889,111.942,0s32.059,0,32.059,0v35.711H0z"/>
	<path fill="#684D65" d="M0,182.014l0-35.711c0,0,118.918-36.289,111.284,0s32.716,0,32.716,0v35.711H0z"/>
	<path fill="#694D65" d="M0,182.436l0-35.711c0,0,118.049-35.688,110.627,0s33.374,0,33.374,0v35.711H0z"/>
	<path fill="#6A4D65" d="M0,182.858l0-35.711c0,0,117.18-35.088,109.969,0s34.031,0,34.031,0v35.711H0z"/>
	<path fill="#6B4D65" d="M0,183.28l0-35.711c0,0,116.31-34.488,109.312,0c-6.999,34.488,34.689,0,34.689,0v35.711H0z"/>
	<path fill="#6C4D65" d="M0,183.702l0-35.711c0,0,115.441-33.887,108.654,0c-6.787,33.887,35.346,0,35.346,0v35.711H0z"/>
	<path fill="#6C4E65" d="M0,184.124l0-35.711c0,0,114.572-33.287,107.997,0c-6.575,33.287,36.004,0,36.004,0v35.711H0z"/>
	<path fill="#6D4E65" d="M0,184.547l0-35.711c0,0,113.702-32.686,107.339,0s36.661,0,36.661,0v35.711H0z"/>
	<path fill="#6E4E65" d="M0,184.969l0-35.711c0,0,112.833-32.086,106.681,0s37.319,0,37.319,0v35.711H0z"/>
	<path fill="#6F4E65" d="M0,185.391l0-35.711c0,0,111.964-31.486,106.024,0c-5.94,31.486,37.977,0,37.977,0v35.711H0z"/>
	<path fill="#704E65" d="M0,185.813l0-35.711c0,0,111.095-30.885,105.366,0s38.634,0,38.634,0v35.711H0z"/>
	<path fill="#704F65" d="M0,186.235l0-35.711c0,0,110.225-30.285,104.709,0s39.292,0,39.292,0v35.711H0z"/>
	<path fill="#714F65" d="M0,186.657l0-35.711c0,0,109.356-29.684,104.051,0s39.949,0,39.949,0v35.711H0z"/>
	<path fill="#724F65" d="M0,187.079l0-35.711c0,0,108.487-29.084,103.394,0c-5.093,29.084,40.607,0,40.607,0v35.711H0z"/>
	<path fill="#734F65" d="M0,187.501l0-35.711c0,0,107.617-28.484,102.736,0c-4.881,28.484,41.264,0,41.264,0v35.711H0z"/>
	<path fill="#744F65" d="M0,187.923l0-35.711c0,0,106.748-27.883,102.079,0s41.922,0,41.922,0v35.711H0z"/>
	<path fill="#745065" d="M0,188.345l0-35.711c0,0,105.879-27.283,101.421,0c-4.458,27.283,42.58,0,42.58,0v35.711H0z"/>
	<path fill="#755065" d="M0,188.767l0-35.711c0,0,105.009-26.682,100.763,0c-4.246,26.682,43.237,0,43.237,0v35.711H0z"/>
	<path fill="#765065" d="M0,189.189l0-35.711c0,0,104.14-26.082,100.106,0c-4.034,26.082,43.895,0,43.895,0v35.711H0z"/>
	<path fill="#775065" d="M0,189.611L0,153.9c0,0,103.271-25.482,99.448,0s44.552,0,44.552,0v35.711H0z"/>
	<path fill="#785066" d="M0,190.033l0-35.711c0,0,102.401-24.881,98.791,0s45.21,0,45.21,0v35.711H0z"/>
	<path fill="#785166" d="M0,190.456l0-35.711c0,0,101.532-24.281,98.133,0c-3.399,24.281,45.867,0,45.867,0v35.711H0z"/>
	<path fill="#795166" d="M0,190.878l0-35.711c0,0,100.663-23.68,97.476,0c-3.187,23.68,46.525,0,46.525,0v35.711H0z"/>
	<path fill="#7A5166" d="M0,191.3l0-35.711c0,0,99.794-23.08,96.818,0s47.182,0,47.182,0V191.3H0z"/>
	<path fill="#7B5166" d="M0,191.722l0-35.711c0,0,98.924-22.48,96.16,0s47.84,0,47.84,0v35.711H0z"/>
	<path fill="#7C5166" d="M0,192.144l0-35.711c0,0,98.055-21.879,95.503,0s48.498,0,48.498,0v35.711H0z"/>
	<path fill="#7D5266" d="M0,192.566l0-35.711c0,0,97.186-21.279,94.845,0c-2.34,21.279,49.155,0,49.155,0v35.711H0z"/>
	<path fill="#7D5266" d="M0,192.988l0-35.711c0,0,96.316-20.679,94.188,0s49.813,0,49.813,0v35.711H0z"/>
	<path fill="#7E5266" d="M0,193.41l0-35.711c0,0,95.447-20.078,93.53,0s50.47,0,50.47,0v35.711H0z"/>
	<path fill="#7F5266" d="M0,193.832l0-35.711c0,0,94.578-19.478,92.873,0c-1.705,19.478,51.128,0,51.128,0v35.711H0z"/>
	<path fill="#805266" d="M0,194.254l0-35.711c0,0,93.708-18.877,92.215,0c-1.493,18.877,51.785,0,51.785,0v35.711H0z"/>
	<path fill="#815366" d="M0,194.676l0-35.711c0,0,92.839-18.277,91.558,0c-1.282,18.277,52.443,0,52.443,0v35.711H0z"/>
	<path fill="#825366" d="M0,195.098l0-35.711c0,0,91.97-17.677,90.9,0s53.101,0,53.101,0v35.711H0z"/>
	<path fill="#825366" d="M0,195.52l0-35.711c0,0,91.1-17.076,90.242,0s53.758,0,53.758,0v35.711H0z"/>
	<path fill="#835366" d="M0,195.942l0-35.711c0,0,90.231-16.476,89.585,0c-0.646,16.476,54.416,0,54.416,0v35.711H0z"/>
	<path fill="#845366" d="M0,196.364l0-35.711c0,0,89.362-15.875,88.927,0s55.073,0,55.073,0v35.711H0z"/>
	<path fill="#855466" d="M0,196.787l0-35.711c0,0,88.493-15.275,88.27,0s55.731,0,55.731,0v35.711H0z"/>
	<path fill="#865466" d="M0,197.209l0-35.711c0,0,87.623-14.675,87.612,0c-0.011,14.675,56.388,0,56.388,0v35.711H0z"/>
	<path fill="#875466" d="M0,197.631l0-35.711c0,0,86.754-14.074,86.955,0c0.201,14.074,57.046,0,57.046,0v35.711H0z"/>
	<path fill="#875466" d="M0,198.053l0-35.711c0,0,85.885-13.474,86.297,0c0.412,13.474,57.703,0,57.703,0v35.711H0z"/>
	<path fill="#885466" d="M0,198.475l0-35.711c0,0,85.015-12.873,85.639,0s58.361,0,58.361,0v35.711H0z"/>
	<path fill="#895466" d="M0,198.897l0-35.711c0,0,84.146-12.273,84.982,0c0.836,12.273,59.019,0,59.019,0v35.711H0z"/>
	<path fill="#8A5566" d="M0,199.319l0-35.711c0,0,83.277-11.673,84.324,0c1.048,11.673,59.676,0,59.676,0v35.711H0z"/>
	<path fill="#8B5566" d="M0,199.741l0-35.711c0,0,82.407-11.072,83.667,0c1.259,11.072,60.334,0,60.334,0v35.711H0z"/>
	<path fill="#8C5566" d="M0,200.163l0-35.711c0,0,81.538-10.472,83.009,0s60.991,0,60.991,0v35.711H0z"/>
	<path fill="#8C5566" d="M0,200.585l0-35.711c0,0,80.669-9.871,82.352,0c1.683,9.871,61.649,0,61.649,0v35.711H0z"/>
	<path fill="#8D5666" d="M0,201.007l0-35.711c0,0,79.799-9.271,81.694,0c1.895,9.271,62.306,0,62.306,0v35.711H0z"/>
	<path fill="#8E5666" d="M0,201.429l0-35.711c0,0,78.93-8.671,81.037,0s62.964,0,62.964,0v35.711H0z"/>
	<path fill="#8F5666" d="M0,201.851l0-35.711c0,0,78.061-8.07,80.379,0c2.318,8.07,63.622,0,63.622,0v35.711H0z"/>
	<path fill="#905666" d="M0,202.273l0-35.711c0,0,77.192-7.47,79.721,0c2.53,7.47,64.279,0,64.279,0v35.711H0z"/>
	<path fill="#915666" d="M0,202.696l0-35.711c0,0,76.322-6.869,79.064,0c2.742,6.869,64.937,0,64.937,0v35.711H0z"/>
	<path fill="#925766" d="M0,203.118l0-35.711c0,0,75.453-6.269,78.406,0c2.953,6.269,65.594,0,65.594,0v35.711H0z"/>
	<path fill="#925766" d="M0,203.54l0-35.711c0,0,74.584-5.669,77.749,0s66.252,0,66.252,0v35.711H0z"/>
	<path fill="#935766" d="M0,203.962l0-35.711c0,0,73.714-5.068,77.091,0s66.909,0,66.909,0v35.711H0z"/>
	<path fill="#945766" d="M0,204.384l0-35.711c0,0,72.845-4.468,76.434,0c3.589,4.468,67.567,0,67.567,0v35.711H0z"/>
	<path fill="#955767" d="M0,204.806l0-35.711c0,0,71.976-3.867,75.776,0c3.8,3.867,68.224,0,68.224,0v35.711H0z"/>
	<path fill="#965867" d="M0,205.228l0-35.711c0,0,71.106-3.267,75.119,0c4.012,3.267,68.882,0,68.882,0v35.711H0z"/>
	<path fill="#975867" d="M0,205.65l0-35.711c0,0,70.237-2.667,74.461,0c4.224,2.667,69.54,0,69.54,0v35.711H0z"/>
	<path fill="#985867" d="M0,206.072l0-35.711c0,0,69.368-2.066,73.803,0s70.197,0,70.197,0v35.711H0z"/>
	<path fill="#995867" d="M0,206.494l0-35.711c0,0,68.499-1.466,73.146,0c4.647,1.466,70.855,0,70.855,0v35.711H0z"/>
	<path fill="#995867" d="M0,206.916l0-35.711c0,0,67.629-0.865,72.488,0s71.512,0,71.512,0v35.711H0z"/>
	<path fill="#9A5967" d="M0,207.338l0-35.711c0,0,66.76-0.265,71.831,0s72.17,0,72.17,0v35.711H0z"/>
	<path fill="#9B5967" d="M0,207.909l0-35.711c0,0,65.891,0.335,71.173,0c5.283-0.335,72.827,0,72.827,0v35.711H0z"/>
	<path fill="#9C5967" d="M0,208.598l0-35.711c0,0,65.021,0.936,70.516,0c5.494-0.936,73.485,0,73.485,0v35.711H0z"/>
	<path fill="#9D5967" d="M0,209.287l0-35.711c0,0,64.152,1.536,69.858,0c5.706-1.536,74.143,0,74.143,0v35.711H0z"/>
	<path fill="#9E5967" d="M0,209.976l0-35.711c0,0,63.283,2.137,69.2,0c5.918-2.137,74.8,0,74.8,0v35.711H0z"/>
	<path fill="#9F5A67" d="M0,210.665l0-35.711c0,0,62.413,2.737,68.543,0c6.13-2.737,75.458,0,75.458,0v35.711H0z"/>
	<path fill="#A05A67" d="M0,211.354l0-35.711c0,0,61.544,3.337,67.885,0c6.341-3.337,76.115,0,76.115,0v35.711H0z"/>
	<path fill="#A15A67" d="M0,212.043l0-35.711c0,0,60.675,3.938,67.228,0c6.553-3.938,76.773,0,76.773,0v35.711H0z"/>
	<path fill="#A25A67" d="M0,212.732l0-35.711c0,0,59.805,4.538,66.57,0c6.765-4.538,77.43,0,77.43,0v35.711H0z"/>
	<path fill="#A35A67" d="M0,213.421l0-35.711c0,0,58.936,5.139,65.913,0s78.088,0,78.088,0v35.711H0z"/>
	<path fill="#A35B67" d="M0,214.11l0-35.711c0,0,58.067,5.739,65.255,0c7.188-5.739,78.745,0,78.745,0v35.711H0z"/>
	<path fill="#A45B67" d="M0,214.799l0-35.711c0,0,57.198,6.339,64.598,0c7.4-6.339,79.403,0,79.403,0v35.711H0z"/>
	<path fill="#A55B67" d="M0,215.488l0-35.711c0,0,56.328,6.94,63.94,0c7.612-6.94,80.061,0,80.061,0v35.711H0z"/>
	<path fill="#A65B67" d="M0,216.176l0-35.711c0,0,55.459,7.54,63.282,0s80.718,0,80.718,0v35.711H0z"/>
	<path fill="#A75B67" d="M0,216.865l0-35.711c0,0,54.59,8.141,62.625,0s81.376,0,81.376,0v35.711H0z"/>
	<path fill="#A85C67" d="M0,217.554l0-35.711c0,0,53.72,8.741,61.967,0c8.247-8.741,82.033,0,82.033,0v35.711H0z"/>
	<path fill="#A95C67" d="M0,218.243l0-35.711c0,0,52.851,9.341,61.31,0s82.691,0,82.691,0v35.711H0z"/>
	<path fill="#AA5C67" d="M0,218.932l0-35.711c0,0,51.982,9.942,60.652,0s83.348,0,83.348,0v35.711H0z"/>
	<path fill="#AB5C67" d="M0,219.621l0-35.711c0,0,51.112,10.542,59.995,0c8.882-10.542,84.006,0,84.006,0v35.711H0z"/>
	<path fill="#AC5C67" d="M0,220.31l0-35.711c0,0,50.243,11.143,59.337,0s84.663,0,84.663,0v35.711H0z"/>
	<path fill="#AD5D67" d="M0,220.999l0-35.711c0,0,49.374,11.743,58.679,0s85.321,0,85.321,0v35.711H0z"/>
	<path fill="#AE5D67" d="M0,221.688l0-35.711c0,0,48.504,12.343,58.022,0c9.517-12.343,85.979,0,85.979,0v35.711H0z"/>
	<path fill="#AE5D67" d="M0,222.377l0-35.711c0,0,47.635,12.944,57.364,0s86.636,0,86.636,0v35.711H0z"/>
	<path fill="#AF5D67" d="M0,223.066l0-35.711c0,0,46.766,13.544,56.707,0s87.294,0,87.294,0v35.711H0z"/>
	<path fill="#B05D67" d="M0,223.755l0-35.711c0,0,45.897,14.145,56.049,0c10.153-14.145,87.951,0,87.951,0v35.711H0z"/>
	<path fill="#B15E67" d="M0,224.443l0-35.711c0,0,45.027,14.745,55.392,0s88.609,0,88.609,0v35.711H0z"/>
	<path fill="#B25E67" d="M0,225.132l0-35.711c0,0,44.158,15.345,54.734,0s89.266,0,89.266,0v35.711H0z"/>
	<path fill="#B35E67" d="M0,225.821l0-35.711c0,0,43.289,15.946,54.077,0s89.924,0,89.924,0v35.711H0z"/>
	<path fill="#B45E67" d="M0,226.51l0-35.711c0,0,42.419,16.546,53.419,0s90.582,0,90.582,0v35.711H0z"/>
	<path fill="#B55F67" d="M0,227.199l0-35.711c0,0,41.55,17.147,52.761,0s91.239,0,91.239,0v35.711H0z"/>
	<path fill="#B65F67" d="M0,227.888l0-35.711c0,0,40.681,17.747,52.104,0s91.897,0,91.897,0v35.711H0z"/>
	<path fill="#B75F67" d="M0,228.577l0-35.711c0,0,39.811,18.347,51.446,0s92.554,0,92.554,0v35.711H0z"/>
	<path fill="#B85F67" d="M0,229.266l0-35.711c0,0,38.942,18.948,50.789,0s93.212,0,93.212,0v35.711H0z"/>
	<path fill="#B95F67" d="M0,229.955l0-35.711c0,0,38.073,19.548,50.131,0s93.869,0,93.869,0v35.711H0z"/>
	<path fill="#BA6067" d="M0,230.644l0-35.711c0,0,37.203,20.149,49.474,0s94.527,0,94.527,0v35.711H0z"/>
	<path fill="#BB6067" d="M0,231.333l0-35.711c0,0,36.334,20.749,48.816,0s95.184,0,95.184,0v35.711H0z"/>
	<path fill="#BC6067" d="M0,232.021l0-35.711c0,0,35.465,21.349,48.158,0s95.842,0,95.842,0v35.711H0z"/>
	<path fill="#BD6067" d="M0,232.71l0-35.711c0,0,34.596,21.95,47.501,0s96.5,0,96.5,0v35.711H0z"/>
	<path fill="#BE6067" d="M0,233.399l0-35.711c0,0,33.726,22.55,46.843,0s97.157,0,97.157,0v35.711H0z"/>
	<path fill="#BF6167" d="M0,234.088l0-35.711c0,0,32.857,23.15,46.186,0s97.815,0,97.815,0v35.711H0z"/>
	<path fill="#C06167" d="M0,234.777l0-35.711c0,0,31.988,23.751,45.528,0s98.472,0,98.472,0v35.711H0z"/>
	<path fill="#C06167" d="M0,235.466l0-35.711c0,0,31.118,24.351,44.871,0s99.13,0,99.13,0v35.711H0z"/>
	<path fill="#C16167" d="M0,236.155l0-35.711c0,0,30.249,24.952,44.213,0s99.787,0,99.787,0v35.711H0z"/>
	<path fill="#C26167" d="M0,236.844l0-35.711c0,0,29.38,25.552,43.556,0s100.445,0,100.445,0v35.711H0z"/>
	<path fill="#C36267" d="M0,237.533l0-35.711c0,0,28.51,26.152,42.898,0s101.103,0,101.103,0v35.711H0z"/>
	<path fill="#C46267" d="M0,238.222l0-35.711c0,0,27.641,26.753,42.24,0s101.76,0,101.76,0v35.711H0z"/>
	<path fill="#C56267" d="M0,238.911l0-35.711c0,0,26.772,27.353,41.583,0s102.418,0,102.418,0v35.711H0z"/>
	<path fill="#C66267" d="M0,239.6l0-35.711c0,0,25.903,27.954,40.925,0s103.075,0,103.075,0V239.6H0z"/>
	<path fill="#C76367" d="M0,240.288l0-35.711c0,0,25.033,28.554,40.268,0s103.733,0,103.733,0v35.711H0z"/>
	<path fill="#C86367" d="M0,240.977l0-35.711c0,0,24.164,29.154,39.61,0s104.39,0,104.39,0v35.711H0z"/>
	<path fill="#C96367" d="M0,241.666l0-35.711c0,0,23.295,29.755,38.953,0s105.048,0,105.048,0v35.711H0z"/>
	<path fill="#CA6367" d="M0,242.355l0-35.711c0,0,22.425,30.355,38.295,0s105.705,0,105.705,0v35.711H0z"/>
	<path fill="#CB6367" d="M0,243.044l0-35.711c0,0,21.556,30.956,37.637,0s106.363,0,106.363,0v35.711H0z"/>
	<path fill="#CC6467" d="M0,243.733l0-35.711c0,0,20.687,31.556,36.98,0s107.021,0,107.021,0v35.711H0z"/>
	<path fill="#CD6467" d="M0,244.422l0-35.711c0,0,19.817,32.156,36.322,0s107.678,0,107.678,0v35.711H0z"/>
	<path fill="#CE6467" d="M0,245.111L0,209.4c0,0,18.948,32.757,35.665,0s108.336,0,108.336,0v35.711H0z"/>
	<path fill="#CF6467" d="M0,245.8l0-35.711c0,0,18.079,33.357,35.007,0s108.993,0,108.993,0V245.8H0z"/>
	<path fill="#D16567" d="M0,246.489l0-35.711c0,0,17.209,33.958,34.35,0s109.651,0,109.651,0v35.711H0z"/>
	<path fill="#D26567" d="M0,247.178l0-35.711c0,0,16.34,34.558,33.692,0s110.308,0,110.308,0v35.711H0z"/>
	<path fill="#D36567" d="M0,247.867l0-35.711c0,0,15.471,35.158,33.035,0s110.966,0,110.966,0v35.711H0z"/>
	<path fill="#D46567" d="M0,248.555l0-35.711c0,0,14.602,35.759,32.377,0s111.624,0,111.624,0v35.711H0z"/>
	<path fill="#D56667" d="M0,249.244l0-35.711c0,0,13.732,36.359,31.719,0s112.281,0,112.281,0v35.711H0z"/>
	<path fill="#D66667" d="M0,249.933l0-35.711c0,0,12.863,36.96,31.062,0s112.939,0,112.939,0v35.711H0z"/>
	<path fill="#D76667" d="M0,250.622l0-35.711c0,0,11.994,37.56,30.404,0s113.596,0,113.596,0v35.711H0z"/>
	<path fill="#D96767" d="M0,251.311L0,215.6c0,0,11.124,38.16,29.747,0s114.254,0,114.254,0v35.711H0z"/>
	<path fill="#DA6767" d="M0,252l0-35.711c0,0,10.255,38.761,29.089,0s114.911,0,114.911,0V252H0z"/>
</g>
</svg>
